<svg width="124" height="12" viewBox="0 0 124 12" fill="none" xmlns="http://www.w3.org/2000/svg">
<path d="M123.354 6.35355C123.549 6.15829 123.549 5.84171 123.354 5.64645L120.172 2.46447C119.976 2.2692 119.66 2.2692 119.464 2.46447C119.269 2.65973 119.269 2.97631 119.464 3.17157L122.293 6L119.464 8.82843C119.269 9.02369 119.269 9.34027 119.464 9.53553C119.66 9.7308 119.976 9.7308 120.172 9.53553L123.354 6.35355ZM88 6.5L123 6.5V5.5L88 5.5V6.5Z" fill="#6F4218"/>
<path d="M1.302 11V1.06H5.432C5.86133 1.06 6.24867 1.14867 6.594 1.326C6.94867 1.50333 7.252 1.74133 7.504 2.04C7.76533 2.32933 7.966 2.656 8.106 3.02C8.25533 3.384 8.33 3.75733 8.33 4.14C8.33 4.63467 8.232 5.09667 8.036 5.526C7.84 5.95533 7.56467 6.31467 7.21 6.604C6.86467 6.89333 6.45867 7.07067 5.992 7.136L8.47 11H7.644L5.236 7.248H2.016V11H1.302ZM2.016 6.59H5.502C5.93133 6.59 6.30467 6.47333 6.622 6.24C6.93933 6.00667 7.182 5.70333 7.35 5.33C7.52733 4.95667 7.616 4.56 7.616 4.14C7.616 3.71067 7.51333 3.314 7.308 2.95C7.112 2.57667 6.846 2.278 6.51 2.054C6.18333 1.82067 5.81467 1.704 5.404 1.704H2.016V6.59ZM13.8538 1.06H14.4698L18.6698 11H17.9138L16.5278 7.724H11.7818L10.3958 11H9.62577L13.8538 1.06ZM16.3318 7.136L14.1618 1.928L11.9498 7.136H16.3318ZM21.313 2.39V11H20.599V1.06H21.187L28.117 9.81V1.06H28.831V11H28.131L21.313 2.39ZM32.5612 2.39V11H31.8472V1.06H32.4352L39.3652 9.81V1.06H40.0792V11H39.3792L32.5612 2.39ZM48.8773 2.712C48.7186 2.53467 48.5413 2.38067 48.3453 2.25C48.1493 2.11 47.9393 1.998 47.7153 1.914C47.4913 1.82067 47.2486 1.75067 46.9873 1.704C46.7259 1.65733 46.4459 1.634 46.1473 1.634C45.1766 1.634 44.4673 1.82067 44.0193 2.194C43.5806 2.558 43.3613 3.05267 43.3613 3.678C43.3613 4.098 43.4593 4.434 43.6553 4.686C43.8606 4.92867 44.1779 5.12467 44.6073 5.274C45.0366 5.42333 45.5919 5.568 46.2733 5.708C46.9919 5.85733 47.6126 6.03467 48.1353 6.24C48.6579 6.436 49.0593 6.70667 49.3393 7.052C49.6286 7.39733 49.7733 7.864 49.7733 8.452C49.7733 8.89067 49.6893 9.278 49.5213 9.614C49.3533 9.94067 49.1106 10.2113 48.7933 10.426C48.4759 10.6407 48.0979 10.804 47.6593 10.916C47.2299 11.028 46.7493 11.084 46.2173 11.084C45.7039 11.084 45.2139 11.028 44.7473 10.916C44.2806 10.804 43.8419 10.6407 43.4313 10.426C43.0206 10.2113 42.6379 9.936 42.2833 9.6L42.6613 9.026C42.8666 9.25 43.0953 9.45067 43.3473 9.628C43.6086 9.796 43.8886 9.94067 44.1873 10.062C44.4953 10.1833 44.8219 10.2813 45.1673 10.356C45.5126 10.4213 45.8719 10.454 46.2453 10.454C47.1133 10.454 47.7899 10.2953 48.2753 9.978C48.7699 9.65133 49.0173 9.17067 49.0173 8.536C49.0173 8.09733 48.9053 7.74267 48.6813 7.472C48.4573 7.20133 48.1119 6.982 47.6453 6.814C47.1786 6.63667 46.5953 6.47333 45.8953 6.324C45.1953 6.17467 44.5979 6.00667 44.1033 5.82C43.6179 5.63333 43.2493 5.38133 42.9973 5.064C42.7546 4.74667 42.6333 4.31733 42.6333 3.776C42.6333 3.17867 42.7779 2.67467 43.0673 2.264C43.3659 1.844 43.7813 1.52667 44.3133 1.312C44.8453 1.09733 45.4566 0.99 46.1473 0.99C46.5766 0.99 46.9733 1.032 47.3373 1.116C47.7106 1.2 48.0513 1.33067 48.3593 1.508C48.6766 1.676 48.9706 1.89067 49.2413 2.152L48.8773 2.712ZM54.9361 1.06H55.5521L59.7521 11H58.9961L57.6101 7.724H52.8641L51.4781 11H50.7081L54.9361 1.06ZM57.4141 7.136L55.2441 1.928L53.0321 7.136H57.4141ZM61.6814 11V1.06H62.3954V7.094L68.1914 1.06H69.0174L64.8874 5.414L69.2274 11H68.4014L64.4114 5.862L62.3954 7.934V11H61.6814ZM74.1101 1.06H74.7261L78.9261 11H78.1701L76.7841 7.724H72.0381L70.6521 11H69.8821L74.1101 1.06ZM76.5881 7.136L74.4181 1.928L72.2061 7.136H76.5881Z" fill="#455876"/>
</svg>
