<svg width="211" height="31" viewBox="0 0 211 31" fill="none" xmlns="http://www.w3.org/2000/svg">
<path d="M112.96 30.4C110.373 30.4 108.267 29.88 106.64 28.84C105.04 27.8 103.867 26.3067 103.12 24.36C102.373 22.4133 102 20.1067 102 17.44C102 14.56 102.347 12.1067 103.04 10.08C103.733 8.05333 104.88 6.50667 106.48 5.44C108.08 4.37333 110.24 3.84 112.96 3.84C115.653 3.84 117.8 4.37333 119.4 5.44C121 6.50667 122.147 8.05333 122.84 10.08C123.533 12.1067 123.88 14.56 123.88 17.44C123.88 20.1067 123.507 22.4133 122.76 24.36C122.04 26.3067 120.88 27.8 119.28 28.84C117.68 29.88 115.573 30.4 112.96 30.4ZM112.96 27.6C114.853 27.6 116.347 27.1867 117.44 26.36C118.56 25.5067 119.36 24.32 119.84 22.8C120.347 21.2533 120.6 19.4667 120.6 17.44C120.6 13.9467 120.04 11.28 118.92 9.44C117.827 7.57333 115.84 6.64 112.96 6.64C111.04 6.64 109.52 7.05333 108.4 7.88C107.28 8.70667 106.48 9.93333 106 11.56C105.52 13.16 105.28 15.12 105.28 17.44C105.28 19.4667 105.52 21.2533 106 22.8C106.507 24.32 107.32 25.5067 108.44 26.36C109.587 27.1867 111.093 27.6 112.96 27.6ZM127.898 30V28.24C128.592 26.56 129.578 25.0267 130.858 23.64C132.138 22.2533 133.512 20.9467 134.978 19.72C136.445 18.4933 137.578 17.4667 138.378 16.64C139.205 15.7867 139.778 14.9733 140.098 14.2C140.418 13.4 140.578 12.4667 140.578 11.4C140.578 9.85333 140.178 8.68 139.378 7.88C138.578 7.05333 137.085 6.64 134.898 6.64C133.912 6.64 132.898 6.74666 131.858 6.96C130.818 7.14667 129.832 7.42667 128.898 7.8V4.88C129.752 4.58666 130.778 4.34666 131.978 4.16C133.178 3.94667 134.325 3.84 135.418 3.84C138.192 3.84 140.285 4.52 141.698 5.88C143.138 7.21333 143.858 9.05333 143.858 11.4C143.858 12.68 143.632 13.8133 143.178 14.8C142.725 15.76 142.098 16.68 141.298 17.56C140.498 18.4133 139.565 19.32 138.498 20.28C137.192 21.4267 135.938 22.56 134.738 23.68C133.565 24.7733 132.632 26.0267 131.938 27.44H144.138V30H127.898Z" fill="#455876"/>
<path d="M149 30L148.057 29.6667L147.586 31H149V30ZM158.36 3.52V2.52H157.653L157.417 3.18673L158.36 3.52ZM161.68 3.52L162.623 3.85326L163.094 2.52H161.68V3.52ZM152.32 30V31H153.027L153.263 30.3333L152.32 30ZM149.943 30.3333L159.303 3.85326L157.417 3.18673L148.057 29.6667L149.943 30.3333ZM158.36 4.52H161.68V2.52H158.36V4.52ZM160.737 3.18673L151.377 29.6667L153.263 30.3333L162.623 3.85326L160.737 3.18673ZM152.32 29H149V31H152.32V29ZM170.32 28.84L169.775 29.6785L169.781 29.6825L170.32 28.84ZM166.8 24.36L165.866 24.7181L166.8 24.36ZM166.72 10.08L165.774 9.75631L166.72 10.08ZM170.16 5.44L169.605 4.60795H169.605L170.16 5.44ZM183.08 5.44L183.634 4.60795L183.08 5.44ZM186.52 10.08L187.466 9.75631L186.52 10.08ZM186.44 24.36L185.506 24.0019L185.502 24.0131L186.44 24.36ZM182.96 28.84L182.415 28.0016L182.96 28.84ZM181.12 26.36L181.723 27.1577L181.726 27.1554L181.12 26.36ZM183.52 22.8L182.569 22.4887L182.566 22.4989L183.52 22.8ZM182.6 9.44L181.737 9.9454L181.741 9.95271L181.745 9.95995L182.6 9.44ZM169.68 11.56L170.638 11.8474L170.639 11.843L169.68 11.56ZM169.68 22.8L168.725 23.0964L168.728 23.1063L168.731 23.1162L169.68 22.8ZM172.12 26.36L171.514 27.1554L171.524 27.1634L171.535 27.1712L172.12 26.36ZM176.64 29.4C174.181 29.4 172.278 28.9052 170.858 27.9975L169.781 29.6825C171.615 30.8548 173.925 31.4 176.64 31.4V29.4ZM170.865 28.0016C169.458 27.0874 168.412 25.7706 167.733 24.0019L165.866 24.7181C166.681 26.8427 167.981 28.5126 169.775 29.6784L170.865 28.0016ZM167.733 24.0019C167.041 22.1965 166.68 20.0169 166.68 17.44H164.68C164.68 20.1965 165.065 22.6302 165.866 24.7181L167.733 24.0019ZM166.68 17.44C166.68 14.6347 167.018 12.2972 167.666 10.4037L165.774 9.75631C165.035 11.9161 164.68 14.4853 164.68 17.44H166.68ZM167.666 10.4037C168.297 8.55991 169.318 7.203 170.714 6.27205L169.605 4.60795C167.801 5.81034 166.529 7.54675 165.774 9.75631L167.666 10.4037ZM170.714 6.27205C172.095 5.35156 174.039 4.84 176.64 4.84V2.84C173.801 2.84 171.424 3.3951 169.605 4.60795L170.714 6.27205ZM176.64 4.84C179.212 4.84 181.143 5.35064 182.525 6.27205L183.634 4.60795C181.817 3.39603 179.454 2.84 176.64 2.84V4.84ZM182.525 6.27205C183.921 7.203 184.943 8.55991 185.574 10.4037L187.466 9.75631C186.71 7.54675 185.438 5.81034 183.634 4.60795L182.525 6.27205ZM185.574 10.4037C186.221 12.2972 186.56 14.6347 186.56 17.44H188.56C188.56 14.4853 188.205 11.9161 187.466 9.75631L185.574 10.4037ZM186.56 17.44C186.56 20.0169 186.199 22.1965 185.506 24.0019L187.373 24.7181C188.174 22.6302 188.56 20.1965 188.56 17.44H186.56ZM185.502 24.0131C184.85 25.7766 183.818 27.0893 182.415 28.0016L183.505 29.6784C185.301 28.5107 186.59 26.8367 187.378 24.7069L185.502 24.0131ZM182.415 28.0016C181.027 28.9039 179.129 29.4 176.64 29.4V31.4C179.377 31.4 181.693 30.8561 183.505 29.6784L182.415 28.0016ZM176.64 28.6C178.669 28.6 180.4 28.1575 181.723 27.1577L180.517 25.5623C179.652 26.2158 178.397 26.6 176.64 26.6V28.6ZM181.726 27.1554C183.031 26.161 183.94 24.7908 184.473 23.1011L182.566 22.4989C182.14 23.8492 181.448 24.8523 180.514 25.5646L181.726 27.1554ZM184.47 23.1113C185.017 21.443 185.28 19.5476 185.28 17.44H183.28C183.28 19.3857 183.036 21.0637 182.569 22.4887L184.47 23.1113ZM185.28 17.44C185.28 13.866 184.711 10.9859 183.454 8.92005L181.745 9.95995C182.728 11.5741 183.28 14.0273 183.28 17.44H185.28ZM183.463 8.9346C182.131 6.66155 179.741 5.64 176.64 5.64V7.64C179.298 7.64 180.881 8.48511 181.737 9.9454L183.463 8.9346ZM176.64 5.64C174.585 5.64 172.832 6.08163 171.486 7.07542L172.674 8.68457C173.567 8.02503 174.854 7.64 176.64 7.64V5.64ZM171.486 7.07542C170.155 8.05774 169.248 9.48807 168.721 11.277L170.639 11.843C171.071 10.3786 171.764 9.35559 172.674 8.68457L171.486 7.07542ZM168.722 11.2727C168.205 12.9942 167.96 15.0575 167.96 17.44H169.96C169.96 15.1825 170.194 13.3258 170.638 11.8473L168.722 11.2727ZM167.96 17.44C167.96 19.5431 168.208 21.4332 168.725 23.0964L170.635 22.5036C170.191 21.0735 169.96 19.3903 169.96 17.44H167.96ZM168.731 23.1162C169.292 24.7996 170.213 26.1641 171.514 27.1554L172.726 25.5646C171.787 24.8492 171.081 23.8404 170.628 22.4838L168.731 23.1162ZM171.535 27.1712C172.899 28.1546 174.63 28.6 176.64 28.6V26.6C174.916 26.6 173.634 26.2187 172.704 25.5488L171.535 27.1712ZM194.738 30.08L194.896 29.0926L194.738 30.08ZM191.578 29.32H190.578V30.0102L191.223 30.255L191.578 29.32ZM191.578 26.44L191.945 25.5098L190.578 24.9702V26.44H191.578ZM194.738 27.32L194.906 26.3343L194.738 27.32ZM203.178 26.56L202.652 25.7097L202.643 25.7155L203.178 26.56ZM203.298 19.32L203.881 18.5077L203.298 19.32ZM195.218 18.2L194.226 18.072L194.081 19.2H195.218V18.2ZM195.538 15.72V14.72H194.659L194.546 15.592L195.538 15.72ZM202.898 14.48L203.561 15.2286L203.567 15.2234L203.573 15.218L202.898 14.48ZM202.818 7.68L202.233 8.49075L202.243 8.49819L202.818 7.68ZM194.938 6.96L194.747 5.9785L194.742 5.97942L194.938 6.96ZM192.058 7.8H191.058V9.28562L192.435 8.72647L192.058 7.8ZM192.058 4.96L191.692 4.02925L191.058 4.27845V4.96H192.058ZM194.978 4.2L195.153 5.18456L195.162 5.18305L195.17 5.18139L194.978 4.2ZM205.378 5.84L204.699 6.57376L204.706 6.58028L204.713 6.58666L205.378 5.84ZM206.538 14.56L205.682 14.0426L205.679 14.0485L206.538 14.56ZM203.298 16.92L203.008 15.9631L199.338 17.0773L203.084 17.8969L203.298 16.92ZM206.978 19.16L206.146 19.7147L206.154 19.7262L206.162 19.7375L206.978 19.16ZM205.538 28.56L206.116 29.3763L206.124 29.3703L205.538 28.56ZM198.498 29.4C197.385 29.4 196.185 29.2988 194.896 29.0926L194.58 31.0674C195.958 31.2879 197.265 31.4 198.498 31.4V29.4ZM194.896 29.0926C193.594 28.8841 192.615 28.6439 191.933 28.385L191.223 30.255C192.088 30.5827 193.216 30.8492 194.58 31.0674L194.896 29.0926ZM192.578 29.32V26.44H190.578V29.32H192.578ZM191.211 27.3702C192.29 27.796 193.41 28.1077 194.57 28.3057L194.906 26.3343C193.88 26.159 192.893 25.884 191.945 25.5098L191.211 27.3702ZM194.57 28.3057C195.721 28.5022 196.897 28.6 198.098 28.6V26.6C197.006 26.6 195.942 26.5111 194.906 26.3343L194.57 28.3057ZM198.098 28.6C200.454 28.6 202.379 28.251 203.714 27.4045L202.643 25.7155C201.791 26.2557 200.329 26.6 198.098 26.6V28.6ZM203.704 27.4103C205.211 26.4779 205.858 24.8761 205.858 22.92H203.858C203.858 24.4305 203.386 25.2554 202.652 25.7097L203.704 27.4103ZM205.858 22.92C205.858 21.0483 205.257 19.4955 203.881 18.5077L202.715 20.1323C203.419 20.6378 203.858 21.485 203.858 22.92H205.858ZM203.881 18.5077C202.61 17.5946 200.922 17.2 198.938 17.2V19.2C200.687 19.2 201.907 19.552 202.715 20.1323L203.881 18.5077ZM198.938 17.2H195.218V19.2H198.938V17.2ZM196.21 18.328L196.53 15.848L194.546 15.592L194.226 18.072L196.21 18.328ZM195.538 16.72H198.618V14.72H195.538V16.72ZM198.618 16.72C200.656 16.72 202.368 16.2851 203.561 15.2286L202.235 13.7314C201.561 14.3282 200.421 14.72 198.618 14.72V16.72ZM203.573 15.218C204.755 14.1374 205.298 12.6592 205.298 10.92H203.298C203.298 12.2208 202.908 13.116 202.223 13.742L203.573 15.218ZM205.298 10.92C205.298 9.20743 204.705 7.78398 203.393 6.86181L202.243 8.49819C202.904 8.96268 203.298 9.69924 203.298 10.92H205.298ZM203.404 6.86932C202.183 5.98812 200.374 5.64 198.178 5.64V7.64C200.249 7.64 201.533 7.98521 202.233 8.49068L203.404 6.86932ZM198.178 5.64C197.044 5.64 195.9 5.75341 194.747 5.97851L195.13 7.94149C196.163 7.73992 197.179 7.64 198.178 7.64V5.64ZM194.742 5.97942C193.624 6.20294 192.603 6.49941 191.682 6.87353L192.435 8.72647C193.22 8.40725 194.118 8.14373 195.134 7.94058L194.742 5.97942ZM193.058 7.8V4.96H191.058V7.8H193.058ZM192.424 5.89075C193.086 5.63063 193.988 5.39162 195.153 5.18456L194.803 3.21544C193.568 3.43505 192.524 3.7027 191.692 4.02925L192.424 5.89075ZM195.17 5.18139C196.336 4.95325 197.485 4.84 198.618 4.84V2.84C197.351 2.84 196.073 2.96674 194.786 3.21861L195.17 5.18139ZM198.618 4.84C201.569 4.84 203.524 5.48585 204.699 6.57376L206.058 5.10624C204.352 3.52749 201.801 2.84 198.618 2.84V4.84ZM204.713 6.58666C205.956 7.69403 206.578 9.09723 206.578 10.88H208.578C208.578 8.5561 207.734 6.5993 206.043 5.09334L204.713 6.58666ZM206.578 10.88C206.578 11.9994 206.284 13.0478 205.682 14.0426L207.394 15.0774C208.179 13.7788 208.578 12.3739 208.578 10.88H206.578ZM205.679 14.0485C205.164 14.9136 204.312 15.5671 203.008 15.9631L203.589 17.8769C205.271 17.3662 206.579 16.4464 207.397 15.0715L205.679 14.0485ZM203.084 17.8969C204.616 18.232 205.582 18.8687 206.146 19.7147L207.81 18.6053C206.881 17.2113 205.393 16.3547 203.512 15.9431L203.084 17.8969ZM206.162 19.7375C206.809 20.6523 207.138 21.7014 207.138 22.92H209.138C209.138 21.312 208.694 19.8544 207.795 18.5825L206.162 19.7375ZM207.138 22.92C207.138 25.1687 206.378 26.7184 204.952 27.7496L206.124 29.3703C208.165 27.8949 209.138 25.6847 209.138 22.92H207.138ZM204.96 27.7437C203.451 28.8121 201.33 29.4 198.498 29.4V31.4C201.586 31.4 204.159 30.7612 206.116 29.3763L204.96 27.7437Z" fill="#E4DDD5"/>
<line y1="19.5" x2="92" y2="19.5" stroke="#455876"/>
</svg>
