<svg width="169" height="20" viewBox="0 0 169 20" fill="none" xmlns="http://www.w3.org/2000/svg">
<path d="M1.5 17V4.12H2.6V10.12H10V4.12H11.1V17H10V11H2.6V17H1.5ZM17.5977 17.2C16.9977 17.2 16.4443 17.1067 15.9377 16.92C15.4443 16.7333 15.0443 16.44 14.7377 16.04C14.4443 15.6267 14.2977 15.1067 14.2977 14.48C14.2977 13.64 14.5643 12.96 15.0977 12.44C15.631 11.9067 16.5377 11.64 17.8177 11.64H21.3577V10.74C21.3577 10.14 21.2777 9.66 21.1177 9.3C20.9577 8.92667 20.6643 8.66 20.2377 8.5C19.8243 8.34 19.211 8.26 18.3977 8.26C17.851 8.26 17.3243 8.30667 16.8177 8.4C16.311 8.49333 15.831 8.62 15.3777 8.78V7.84C15.791 7.68 16.271 7.55333 16.8177 7.46C17.3777 7.36667 17.971 7.32 18.5977 7.32C19.9043 7.32 20.8643 7.58667 21.4777 8.12C22.1043 8.64 22.4177 9.50667 22.4177 10.72V17H21.5177L21.4177 15.82C20.9777 16.2867 20.4577 16.6333 19.8577 16.86C19.2577 17.0867 18.5043 17.2 17.5977 17.2ZM17.8777 16.28C18.6377 16.28 19.3043 16.16 19.8777 15.92C20.451 15.6667 20.9443 15.2933 21.3577 14.8V12.52H17.8577C16.9243 12.52 16.2777 12.6867 15.9177 13.02C15.5577 13.3533 15.3777 13.84 15.3777 14.48C15.3777 15.1333 15.5977 15.6 16.0377 15.88C16.491 16.1467 17.1043 16.28 17.8777 16.28ZM26.5827 17V8.44H25.1227V7.52H26.5827V5.92C26.5827 5.06667 26.816 4.4 27.2827 3.92C27.7627 3.44 28.456 3.2 29.3627 3.2C29.6693 3.2 29.9493 3.22667 30.2027 3.28C30.456 3.32 30.6893 3.38 30.9027 3.46V4.34C30.7027 4.27333 30.496 4.22 30.2827 4.18C30.0827 4.14 29.8693 4.12 29.6427 4.12C28.9093 4.12 28.396 4.26 28.1027 4.54C27.8227 4.82 27.6827 5.27333 27.6827 5.9V7.52H30.3227L30.2627 8.44H27.6827V17H26.5827ZM36.7945 17.2C35.3012 17.2 34.1745 16.8333 33.4145 16.1C32.6679 15.3533 32.2945 14.3533 32.2945 13.1C32.2945 11.78 32.6679 10.7667 33.4145 10.06C34.1612 9.35333 35.2412 9 36.6545 9C37.2012 9 37.7945 9.1 38.4345 9.3C39.0745 9.48667 39.6812 9.79333 40.2545 10.22V9.1C40.2545 8.47333 40.2012 7.90667 40.0945 7.4C40.0012 6.88 39.8412 6.43333 39.6145 6.06L36.8945 7.26V6.48L39.1345 5.5C38.8812 5.27333 38.5679 5.1 38.1945 4.98C37.8212 4.84667 37.3812 4.78 36.8745 4.78C36.3012 4.78 35.7812 4.82 35.3145 4.9C34.8479 4.96667 34.4279 5.06667 34.0545 5.2V4.32C34.4279 4.21333 34.8612 4.12 35.3545 4.04C35.8479 3.96 36.3879 3.92 36.9745 3.92C37.6545 3.92 38.2545 4.02 38.7745 4.22C39.2945 4.42 39.7279 4.70667 40.0745 5.08L41.9945 4.24V5.02L40.5145 5.68C41.0479 6.54667 41.3145 7.71333 41.3145 9.18V12.38C41.3145 14.0733 40.9279 15.3 40.1545 16.06C39.3812 16.82 38.2612 17.2 36.7945 17.2ZM36.7945 16.34C39.1012 16.34 40.2545 15.1733 40.2545 12.84V11.08C39.7745 10.7333 39.2345 10.4467 38.6345 10.22C38.0345 9.98 37.4345 9.86 36.8345 9.86C35.5412 9.86 34.6279 10.1533 34.0945 10.74C33.5612 11.3267 33.2945 12.1133 33.2945 13.1C33.2945 14.1 33.5812 14.8933 34.1545 15.48C34.7412 16.0533 35.6212 16.34 36.7945 16.34ZM48.0608 17.2C46.9274 17.2 46.0674 16.88 45.4808 16.24C44.8941 15.6 44.6008 14.6933 44.6008 13.52V7.52H45.7008V13.56C45.7008 14.4667 45.9274 15.1533 46.3808 15.62C46.8341 16.0733 47.5474 16.3 48.5208 16.3C49.1874 16.3 49.7941 16.1733 50.3408 15.92C50.9008 15.6533 51.3808 15.32 51.7808 14.92V7.52H52.8808V17H51.9008L51.8008 15.84C51.3341 16.2533 50.8008 16.5867 50.2008 16.84C49.6008 17.08 48.8874 17.2 48.0608 17.2ZM64.5597 17.2C63.9997 17.2 63.4597 17.16 62.9397 17.08C62.433 17.0133 61.9997 16.92 61.6397 16.8V15.82C62.0797 15.9667 62.533 16.08 62.9997 16.16C63.4664 16.2267 63.9397 16.26 64.4197 16.26C65.353 16.26 66.0197 16.14 66.4197 15.9C66.8197 15.6467 67.0197 15.2133 67.0197 14.6C67.0197 14.1733 66.9197 13.8533 66.7197 13.64C66.533 13.4133 66.233 13.22 65.8197 13.06C65.4064 12.9 64.8797 12.7133 64.2397 12.5C63.7064 12.3133 63.2197 12.1333 62.7797 11.96C62.353 11.7733 62.013 11.52 61.7597 11.2C61.5064 10.8667 61.3797 10.4067 61.3797 9.82C61.3797 8.99333 61.653 8.37333 62.1997 7.96C62.7464 7.53333 63.633 7.32 64.8597 7.32C65.3397 7.32 65.793 7.35333 66.2197 7.42C66.6597 7.47333 67.0464 7.55333 67.3797 7.66V8.64C66.6064 8.4 65.8197 8.28 65.0197 8.28C64.073 8.28 63.4064 8.4 63.0197 8.64C62.6464 8.86667 62.4597 9.25333 62.4597 9.8C62.4597 10.1733 62.5397 10.4667 62.6997 10.68C62.873 10.88 63.1397 11.0533 63.4997 11.2C63.873 11.3467 64.353 11.5133 64.9397 11.7C65.6464 11.9267 66.233 12.1533 66.6997 12.38C67.1797 12.6067 67.533 12.8933 67.7597 13.24C67.9997 13.5733 68.1197 14.0267 68.1197 14.6C68.1197 15.5333 67.7997 16.2 67.1597 16.6C66.533 17 65.6664 17.2 64.5597 17.2ZM73.932 17.2C73.332 17.2 72.7787 17.1067 72.272 16.92C71.7787 16.7333 71.3787 16.44 71.072 16.04C70.7787 15.6267 70.632 15.1067 70.632 14.48C70.632 13.64 70.8987 12.96 71.432 12.44C71.9654 11.9067 72.872 11.64 74.152 11.64H77.692V10.74C77.692 10.14 77.612 9.66 77.452 9.3C77.292 8.92667 76.9987 8.66 76.572 8.5C76.1587 8.34 75.5454 8.26 74.732 8.26C74.1854 8.26 73.6587 8.30667 73.152 8.4C72.6454 8.49333 72.1654 8.62 71.712 8.78V7.84C72.1254 7.68 72.6054 7.55333 73.152 7.46C73.712 7.36667 74.3054 7.32 74.932 7.32C76.2387 7.32 77.1987 7.58667 77.812 8.12C78.4387 8.64 78.752 9.50667 78.752 10.72V17H77.852L77.752 15.82C77.312 16.2867 76.792 16.6333 76.192 16.86C75.592 17.0867 74.8387 17.2 73.932 17.2ZM74.212 16.28C74.972 16.28 75.6387 16.16 76.212 15.92C76.7854 15.6667 77.2787 15.2933 77.692 14.8V12.52H74.192C73.2587 12.52 72.612 12.6867 72.252 13.02C71.892 13.3533 71.712 13.84 71.712 14.48C71.712 15.1333 71.932 15.6 72.372 15.88C72.8254 16.1467 73.4387 16.28 74.212 16.28ZM82.257 17V7.52H83.217L83.317 8.68C83.837 8.25333 84.3904 7.92 84.977 7.68C85.577 7.44 86.2037 7.32 86.857 7.32C87.5904 7.32 88.157 7.44 88.557 7.68C88.957 7.92 89.2504 8.25333 89.437 8.68C89.8904 8.29333 90.417 7.97333 91.017 7.72C91.617 7.45333 92.337 7.32 93.177 7.32C94.2437 7.32 95.037 7.59333 95.557 8.14C96.0904 8.67333 96.357 9.51333 96.357 10.66V17H95.277V10.76C95.277 9.81333 95.0704 9.16 94.657 8.8C94.257 8.42667 93.6237 8.24 92.757 8.24C92.157 8.24 91.5904 8.34667 91.057 8.56C90.5237 8.76 90.0704 9.06 89.697 9.46C89.737 9.64667 89.7704 9.86667 89.797 10.12C89.8237 10.36 89.837 10.5867 89.837 10.8V17H88.777V10.82C88.777 9.91333 88.6237 9.26 88.317 8.86C88.0104 8.44667 87.417 8.24 86.537 8.24C85.9504 8.24 85.377 8.37333 84.817 8.64C84.257 8.90667 83.7637 9.23333 83.337 9.62V17H82.257ZM104.289 17.2C103.556 17.2 102.916 17.1 102.369 16.9C101.836 16.6867 101.336 16.3667 100.869 15.94L100.769 17H99.8492V3.52H100.949V8.32C101.429 7.97333 101.943 7.72 102.489 7.56C103.036 7.4 103.636 7.32 104.289 7.32C105.623 7.32 106.663 7.7 107.409 8.46C108.156 9.22 108.529 10.46 108.529 12.18C108.529 13.9133 108.156 15.1867 107.409 16C106.663 16.8 105.623 17.2 104.289 17.2ZM104.029 16.3C105.256 16.3 106.129 15.9533 106.649 15.26C107.183 14.5533 107.449 13.5267 107.449 12.18C107.449 10.7667 107.163 9.76 106.589 9.16C106.029 8.54667 105.163 8.24 103.989 8.24C103.336 8.24 102.756 8.34 102.249 8.54C101.756 8.72667 101.323 8.97333 100.949 9.28V15.02C101.749 15.8733 102.776 16.3 104.029 16.3ZM114.443 17.2C113.843 17.2 113.29 17.1067 112.783 16.92C112.29 16.7333 111.89 16.44 111.583 16.04C111.29 15.6267 111.143 15.1067 111.143 14.48C111.143 13.64 111.41 12.96 111.943 12.44C112.476 11.9067 113.383 11.64 114.663 11.64H118.203V10.74C118.203 10.14 118.123 9.66 117.963 9.3C117.803 8.92667 117.51 8.66 117.083 8.5C116.67 8.34 116.056 8.26 115.243 8.26C114.696 8.26 114.17 8.30667 113.663 8.4C113.156 8.49333 112.676 8.62 112.223 8.78V7.84C112.636 7.68 113.116 7.55333 113.663 7.46C114.223 7.36667 114.816 7.32 115.443 7.32C116.75 7.32 117.71 7.58667 118.323 8.12C118.95 8.64 119.263 9.50667 119.263 10.72V17H118.363L118.263 15.82C117.823 16.2867 117.303 16.6333 116.703 16.86C116.103 17.0867 115.35 17.2 114.443 17.2ZM114.723 16.28C115.483 16.28 116.15 16.16 116.723 15.92C117.296 15.6667 117.79 15.2933 118.203 14.8V12.52H114.703C113.77 12.52 113.123 12.6867 112.763 13.02C112.403 13.3533 112.223 13.84 112.223 14.48C112.223 15.1333 112.443 15.6 112.883 15.88C113.336 16.1467 113.95 16.28 114.723 16.28ZM122.768 17V7.52H123.728L123.828 8.68C124.308 8.28 124.855 7.95333 125.468 7.7C126.081 7.44667 126.815 7.32 127.668 7.32C128.855 7.32 129.715 7.59333 130.248 8.14C130.781 8.68667 131.048 9.55333 131.048 10.74V17H129.948V10.76C129.948 9.82667 129.755 9.17333 129.368 8.8C128.995 8.42667 128.275 8.24 127.208 8.24C126.541 8.24 125.921 8.36667 125.348 8.62C124.788 8.87333 124.295 9.20667 123.868 9.62V17H122.768ZM138.185 17.2C137.358 17.2 136.625 17.0333 135.985 16.7C135.345 16.3667 134.845 15.8467 134.485 15.14C134.125 14.42 133.945 13.4867 133.945 12.34C133.945 10.62 134.331 9.35333 135.105 8.54C135.891 7.72667 136.951 7.32 138.285 7.32C138.938 7.32 139.518 7.4 140.025 7.56C140.545 7.70667 141.045 7.96 141.525 8.32V3.52H142.625V17H141.705L141.605 15.94C141.151 16.3667 140.651 16.6867 140.105 16.9C139.558 17.1 138.918 17.2 138.185 17.2ZM138.445 16.3C139.698 16.3 140.725 15.8733 141.525 15.02V9.28C141.151 8.96 140.731 8.70667 140.265 8.52C139.798 8.33333 139.238 8.24 138.585 8.24C137.411 8.24 136.525 8.56667 135.925 9.22C135.325 9.87333 135.025 10.9133 135.025 12.34C135.025 13.6867 135.305 14.6867 135.865 15.34C136.425 15.98 137.285 16.3 138.445 16.3Z" fill="white"/>
<path d="M168.433 10.1087C168.571 9.86942 168.489 9.56357 168.25 9.42559L164.356 7.17711C164.117 7.03914 163.811 7.12128 163.673 7.36059C163.535 7.5999 163.616 7.90575 163.855 8.04373L167.317 10.0424L165.316 13.5088C165.178 13.7481 165.259 14.054 165.498 14.192C165.737 14.3299 166.043 14.2478 166.181 14.0085L168.433 10.1087ZM152.716 14.4831L168.129 10.3419L167.871 9.37585L152.458 13.5169L152.716 14.4831Z" fill="white"/>
</svg>
