<svg width="526" height="90" viewBox="0 0 526 90" fill="none" xmlns="http://www.w3.org/2000/svg">
<path d="M5.16 22.2C3.49333 22.2 2.15333 21.9867 1.14 21.56V19.64C1.71333 19.8533 2.32667 20.0267 2.98 20.16C3.64667 20.2933 4.30667 20.36 4.96 20.36C5.98667 20.36 6.75333 20.24 7.26 20C7.78 19.76 8.04 19.28 8.04 18.56C8.04 18.12 7.93333 17.7667 7.72 17.5C7.50667 17.2333 7.15333 17.0067 6.66 16.82C6.16667 16.62 5.48667 16.4133 4.62 16.2C3.23333 15.84 2.26 15.3867 1.7 14.84C1.14 14.28 0.86 13.5133 0.86 12.54C0.86 11.4067 1.27333 10.52 2.1 9.88C2.92667 9.24 4.16 8.92 5.8 8.92C6.54667 8.92 7.24667 8.97333 7.9 9.08C8.56667 9.18667 9.08667 9.30667 9.46 9.44V11.36C8.44667 10.9733 7.32667 10.78 6.1 10.78C5.14 10.78 4.39333 10.9067 3.86 11.16C3.32667 11.4133 3.06 11.8733 3.06 12.54C3.06 12.9267 3.15333 13.24 3.34 13.48C3.52667 13.72 3.84667 13.9267 4.3 14.1C4.76667 14.2733 5.40667 14.4667 6.22 14.68C7.27333 14.9467 8.08667 15.2667 8.66 15.64C9.24667 16 9.65333 16.4267 9.88 16.92C10.12 17.4 10.24 17.9467 10.24 18.56C10.24 19.6933 9.82 20.5867 8.98 21.24C8.14 21.88 6.86667 22.2 5.16 22.2ZM13.8459 11.56L15.3459 8.02H17.2659L15.5859 11.56H13.8459ZM13.8859 22V14.18H12.4459L12.6459 12.52H16.0659V22H13.8859ZM19.1983 22V12.52H21.1983L21.2983 13.52C21.7649 13.1467 22.2783 12.8533 22.8383 12.64C23.3983 12.4267 23.9983 12.32 24.6383 12.32C25.3183 12.32 25.8449 12.4333 26.2183 12.66C26.6049 12.8733 26.8983 13.1733 27.0983 13.56C27.5383 13.2 28.0449 12.9067 28.6183 12.68C29.1916 12.44 29.8783 12.32 30.6783 12.32C31.7716 12.32 32.5783 12.6 33.0983 13.16C33.6183 13.72 33.8783 14.58 33.8783 15.74V22H31.7383V15.96C31.7383 15.2267 31.5849 14.7133 31.2783 14.42C30.9716 14.1267 30.4716 13.98 29.7783 13.98C29.3249 13.98 28.8916 14.06 28.4783 14.22C28.0783 14.38 27.7316 14.62 27.4383 14.94C27.4783 15.0867 27.5049 15.24 27.5183 15.4C27.5316 15.56 27.5383 15.7333 27.5383 15.92V22H25.5183V15.98C25.5183 15.2867 25.3983 14.78 25.1583 14.46C24.9183 14.14 24.4649 13.98 23.7983 13.98C23.3316 13.98 22.8849 14.0933 22.4583 14.32C22.0449 14.5333 21.6716 14.7933 21.3383 15.1V22H19.1983ZM37.7272 10.54V8.74H40.1072V10.54H37.7272ZM37.9072 22V14.18H36.4672L36.6672 12.52H40.0872V22H37.9072ZM42.8303 15.48V13.76H44.6703V15.48H42.8303ZM42.8303 21.5V19.78H44.6703V21.5H42.8303ZM56.0316 20.58V17.32H52.6516V16.82H56.0316V13.42H56.5916V16.82H59.9916V17.32H56.5916V20.58H56.0316ZM66.0777 22.2C65.4643 22.2 64.8777 22.1533 64.3177 22.06C63.771 21.9667 63.331 21.8533 62.9977 21.72V21.2C63.4777 21.3733 63.9577 21.5 64.4377 21.58C64.931 21.66 65.4777 21.7 66.0777 21.7C68.7043 21.7 70.0177 20.66 70.0177 18.58C70.0177 17.5933 69.6977 16.8667 69.0577 16.4C68.431 15.9333 67.5643 15.7 66.4577 15.7H64.7777L64.8777 15.2H66.2977C67.4443 15.2 68.2977 14.94 68.8577 14.42C69.431 13.8867 69.7177 13.1467 69.7177 12.2C69.7177 11.2933 69.431 10.6067 68.8577 10.14C68.2977 9.66 67.4043 9.42 66.1777 9.42C65.6577 9.42 65.1443 9.46667 64.6377 9.56C64.131 9.65333 63.6643 9.77333 63.2377 9.92V9.4C63.5443 9.26667 63.971 9.15333 64.5177 9.06C65.0777 8.96667 65.6243 8.92 66.1577 8.92C67.6243 8.92 68.671 9.22 69.2977 9.82C69.9377 10.42 70.2577 11.2133 70.2577 12.2C70.2577 12.6533 70.171 13.1067 69.9977 13.56C69.8243 14 69.551 14.3933 69.1777 14.74C68.8177 15.0733 68.3377 15.3 67.7377 15.42C68.7643 15.5933 69.491 15.98 69.9177 16.58C70.3443 17.18 70.5577 17.8467 70.5577 18.58C70.5577 19.78 70.1643 20.6867 69.3777 21.3C68.6043 21.9 67.5043 22.2 66.0777 22.2ZM76.7186 22.2C76.1186 22.2 75.5386 22.1533 74.9786 22.06C74.4186 21.98 73.9653 21.8667 73.6186 21.72V21.2C74.0853 21.3733 74.5653 21.5 75.0586 21.58C75.5519 21.66 76.1119 21.7 76.7386 21.7C78.0053 21.7 78.9719 21.4067 79.6386 20.82C80.3053 20.2333 80.6386 19.3867 80.6386 18.28C80.6386 17.56 80.5319 16.96 80.3186 16.48C80.1186 16 79.7586 15.6467 79.2386 15.42C78.7319 15.18 78.0253 15.06 77.1186 15.06H73.5586V14.32L73.8986 9.12H80.1786L80.0786 9.62H74.3386L74.0186 14.56H76.9186C78.4919 14.56 79.5919 14.8667 80.2186 15.48C80.8586 16.08 81.1786 17.0133 81.1786 18.28C81.1786 19.5333 80.7919 20.5 80.0186 21.18C79.2453 21.86 78.1453 22.2 76.7186 22.2ZM90.7981 22V18.76H83.7781V18.12L90.7781 9.12H91.3581V18.26H92.7981V18.76H91.3581V22H90.7981ZM84.2781 18.26H90.7981V9.88L84.2781 18.26ZM107.33 22V18.76H100.31V18.12L107.31 9.12H107.89V18.26H109.33V18.76H107.89V22H107.33ZM100.81 18.26H107.33V9.88L100.81 18.26ZM116.395 22.2C114.995 22.2 113.902 21.9133 113.115 21.34C112.328 20.7533 111.935 19.8933 111.935 18.76C111.935 17.92 112.175 17.1933 112.655 16.58C113.135 15.9667 113.848 15.5533 114.795 15.34C113.902 15.1133 113.262 14.7267 112.875 14.18C112.502 13.62 112.315 13.0067 112.315 12.34C112.315 11.3 112.662 10.4733 113.355 9.86C114.062 9.23333 115.075 8.92 116.395 8.92C117.742 8.92 118.755 9.23333 119.435 9.86C120.128 10.4733 120.475 11.3 120.475 12.34C120.475 13.06 120.282 13.7133 119.895 14.3C119.508 14.8867 118.822 15.3133 117.835 15.58C118.902 15.78 119.668 16.1467 120.135 16.68C120.615 17.2 120.855 17.8933 120.855 18.76C120.855 19.8933 120.462 20.7533 119.675 21.34C118.888 21.9133 117.795 22.2 116.395 22.2ZM116.995 15.36C118.022 15.1333 118.768 14.7933 119.235 14.34C119.702 13.8733 119.935 13.2067 119.935 12.34C119.935 11.4067 119.635 10.6867 119.035 10.18C118.435 9.67333 117.555 9.42 116.395 9.42C115.235 9.42 114.355 9.67333 113.755 10.18C113.155 10.6867 112.855 11.4067 112.855 12.34C112.855 13.0333 113.048 13.6133 113.435 14.08C113.822 14.5333 114.435 14.8467 115.275 15.02L116.995 15.36ZM116.395 21.7C119.008 21.7 120.315 20.72 120.315 18.76C120.315 17.8933 120.082 17.26 119.615 16.86C119.148 16.46 118.422 16.16 117.435 15.96L115.515 15.58C114.595 15.7533 113.855 16.0867 113.295 16.58C112.748 17.06 112.475 17.7867 112.475 18.76C112.475 20.72 113.782 21.7 116.395 21.7ZM126.943 22.2C126.33 22.2 125.743 22.1533 125.183 22.06C124.637 21.9667 124.197 21.8533 123.863 21.72V21.2C124.343 21.3733 124.823 21.5 125.303 21.58C125.797 21.66 126.343 21.7 126.943 21.7C129.57 21.7 130.883 20.66 130.883 18.58C130.883 17.5933 130.563 16.8667 129.923 16.4C129.297 15.9333 128.43 15.7 127.323 15.7H125.643L125.743 15.2H127.163C128.31 15.2 129.163 14.94 129.723 14.42C130.297 13.8867 130.583 13.1467 130.583 12.2C130.583 11.2933 130.297 10.6067 129.723 10.14C129.163 9.66 128.27 9.42 127.043 9.42C126.523 9.42 126.01 9.46667 125.503 9.56C124.997 9.65333 124.53 9.77333 124.103 9.92V9.4C124.41 9.26667 124.837 9.15333 125.383 9.06C125.943 8.96667 126.49 8.92 127.023 8.92C128.49 8.92 129.537 9.22 130.163 9.82C130.803 10.42 131.123 11.2133 131.123 12.2C131.123 12.6533 131.037 13.1067 130.863 13.56C130.69 14 130.417 14.3933 130.043 14.74C129.683 15.0733 129.203 15.3 128.603 15.42C129.63 15.5933 130.357 15.98 130.783 16.58C131.21 17.18 131.423 17.8467 131.423 18.58C131.423 19.78 131.03 20.6867 130.243 21.3C129.47 21.9 128.37 22.2 126.943 22.2ZM142.811 22.2C142.198 22.2 141.611 22.1533 141.051 22.06C140.505 21.9667 140.065 21.8533 139.731 21.72V21.2C140.211 21.3733 140.691 21.5 141.171 21.58C141.665 21.66 142.211 21.7 142.811 21.7C145.438 21.7 146.751 20.66 146.751 18.58C146.751 17.5933 146.431 16.8667 145.791 16.4C145.165 15.9333 144.298 15.7 143.191 15.7H141.511L141.611 15.2H143.031C144.178 15.2 145.031 14.94 145.591 14.42C146.165 13.8867 146.451 13.1467 146.451 12.2C146.451 11.2933 146.165 10.6067 145.591 10.14C145.031 9.66 144.138 9.42 142.911 9.42C142.391 9.42 141.878 9.46667 141.371 9.56C140.865 9.65333 140.398 9.77333 139.971 9.92V9.4C140.278 9.26667 140.705 9.15333 141.251 9.06C141.811 8.96667 142.358 8.92 142.891 8.92C144.358 8.92 145.405 9.22 146.031 9.82C146.671 10.42 146.991 11.2133 146.991 12.2C146.991 12.6533 146.905 13.1067 146.731 13.56C146.558 14 146.285 14.3933 145.911 14.74C145.551 15.0733 145.071 15.3 144.471 15.42C145.498 15.5933 146.225 15.98 146.651 16.58C147.078 17.18 147.291 17.8467 147.291 18.58C147.291 19.78 146.898 20.6867 146.111 21.3C145.338 21.9 144.238 22.2 142.811 22.2ZM154.352 22.2C153.779 22.2 153.239 22.1667 152.732 22.1C152.239 22.0333 151.819 21.9467 151.472 21.84V21.32C151.819 21.4533 152.239 21.5533 152.732 21.62C153.239 21.6733 153.779 21.7 154.352 21.7C155.286 21.7 156.046 21.4933 156.632 21.08C157.232 20.6667 157.672 20.1133 157.952 19.42C158.246 18.7133 158.392 17.9333 158.392 17.08V15.82C157.779 16.2867 157.159 16.6267 156.532 16.84C155.906 17.04 155.259 17.14 154.592 17.14C153.179 17.14 152.106 16.7933 151.372 16.1C150.652 15.4067 150.292 14.4067 150.292 13.1C150.292 11.86 150.666 10.8533 151.412 10.08C152.172 9.30667 153.272 8.92 154.712 8.92C156.126 8.92 157.186 9.28667 157.892 10.02C158.599 10.7533 158.952 11.9733 158.952 13.68V16.98C158.952 18.58 158.546 19.8533 157.732 20.8C156.919 21.7333 155.792 22.2 154.352 22.2ZM154.652 16.64C155.386 16.64 156.066 16.52 156.692 16.28C157.332 16.0267 157.899 15.7 158.392 15.3V13.28C158.392 12.0133 158.099 11.0533 157.512 10.4C156.926 9.74667 155.999 9.42 154.732 9.42C153.439 9.42 152.466 9.76667 151.812 10.46C151.159 11.14 150.832 12.02 150.832 13.1C150.832 14.18 151.112 15.04 151.672 15.68C152.246 16.32 153.239 16.64 154.652 16.64ZM167.067 22.2C165.88 22.2 164.907 21.9333 164.147 21.4C163.4 20.8667 162.847 20.1267 162.487 19.18C162.127 18.22 161.947 17.1133 161.947 15.86C161.947 14.42 162.107 13.1867 162.427 12.16C162.747 11.12 163.28 10.32 164.027 9.76C164.774 9.2 165.787 8.92 167.067 8.92C168.36 8.92 169.374 9.2 170.107 9.76C170.854 10.32 171.387 11.12 171.707 12.16C172.027 13.1867 172.187 14.42 172.187 15.86C172.187 17.1133 172.007 18.22 171.647 19.18C171.287 20.1267 170.727 20.8667 169.967 21.4C169.22 21.9333 168.254 22.2 167.067 22.2ZM167.067 21.7C168.174 21.7 169.06 21.44 169.727 20.92C170.407 20.4 170.894 19.7 171.187 18.82C171.494 17.9267 171.647 16.94 171.647 15.86C171.647 14.5 171.507 13.34 171.227 12.38C170.947 11.42 170.474 10.6867 169.807 10.18C169.14 9.67333 168.227 9.42 167.067 9.42C165.907 9.42 164.994 9.67333 164.327 10.18C163.66 10.6867 163.187 11.42 162.907 12.38C162.627 13.34 162.487 14.5 162.487 15.86C162.487 16.94 162.634 17.9267 162.927 18.82C163.234 19.7 163.72 20.4 164.387 20.92C165.067 21.44 165.96 21.7 167.067 21.7ZM180.304 22.2C179.117 22.2 178.144 21.9333 177.384 21.4C176.637 20.8667 176.084 20.1267 175.724 19.18C175.364 18.22 175.184 17.1133 175.184 15.86C175.184 14.42 175.344 13.1867 175.664 12.16C175.984 11.12 176.517 10.32 177.264 9.76C178.01 9.2 179.024 8.92 180.304 8.92C181.597 8.92 182.61 9.2 183.344 9.76C184.09 10.32 184.624 11.12 184.944 12.16C185.264 13.1867 185.424 14.42 185.424 15.86C185.424 17.1133 185.244 18.22 184.884 19.18C184.524 20.1267 183.964 20.8667 183.204 21.4C182.457 21.9333 181.49 22.2 180.304 22.2ZM180.304 21.7C181.41 21.7 182.297 21.44 182.964 20.92C183.644 20.4 184.13 19.7 184.424 18.82C184.73 17.9267 184.884 16.94 184.884 15.86C184.884 14.5 184.744 13.34 184.464 12.38C184.184 11.42 183.71 10.6867 183.044 10.18C182.377 9.67333 181.464 9.42 180.304 9.42C179.144 9.42 178.23 9.67333 177.564 10.18C176.897 10.6867 176.424 11.42 176.144 12.38C175.864 13.34 175.724 14.5 175.724 15.86C175.724 16.94 175.87 17.9267 176.164 18.82C176.47 19.7 176.957 20.4 177.624 20.92C178.304 21.44 179.197 21.7 180.304 21.7ZM1.26 52V39.12H10.02V40.82H3.44V44.72H9.28V46.4H3.44V52H1.26ZM10.3667 52L15.2867 39.12H17.7267L22.6067 52H20.3667L19.0867 48.68H13.9067L12.6267 52H10.3667ZM14.2467 47H18.7267L16.4867 41.1L14.2467 47ZM24.3452 52L28.9452 45.58L24.4452 39.12H26.9652L30.2452 43.9L33.5252 39.12H36.0652L31.5452 45.58L36.1452 52H33.5852L30.2452 47.28L26.9052 52H24.3452ZM38.4803 45.48V43.76H40.3203V45.48H38.4803ZM38.4803 51.5V49.78H40.3203V51.5H38.4803ZM51.6816 50.58V47.32H48.3016V46.82H51.6816V43.42H52.2416V46.82H55.6416V47.32H52.2416V50.58H51.6816ZM61.7277 52.2C61.1143 52.2 60.5277 52.1533 59.9677 52.06C59.421 51.9667 58.981 51.8533 58.6477 51.72V51.2C59.1277 51.3733 59.6077 51.5 60.0877 51.58C60.581 51.66 61.1277 51.7 61.7277 51.7C64.3543 51.7 65.6677 50.66 65.6677 48.58C65.6677 47.5933 65.3477 46.8667 64.7077 46.4C64.081 45.9333 63.2143 45.7 62.1077 45.7H60.4277L60.5277 45.2H61.9477C63.0943 45.2 63.9477 44.94 64.5077 44.42C65.081 43.8867 65.3677 43.1467 65.3677 42.2C65.3677 41.2933 65.081 40.6067 64.5077 40.14C63.9477 39.66 63.0543 39.42 61.8277 39.42C61.3077 39.42 60.7943 39.4667 60.2877 39.56C59.781 39.6533 59.3143 39.7733 58.8877 39.92V39.4C59.1943 39.2667 59.621 39.1533 60.1677 39.06C60.7277 38.9667 61.2743 38.92 61.8077 38.92C63.2743 38.92 64.321 39.22 64.9477 39.82C65.5877 40.42 65.9077 41.2133 65.9077 42.2C65.9077 42.6533 65.821 43.1067 65.6477 43.56C65.4743 44 65.201 44.3933 64.8277 44.74C64.4677 45.0733 63.9877 45.3 63.3877 45.42C64.4143 45.5933 65.141 45.98 65.5677 46.58C65.9943 47.18 66.2077 47.8467 66.2077 48.58C66.2077 49.78 65.8143 50.6867 65.0277 51.3C64.2543 51.9 63.1543 52.2 61.7277 52.2ZM72.3686 52.2C71.7686 52.2 71.1886 52.1533 70.6286 52.06C70.0686 51.98 69.6153 51.8667 69.2686 51.72V51.2C69.7353 51.3733 70.2153 51.5 70.7086 51.58C71.2019 51.66 71.7619 51.7 72.3886 51.7C73.6553 51.7 74.6219 51.4067 75.2886 50.82C75.9553 50.2333 76.2886 49.3867 76.2886 48.28C76.2886 47.56 76.1819 46.96 75.9686 46.48C75.7686 46 75.4086 45.6467 74.8886 45.42C74.3819 45.18 73.6753 45.06 72.7686 45.06H69.2086V44.32L69.5486 39.12H75.8286L75.7286 39.62H69.9886L69.6686 44.56H72.5686C74.1419 44.56 75.2419 44.8667 75.8686 45.48C76.5086 46.08 76.8286 47.0133 76.8286 48.28C76.8286 49.5333 76.4419 50.5 75.6686 51.18C74.8953 51.86 73.7953 52.2 72.3686 52.2ZM86.4481 52V48.76H79.4281V48.12L86.4281 39.12H87.0081V48.26H88.4481V48.76H87.0081V52H86.4481ZM79.9281 48.26H86.4481V39.88L79.9281 48.26ZM102.98 52V48.76H95.9602V48.12L102.96 39.12H103.54V48.26H104.98V48.76H103.54V52H102.98ZM96.4602 48.26H102.98V39.88L96.4602 48.26ZM112.045 52.2C110.645 52.2 109.552 51.9133 108.765 51.34C107.978 50.7533 107.585 49.8933 107.585 48.76C107.585 47.92 107.825 47.1933 108.305 46.58C108.785 45.9667 109.498 45.5533 110.445 45.34C109.552 45.1133 108.912 44.7267 108.525 44.18C108.152 43.62 107.965 43.0067 107.965 42.34C107.965 41.3 108.312 40.4733 109.005 39.86C109.712 39.2333 110.725 38.92 112.045 38.92C113.392 38.92 114.405 39.2333 115.085 39.86C115.778 40.4733 116.125 41.3 116.125 42.34C116.125 43.06 115.932 43.7133 115.545 44.3C115.158 44.8867 114.472 45.3133 113.485 45.58C114.552 45.78 115.318 46.1467 115.785 46.68C116.265 47.2 116.505 47.8933 116.505 48.76C116.505 49.8933 116.112 50.7533 115.325 51.34C114.538 51.9133 113.445 52.2 112.045 52.2ZM112.645 45.36C113.672 45.1333 114.418 44.7933 114.885 44.34C115.352 43.8733 115.585 43.2067 115.585 42.34C115.585 41.4067 115.285 40.6867 114.685 40.18C114.085 39.6733 113.205 39.42 112.045 39.42C110.885 39.42 110.005 39.6733 109.405 40.18C108.805 40.6867 108.505 41.4067 108.505 42.34C108.505 43.0333 108.698 43.6133 109.085 44.08C109.472 44.5333 110.085 44.8467 110.925 45.02L112.645 45.36ZM112.045 51.7C114.658 51.7 115.965 50.72 115.965 48.76C115.965 47.8933 115.732 47.26 115.265 46.86C114.798 46.46 114.072 46.16 113.085 45.96L111.165 45.58C110.245 45.7533 109.505 46.0867 108.945 46.58C108.398 47.06 108.125 47.7867 108.125 48.76C108.125 50.72 109.432 51.7 112.045 51.7ZM122.593 52.2C121.98 52.2 121.393 52.1533 120.833 52.06C120.287 51.9667 119.847 51.8533 119.513 51.72V51.2C119.993 51.3733 120.473 51.5 120.953 51.58C121.447 51.66 121.993 51.7 122.593 51.7C125.22 51.7 126.533 50.66 126.533 48.58C126.533 47.5933 126.213 46.8667 125.573 46.4C124.947 45.9333 124.08 45.7 122.973 45.7H121.293L121.393 45.2H122.813C123.96 45.2 124.813 44.94 125.373 44.42C125.947 43.8867 126.233 43.1467 126.233 42.2C126.233 41.2933 125.947 40.6067 125.373 40.14C124.813 39.66 123.92 39.42 122.693 39.42C122.173 39.42 121.66 39.4667 121.153 39.56C120.647 39.6533 120.18 39.7733 119.753 39.92V39.4C120.06 39.2667 120.487 39.1533 121.033 39.06C121.593 38.9667 122.14 38.92 122.673 38.92C124.14 38.92 125.187 39.22 125.813 39.82C126.453 40.42 126.773 41.2133 126.773 42.2C126.773 42.6533 126.687 43.1067 126.513 43.56C126.34 44 126.067 44.3933 125.693 44.74C125.333 45.0733 124.853 45.3 124.253 45.42C125.28 45.5933 126.007 45.98 126.433 46.58C126.86 47.18 127.073 47.8467 127.073 48.58C127.073 49.78 126.68 50.6867 125.893 51.3C125.12 51.9 124.02 52.2 122.593 52.2ZM138.461 52.2C137.848 52.2 137.261 52.1533 136.701 52.06C136.155 51.9667 135.715 51.8533 135.381 51.72V51.2C135.861 51.3733 136.341 51.5 136.821 51.58C137.315 51.66 137.861 51.7 138.461 51.7C141.088 51.7 142.401 50.66 142.401 48.58C142.401 47.5933 142.081 46.8667 141.441 46.4C140.815 45.9333 139.948 45.7 138.841 45.7H137.161L137.261 45.2H138.681C139.828 45.2 140.681 44.94 141.241 44.42C141.815 43.8867 142.101 43.1467 142.101 42.2C142.101 41.2933 141.815 40.6067 141.241 40.14C140.681 39.66 139.788 39.42 138.561 39.42C138.041 39.42 137.528 39.4667 137.021 39.56C136.515 39.6533 136.048 39.7733 135.621 39.92V39.4C135.928 39.2667 136.355 39.1533 136.901 39.06C137.461 38.9667 138.008 38.92 138.541 38.92C140.008 38.92 141.055 39.22 141.681 39.82C142.321 40.42 142.641 41.2133 142.641 42.2C142.641 42.6533 142.555 43.1067 142.381 43.56C142.208 44 141.935 44.3933 141.561 44.74C141.201 45.0733 140.721 45.3 140.121 45.42C141.148 45.5933 141.875 45.98 142.301 46.58C142.728 47.18 142.941 47.8467 142.941 48.58C142.941 49.78 142.548 50.6867 141.761 51.3C140.988 51.9 139.888 52.2 138.461 52.2ZM150.002 52.2C149.429 52.2 148.889 52.1667 148.382 52.1C147.889 52.0333 147.469 51.9467 147.122 51.84V51.32C147.469 51.4533 147.889 51.5533 148.382 51.62C148.889 51.6733 149.429 51.7 150.002 51.7C150.936 51.7 151.696 51.4933 152.282 51.08C152.882 50.6667 153.322 50.1133 153.602 49.42C153.896 48.7133 154.042 47.9333 154.042 47.08V45.82C153.429 46.2867 152.809 46.6267 152.182 46.84C151.556 47.04 150.909 47.14 150.242 47.14C148.829 47.14 147.756 46.7933 147.022 46.1C146.302 45.4067 145.942 44.4067 145.942 43.1C145.942 41.86 146.316 40.8533 147.062 40.08C147.822 39.3067 148.922 38.92 150.362 38.92C151.776 38.92 152.836 39.2867 153.542 40.02C154.249 40.7533 154.602 41.9733 154.602 43.68V46.98C154.602 48.58 154.196 49.8533 153.382 50.8C152.569 51.7333 151.442 52.2 150.002 52.2ZM150.302 46.64C151.036 46.64 151.716 46.52 152.342 46.28C152.982 46.0267 153.549 45.7 154.042 45.3V43.28C154.042 42.0133 153.749 41.0533 153.162 40.4C152.576 39.7467 151.649 39.42 150.382 39.42C149.089 39.42 148.116 39.7667 147.462 40.46C146.809 41.14 146.482 42.02 146.482 43.1C146.482 44.18 146.762 45.04 147.322 45.68C147.896 46.32 148.889 46.64 150.302 46.64ZM160.757 52.2C160.157 52.2 159.577 52.1533 159.017 52.06C158.457 51.98 158.004 51.8667 157.657 51.72V51.2C158.124 51.3733 158.604 51.5 159.097 51.58C159.59 51.66 160.15 51.7 160.777 51.7C162.044 51.7 163.01 51.4067 163.677 50.82C164.344 50.2333 164.677 49.3867 164.677 48.28C164.677 47.56 164.57 46.96 164.357 46.48C164.157 46 163.797 45.6467 163.277 45.42C162.77 45.18 162.064 45.06 161.157 45.06H157.597V44.32L157.937 39.12H164.217L164.117 39.62H158.377L158.057 44.56H160.957C162.53 44.56 163.63 44.8667 164.257 45.48C164.897 46.08 165.217 47.0133 165.217 48.28C165.217 49.5333 164.83 50.5 164.057 51.18C163.284 51.86 162.184 52.2 160.757 52.2ZM171.376 52.2C170.776 52.2 170.196 52.1533 169.636 52.06C169.076 51.98 168.623 51.8667 168.276 51.72V51.2C168.743 51.3733 169.223 51.5 169.716 51.58C170.21 51.66 170.77 51.7 171.396 51.7C172.663 51.7 173.63 51.4067 174.296 50.82C174.963 50.2333 175.296 49.3867 175.296 48.28C175.296 47.56 175.19 46.96 174.976 46.48C174.776 46 174.416 45.6467 173.896 45.42C173.39 45.18 172.683 45.06 171.776 45.06H168.216V44.32L168.556 39.12H174.836L174.736 39.62H168.996L168.676 44.56H171.576C173.15 44.56 174.25 44.8667 174.876 45.48C175.516 46.08 175.836 47.0133 175.836 48.28C175.836 49.5333 175.45 50.5 174.676 51.18C173.903 51.86 172.803 52.2 171.376 52.2ZM1.26 82V69.12H10.24V70.82H3.44V74.72H9.5V76.4H3.44V80.32H10.24V82H1.26ZM12.4561 77.46V75.76H20.0961V77.46H12.4561ZM22.8116 82V72.52H24.8116L24.9116 73.52C25.3782 73.1467 25.8916 72.8533 26.4516 72.64C27.0116 72.4267 27.6116 72.32 28.2516 72.32C28.9316 72.32 29.4582 72.4333 29.8316 72.66C30.2182 72.8733 30.5116 73.1733 30.7116 73.56C31.1516 73.2 31.6582 72.9067 32.2316 72.68C32.8049 72.44 33.4916 72.32 34.2916 72.32C35.3849 72.32 36.1916 72.6 36.7116 73.16C37.2316 73.72 37.4916 74.58 37.4916 75.74V82H35.3516V75.96C35.3516 75.2267 35.1982 74.7133 34.8916 74.42C34.5849 74.1267 34.0849 73.98 33.3916 73.98C32.9382 73.98 32.5049 74.06 32.0916 74.22C31.6916 74.38 31.3449 74.62 31.0516 74.94C31.0916 75.0867 31.1182 75.24 31.1316 75.4C31.1449 75.56 31.1516 75.7333 31.1516 75.92V82H29.1316V75.98C29.1316 75.2867 29.0116 74.78 28.7716 74.46C28.5316 74.14 28.0782 73.98 27.4116 73.98C26.9449 73.98 26.4982 74.0933 26.0716 74.32C25.6582 74.5333 25.2849 74.7933 24.9516 75.1V82H22.8116ZM43.2075 82.2C42.6075 82.2 42.0475 82.0933 41.5275 81.88C41.0208 81.6667 40.6142 81.3467 40.3075 80.92C40.0008 80.48 39.8475 79.94 39.8475 79.3C39.8475 78.3933 40.1542 77.6667 40.7675 77.12C41.3942 76.56 42.3542 76.28 43.6475 76.28H46.6875V75.86C46.6875 75.4067 46.6142 75.0467 46.4675 74.78C46.3342 74.5133 46.0808 74.32 45.7075 74.2C45.3475 74.08 44.8142 74.02 44.1075 74.02C42.9875 74.02 41.9408 74.1867 40.9675 74.52V72.9C41.3942 72.7267 41.9142 72.5867 42.5275 72.48C43.1408 72.3733 43.8008 72.32 44.5075 72.32C45.8942 72.32 46.9475 72.6 47.6675 73.16C48.4008 73.72 48.7675 74.6333 48.7675 75.9V82H46.9075L46.7675 81.04C46.3808 81.4133 45.9008 81.7 45.3275 81.9C44.7675 82.1 44.0608 82.2 43.2075 82.2ZM43.7875 80.64C44.4408 80.64 45.0075 80.5333 45.4875 80.32C45.9808 80.0933 46.3808 79.7933 46.6875 79.42V77.76H43.6875C43.0475 77.76 42.5808 77.8867 42.2875 78.14C42.0075 78.38 41.8675 78.7533 41.8675 79.26C41.8675 79.7533 42.0342 80.1067 42.3675 80.32C42.7008 80.5333 43.1742 80.64 43.7875 80.64ZM52.585 70.54V68.74H54.965V70.54H52.585ZM52.765 82V74.18H51.325L51.525 72.52H54.945V82H52.765ZM60.4481 82.2C59.6748 82.2 59.0881 82.0133 58.6881 81.64C58.2881 81.2533 58.0881 80.62 58.0881 79.74V68.52H60.2681V79.54C60.2681 79.9133 60.3348 80.1667 60.4681 80.3C60.6015 80.4333 60.8015 80.5 61.0681 80.5C61.3881 80.5 61.6948 80.46 61.9881 80.38V81.96C61.7348 82.0533 61.4881 82.1133 61.2481 82.14C61.0215 82.18 60.7548 82.2 60.4481 82.2ZM63.8936 75.48V73.76H65.7336V75.48H63.8936ZM63.8936 81.5V79.78H65.7336V81.5H63.8936ZM74.8148 82V73.04H73.3148V72.52H74.8148V70.7C74.8148 69.8867 75.0348 69.2667 75.4748 68.84C75.9282 68.4133 76.5748 68.2 77.4148 68.2C77.6815 68.2 77.9282 68.22 78.1548 68.26C78.3815 68.2867 78.5882 68.3333 78.7748 68.4V68.92C78.5748 68.8533 78.3815 68.8 78.1948 68.76C78.0082 68.72 77.8015 68.7 77.5748 68.7C76.7748 68.7 76.2082 68.86 75.8748 69.18C75.5415 69.5 75.3748 69.9933 75.3748 70.66V72.52H78.1148L78.0748 73.04H75.3748V82H74.8148ZM83.2003 82.2C82.6003 82.2 82.0536 82.1133 81.5603 81.94C81.067 81.7667 80.667 81.4933 80.3603 81.12C80.067 80.7333 79.9203 80.2267 79.9203 79.6C79.9203 78.7867 80.167 78.1333 80.6603 77.64C81.1536 77.1333 82.0403 76.88 83.3203 76.88H87.1003V75.66C87.1003 74.98 87.0136 74.4333 86.8403 74.02C86.667 73.5933 86.347 73.2867 85.8803 73.1C85.4136 72.9133 84.747 72.82 83.8803 72.82C83.347 72.82 82.8403 72.8667 82.3603 72.96C81.8803 73.04 81.4203 73.16 80.9803 73.32V72.8C81.3803 72.64 81.847 72.52 82.3803 72.44C82.9136 72.36 83.4736 72.32 84.0603 72.32C85.3136 72.32 86.227 72.5733 86.8003 73.08C87.3736 73.5867 87.6603 74.4333 87.6603 75.62V82H87.2203L87.1403 80.7C86.687 81.2067 86.147 81.5867 85.5203 81.84C84.8936 82.08 84.1203 82.2 83.2003 82.2ZM83.3403 81.7C84.167 81.7 84.8803 81.5733 85.4803 81.32C86.0936 81.0667 86.6336 80.66 87.1003 80.1V77.4H83.3603C82.227 77.4 81.4603 77.5933 81.0603 77.98C80.6603 78.3533 80.4603 78.8933 80.4603 79.6C80.4603 80.3467 80.7203 80.8867 81.2403 81.22C81.7603 81.54 82.4603 81.7 83.3403 81.7ZM94.9095 85.52C94.2029 85.52 93.5495 85.48 92.9495 85.4C92.3495 85.3333 91.8162 85.2133 91.3495 85.04V84.52C91.8962 84.6933 92.4695 84.82 93.0695 84.9C93.6829 84.98 94.2962 85.02 94.9095 85.02C95.6295 85.02 96.2495 84.98 96.7695 84.9C97.3029 84.82 97.7095 84.66 97.9895 84.42C98.2695 84.1933 98.4095 83.84 98.4095 83.36C98.4095 82.8133 98.2495 82.4267 97.9295 82.2C97.6229 81.9867 97.0229 81.88 96.1295 81.88H93.4895C92.5962 81.88 91.9495 81.76 91.5495 81.52C91.1629 81.2667 90.9695 80.8733 90.9695 80.34C90.9695 79.9533 91.1229 79.6067 91.4295 79.3C91.7495 78.98 92.2029 78.76 92.7895 78.64C92.1362 78.4133 91.6829 78.0333 91.4295 77.5C91.1895 76.9533 91.0695 76.3533 91.0695 75.7C91.0695 74.54 91.3762 73.6867 91.9895 73.14C92.6029 72.5933 93.5762 72.32 94.9095 72.32C95.1762 72.32 95.4429 72.3467 95.7095 72.4C95.9762 72.44 96.1962 72.48 96.3695 72.52H99.6295L99.5895 73.04H97.6295C98.0429 73.3733 98.3295 73.7733 98.4895 74.24C98.6629 74.7067 98.7495 75.1933 98.7495 75.7C98.7495 76.82 98.4429 77.66 97.8295 78.22C97.2295 78.7667 96.2562 79.04 94.9095 79.04C94.4829 79.04 94.0162 78.9933 93.5095 78.9C92.9362 78.9667 92.4562 79.12 92.0695 79.36C91.6962 79.5867 91.5095 79.9133 91.5095 80.34C91.5095 80.6867 91.6495 80.9467 91.9295 81.12C92.2095 81.28 92.7362 81.36 93.5095 81.36H96.2295C97.1362 81.36 97.8162 81.5133 98.2695 81.82C98.7229 82.1267 98.9495 82.6267 98.9495 83.32C98.9495 83.9333 98.7895 84.3933 98.4695 84.7C98.1495 85.02 97.6895 85.2333 97.0895 85.34C96.4895 85.46 95.7629 85.52 94.9095 85.52ZM94.9095 78.54C96.1495 78.54 97.0095 78.32 97.4895 77.88C97.9695 77.44 98.2095 76.7133 98.2095 75.7C98.2095 74.6867 97.9562 73.9533 97.4495 73.5C96.9429 73.0467 96.0962 72.82 94.9095 72.82C93.7362 72.82 92.8895 73.04 92.3695 73.48C91.8629 73.92 91.6095 74.66 91.6095 75.7C91.6095 76.6733 91.8495 77.3933 92.3295 77.86C92.8229 78.3133 93.6829 78.54 94.9095 78.54ZM106.131 82.2C104.985 82.2 104.111 81.88 103.511 81.24C102.925 80.5867 102.631 79.68 102.631 78.52V72.52H103.191V78.52C103.191 79.5467 103.445 80.3333 103.951 80.88C104.471 81.4267 105.298 81.7 106.431 81.7C107.178 81.7 107.838 81.5533 108.411 81.26C108.998 80.9533 109.505 80.58 109.931 80.14V72.52H110.491V82H110.031L109.931 80.76C109.438 81.2133 108.905 81.5667 108.331 81.82C107.771 82.0733 107.038 82.2 106.131 82.2ZM116.888 82.2C116.382 82.2 115.888 82.1667 115.408 82.1C114.942 82.0333 114.528 81.9467 114.168 81.84V81.32C115.022 81.5733 115.908 81.7 116.828 81.7C117.842 81.7 118.568 81.5467 119.008 81.24C119.462 80.92 119.688 80.4 119.688 79.68C119.688 79.1733 119.588 78.7933 119.388 78.54C119.188 78.2867 118.875 78.08 118.448 77.92C118.022 77.7467 117.475 77.5467 116.808 77.32C116.288 77.1333 115.802 76.96 115.348 76.8C114.908 76.6267 114.555 76.3867 114.288 76.08C114.022 75.76 113.888 75.3 113.888 74.7C113.888 73.9133 114.142 73.32 114.648 72.92C115.155 72.52 115.982 72.32 117.128 72.32C118.062 72.32 118.855 72.42 119.508 72.62V73.14C118.748 72.9267 117.982 72.82 117.208 72.82C116.128 72.82 115.395 72.9733 115.008 73.28C114.622 73.5867 114.428 74.0533 114.428 74.68C114.428 75.1067 114.508 75.4467 114.668 75.7C114.842 75.94 115.115 76.14 115.488 76.3C115.862 76.46 116.355 76.64 116.968 76.84C117.662 77.0533 118.248 77.2667 118.728 77.48C119.222 77.6933 119.595 77.9667 119.848 78.3C120.102 78.6333 120.228 79.0933 120.228 79.68C120.228 80.6133 119.928 81.2667 119.328 81.64C118.728 82.0133 117.915 82.2 116.888 82.2ZM129.799 84.64C128.905 84.64 128.059 84.5333 127.259 84.32C126.459 84.12 125.759 83.7733 125.159 83.28C124.559 82.8 124.085 82.1533 123.739 81.34C123.392 80.5133 123.219 79.48 123.219 78.24C123.219 75.9067 123.805 74.2 124.979 73.12C126.165 72.04 127.885 71.5 130.139 71.5C132.219 71.5 133.745 71.9733 134.719 72.92C135.692 73.8533 136.179 75.1733 136.179 76.88C136.179 78.16 135.925 79.1733 135.419 79.92C134.925 80.6533 134.112 81.02 132.979 81.02H132.599C132.212 81.4733 131.739 81.8133 131.179 82.04C130.632 82.28 129.965 82.4 129.179 82.4C128.645 82.4 128.159 82.3267 127.719 82.18C127.279 82.0333 126.925 81.8 126.659 81.48C126.405 81.1467 126.279 80.7 126.279 80.14C126.279 79.42 126.505 78.8333 126.959 78.38C127.425 77.9267 128.225 77.7 129.359 77.7H132.499V76.8C132.499 76.2 132.439 75.72 132.319 75.36C132.199 75 131.945 74.74 131.559 74.58C131.185 74.42 130.612 74.34 129.839 74.34C129.372 74.34 128.925 74.38 128.499 74.46C128.072 74.5267 127.665 74.6333 127.279 74.78V74.26C127.625 74.1133 128.032 74.0067 128.499 73.94C128.979 73.8733 129.479 73.84 129.999 73.84C131.105 73.84 131.892 74.0667 132.359 74.52C132.825 74.96 133.059 75.7067 133.059 76.76V80.5C133.925 80.5 134.572 80.2267 134.999 79.68C135.425 79.1333 135.639 78.2 135.639 76.88C135.639 75.2933 135.205 74.0867 134.339 73.26C133.472 72.42 132.072 72 130.139 72C128.045 72 126.459 72.4933 125.379 73.48C124.299 74.4533 123.759 76.04 123.759 78.24C123.759 79.3733 123.919 80.3267 124.239 81.1C124.559 81.86 124.999 82.46 125.559 82.9C126.119 83.34 126.759 83.6533 127.479 83.84C128.199 84.04 128.959 84.14 129.759 84.14C131.225 84.14 132.379 84.0133 133.219 83.76V84.28C132.805 84.3733 132.305 84.4533 131.719 84.52C131.132 84.6 130.492 84.64 129.799 84.64ZM129.299 81.9C130.005 81.9 130.612 81.7867 131.119 81.56C131.625 81.32 132.085 80.9467 132.499 80.44V78.22H129.379C128.379 78.22 127.699 78.3867 127.339 78.72C126.992 79.04 126.819 79.5133 126.819 80.14C126.819 80.7933 127.039 81.2533 127.479 81.52C127.932 81.7733 128.539 81.9 129.299 81.9ZM140.27 82V73.04H138.77V72.52H140.27V70.7C140.27 69.8867 140.49 69.2667 140.93 68.84C141.384 68.4133 142.03 68.2 142.87 68.2C143.137 68.2 143.384 68.22 143.61 68.26C143.837 68.2867 144.044 68.3333 144.23 68.4V68.92C144.03 68.8533 143.837 68.8 143.65 68.76C143.464 68.72 143.257 68.7 143.03 68.7C142.23 68.7 141.664 68.86 141.33 69.18C140.997 69.5 140.83 69.9933 140.83 70.66V72.52H143.57L143.53 73.04H140.83V82H140.27ZM148.656 82.2C148.056 82.2 147.509 82.1133 147.016 81.94C146.522 81.7667 146.122 81.4933 145.816 81.12C145.522 80.7333 145.376 80.2267 145.376 79.6C145.376 78.7867 145.622 78.1333 146.116 77.64C146.609 77.1333 147.496 76.88 148.776 76.88H152.556V75.66C152.556 74.98 152.469 74.4333 152.296 74.02C152.122 73.5933 151.802 73.2867 151.336 73.1C150.869 72.9133 150.202 72.82 149.336 72.82C148.802 72.82 148.296 72.8667 147.816 72.96C147.336 73.04 146.876 73.16 146.436 73.32V72.8C146.836 72.64 147.302 72.52 147.836 72.44C148.369 72.36 148.929 72.32 149.516 72.32C150.769 72.32 151.682 72.5733 152.256 73.08C152.829 73.5867 153.116 74.4333 153.116 75.62V82H152.676L152.596 80.7C152.142 81.2067 151.602 81.5867 150.976 81.84C150.349 82.08 149.576 82.2 148.656 82.2ZM148.796 81.7C149.622 81.7 150.336 81.5733 150.936 81.32C151.549 81.0667 152.089 80.66 152.556 80.1V77.4H148.816C147.682 77.4 146.916 77.5933 146.516 77.98C146.116 78.3533 145.916 78.8933 145.916 79.6C145.916 80.3467 146.176 80.8867 146.696 81.22C147.216 81.54 147.916 81.7 148.796 81.7ZM160.365 85.52C159.658 85.52 159.005 85.48 158.405 85.4C157.805 85.3333 157.272 85.2133 156.805 85.04V84.52C157.352 84.6933 157.925 84.82 158.525 84.9C159.138 84.98 159.752 85.02 160.365 85.02C161.085 85.02 161.705 84.98 162.225 84.9C162.758 84.82 163.165 84.66 163.445 84.42C163.725 84.1933 163.865 83.84 163.865 83.36C163.865 82.8133 163.705 82.4267 163.385 82.2C163.078 81.9867 162.478 81.88 161.585 81.88H158.945C158.052 81.88 157.405 81.76 157.005 81.52C156.618 81.2667 156.425 80.8733 156.425 80.34C156.425 79.9533 156.578 79.6067 156.885 79.3C157.205 78.98 157.658 78.76 158.245 78.64C157.592 78.4133 157.138 78.0333 156.885 77.5C156.645 76.9533 156.525 76.3533 156.525 75.7C156.525 74.54 156.832 73.6867 157.445 73.14C158.058 72.5933 159.032 72.32 160.365 72.32C160.632 72.32 160.898 72.3467 161.165 72.4C161.432 72.44 161.652 72.48 161.825 72.52H165.085L165.045 73.04H163.085C163.498 73.3733 163.785 73.7733 163.945 74.24C164.118 74.7067 164.205 75.1933 164.205 75.7C164.205 76.82 163.898 77.66 163.285 78.22C162.685 78.7667 161.712 79.04 160.365 79.04C159.938 79.04 159.472 78.9933 158.965 78.9C158.392 78.9667 157.912 79.12 157.525 79.36C157.152 79.5867 156.965 79.9133 156.965 80.34C156.965 80.6867 157.105 80.9467 157.385 81.12C157.665 81.28 158.192 81.36 158.965 81.36H161.685C162.592 81.36 163.272 81.5133 163.725 81.82C164.178 82.1267 164.405 82.6267 164.405 83.32C164.405 83.9333 164.245 84.3933 163.925 84.7C163.605 85.02 163.145 85.2333 162.545 85.34C161.945 85.46 161.218 85.52 160.365 85.52ZM160.365 78.54C161.605 78.54 162.465 78.32 162.945 77.88C163.425 77.44 163.665 76.7133 163.665 75.7C163.665 74.6867 163.412 73.9533 162.905 73.5C162.398 73.0467 161.552 72.82 160.365 72.82C159.192 72.82 158.345 73.04 157.825 73.48C157.318 73.92 157.065 74.66 157.065 75.7C157.065 76.6733 157.305 77.3933 157.785 77.86C158.278 78.3133 159.138 78.54 160.365 78.54ZM171.587 82.2C170.44 82.2 169.567 81.88 168.967 81.24C168.38 80.5867 168.087 79.68 168.087 78.52V72.52H168.647V78.52C168.647 79.5467 168.9 80.3333 169.407 80.88C169.927 81.4267 170.753 81.7 171.887 81.7C172.633 81.7 173.293 81.5533 173.867 81.26C174.453 80.9533 174.96 80.58 175.387 80.14V72.52H175.947V82H175.487L175.387 80.76C174.893 81.2133 174.36 81.5667 173.787 81.82C173.227 82.0733 172.493 82.2 171.587 82.2ZM182.344 82.2C181.837 82.2 181.344 82.1667 180.864 82.1C180.397 82.0333 179.984 81.9467 179.624 81.84V81.32C180.477 81.5733 181.364 81.7 182.284 81.7C183.297 81.7 184.024 81.5467 184.464 81.24C184.917 80.92 185.144 80.4 185.144 79.68C185.144 79.1733 185.044 78.7933 184.844 78.54C184.644 78.2867 184.33 78.08 183.904 77.92C183.477 77.7467 182.93 77.5467 182.264 77.32C181.744 77.1333 181.257 76.96 180.804 76.8C180.364 76.6267 180.01 76.3867 179.744 76.08C179.477 75.76 179.344 75.3 179.344 74.7C179.344 73.9133 179.597 73.32 180.104 72.92C180.61 72.52 181.437 72.32 182.584 72.32C183.517 72.32 184.31 72.42 184.964 72.62V73.14C184.204 72.9267 183.437 72.82 182.664 72.82C181.584 72.82 180.85 72.9733 180.464 73.28C180.077 73.5867 179.884 74.0533 179.884 74.68C179.884 75.1067 179.964 75.4467 180.124 75.7C180.297 75.94 180.57 76.14 180.944 76.3C181.317 76.46 181.81 76.64 182.424 76.84C183.117 77.0533 183.704 77.2667 184.184 77.48C184.677 77.6933 185.05 77.9667 185.304 78.3C185.557 78.6333 185.684 79.0933 185.684 79.68C185.684 80.6133 185.384 81.2667 184.784 81.64C184.184 82.0133 183.37 82.2 182.344 82.2ZM188.674 82V81.34H189.334V82H188.674ZM193.741 69.8V68.92H194.441V69.8H193.741ZM193.881 82V73.04H192.341V72.52H194.441V82H193.881ZM200.843 82.2C200.336 82.2 199.843 82.1667 199.363 82.1C198.896 82.0333 198.483 81.9467 198.123 81.84V81.32C198.976 81.5733 199.863 81.7 200.783 81.7C201.796 81.7 202.523 81.5467 202.963 81.24C203.416 80.92 203.643 80.4 203.643 79.68C203.643 79.1733 203.543 78.7933 203.343 78.54C203.143 78.2867 202.83 78.08 202.403 77.92C201.976 77.7467 201.43 77.5467 200.763 77.32C200.243 77.1333 199.756 76.96 199.303 76.8C198.863 76.6267 198.51 76.3867 198.243 76.08C197.976 75.76 197.843 75.3 197.843 74.7C197.843 73.9133 198.096 73.32 198.603 72.92C199.11 72.52 199.936 72.32 201.083 72.32C202.016 72.32 202.81 72.42 203.463 72.62V73.14C202.703 72.9267 201.936 72.82 201.163 72.82C200.083 72.82 199.35 72.9733 198.963 73.28C198.576 73.5867 198.383 74.0533 198.383 74.68C198.383 75.1067 198.463 75.4467 198.623 75.7C198.796 75.94 199.07 76.14 199.443 76.3C199.816 76.46 200.31 76.64 200.923 76.84C201.616 77.0533 202.203 77.2667 202.683 77.48C203.176 77.6933 203.55 77.9667 203.803 78.3C204.056 78.6333 204.183 79.0933 204.183 79.68C204.183 80.6133 203.883 81.2667 203.283 81.64C202.683 82.0133 201.87 82.2 200.843 82.2Z" fill="white"/>
<path d="M316.674 20V7.22H324.99V8.048H317.592V13.124H323.874V13.916H317.592V20H316.674ZM330.685 7.22H331.477L336.877 20H335.905L334.123 15.788H328.021L326.239 20H325.249L330.685 7.22ZM333.871 15.032L331.081 8.336L328.237 15.032H333.871ZM343.995 20.09C343.131 20.09 342.333 19.904 341.601 19.532C340.869 19.16 340.233 18.668 339.693 18.056C339.153 17.432 338.733 16.736 338.433 15.968C338.145 15.188 338.001 14.396 338.001 13.592C338.001 12.752 338.145 11.948 338.433 11.18C338.721 10.4 339.129 9.71 339.657 9.11C340.185 8.498 340.809 8.018 341.529 7.67C342.249 7.31 343.035 7.13 343.887 7.13C345.159 7.13 346.185 7.394 346.965 7.922C347.757 8.438 348.357 9.104 348.765 9.92L348.009 10.37C347.577 9.53 347.001 8.924 346.281 8.552C345.573 8.168 344.769 7.976 343.869 7.976C343.113 7.976 342.429 8.138 341.817 8.462C341.205 8.774 340.683 9.2 340.251 9.74C339.819 10.268 339.489 10.868 339.261 11.54C339.033 12.212 338.919 12.902 338.919 13.61C338.919 14.366 339.051 15.08 339.315 15.752C339.579 16.424 339.945 17.024 340.413 17.552C340.881 18.08 341.427 18.494 342.051 18.794C342.675 19.094 343.341 19.244 344.049 19.244C344.877 19.244 345.657 19.046 346.389 18.65C347.121 18.242 347.823 17.606 348.495 16.742V17.768C347.223 19.316 345.723 20.09 343.995 20.09ZM348.297 14.528H345.399V13.79H349.089V20H348.297V14.528ZM357.473 20.09C356.453 20.09 355.601 19.91 354.917 19.55C354.233 19.19 353.687 18.704 353.279 18.092C352.871 17.468 352.577 16.772 352.397 16.004C352.217 15.236 352.127 14.45 352.127 13.646V7.22H353.045V13.646C353.045 14.342 353.117 15.026 353.261 15.698C353.405 16.37 353.639 16.976 353.963 17.516C354.299 18.044 354.749 18.464 355.313 18.776C355.889 19.088 356.603 19.244 357.455 19.244C358.319 19.244 359.033 19.082 359.597 18.758C360.173 18.434 360.623 18.008 360.947 17.48C361.283 16.94 361.517 16.34 361.649 15.68C361.793 15.008 361.865 14.33 361.865 13.646V7.22H362.783V13.646C362.783 14.498 362.687 15.314 362.495 16.094C362.315 16.862 362.015 17.546 361.595 18.146C361.175 18.746 360.629 19.22 359.957 19.568C359.285 19.916 358.457 20.09 357.473 20.09ZM373.905 9.344C373.701 9.116 373.473 8.918 373.221 8.75C372.969 8.57 372.699 8.426 372.411 8.318C372.123 8.198 371.811 8.108 371.475 8.048C371.139 7.988 370.779 7.958 370.395 7.958C369.147 7.958 368.235 8.198 367.659 8.678C367.095 9.146 366.813 9.782 366.813 10.586C366.813 11.126 366.939 11.558 367.191 11.882C367.455 12.194 367.863 12.446 368.415 12.638C368.967 12.83 369.681 13.016 370.557 13.196C371.481 13.388 372.279 13.616 372.951 13.88C373.623 14.132 374.139 14.48 374.499 14.924C374.871 15.368 375.057 15.968 375.057 16.724C375.057 17.288 374.949 17.786 374.733 18.218C374.517 18.638 374.205 18.986 373.797 19.262C373.389 19.538 372.903 19.748 372.339 19.892C371.787 20.036 371.169 20.108 370.485 20.108C369.825 20.108 369.195 20.036 368.595 19.892C367.995 19.748 367.431 19.538 366.903 19.262C366.375 18.986 365.883 18.632 365.427 18.2L365.913 17.462C366.177 17.75 366.471 18.008 366.795 18.236C367.131 18.452 367.491 18.638 367.875 18.794C368.271 18.95 368.691 19.076 369.135 19.172C369.579 19.256 370.041 19.298 370.521 19.298C371.637 19.298 372.507 19.094 373.131 18.686C373.767 18.266 374.085 17.648 374.085 16.832C374.085 16.268 373.941 15.812 373.653 15.464C373.365 15.116 372.921 14.834 372.321 14.618C371.721 14.39 370.971 14.18 370.071 13.988C369.171 13.796 368.403 13.58 367.767 13.34C367.143 13.1 366.669 12.776 366.345 12.368C366.033 11.96 365.877 11.408 365.877 10.712C365.877 9.944 366.063 9.296 366.435 8.768C366.819 8.228 367.353 7.82 368.037 7.544C368.721 7.268 369.507 7.13 370.395 7.13C370.947 7.13 371.457 7.184 371.925 7.292C372.405 7.4 372.843 7.568 373.239 7.796C373.647 8.012 374.025 8.288 374.373 8.624L373.905 9.344ZM386.78 20.18C386.12 20.18 385.508 20.054 384.944 19.802C384.38 19.538 383.888 19.184 383.468 18.74C383.06 18.284 382.736 17.762 382.496 17.174C382.268 16.574 382.154 15.944 382.154 15.284C382.154 14.396 382.352 13.592 382.748 12.872C383.144 12.152 383.69 11.576 384.386 11.144C385.082 10.7 385.862 10.478 386.726 10.478C387.614 10.478 388.4 10.7 389.084 11.144C389.768 11.588 390.308 12.176 390.704 12.908C391.112 13.628 391.316 14.42 391.316 15.284C391.316 15.356 391.316 15.428 391.316 15.5C391.316 15.572 391.31 15.632 391.298 15.68H383.09C383.138 16.388 383.336 17.03 383.684 17.606C384.032 18.182 384.476 18.638 385.016 18.974C385.568 19.298 386.168 19.46 386.816 19.46C387.464 19.46 388.076 19.292 388.652 18.956C389.228 18.62 389.63 18.188 389.858 17.66L390.65 17.876C390.47 18.32 390.182 18.716 389.786 19.064C389.402 19.412 388.946 19.688 388.418 19.892C387.902 20.084 387.356 20.18 386.78 20.18ZM383.054 14.978H390.452C390.404 14.246 390.212 13.598 389.876 13.034C389.54 12.47 389.096 12.026 388.544 11.702C388.004 11.378 387.404 11.216 386.744 11.216C386.084 11.216 385.484 11.378 384.944 11.702C384.404 12.026 383.966 12.47 383.63 13.034C383.294 13.598 383.102 14.246 383.054 14.978ZM401.486 20H400.586V14.78C400.586 13.628 400.388 12.764 399.992 12.188C399.596 11.6 399.02 11.306 398.264 11.306C397.772 11.306 397.28 11.432 396.788 11.684C396.296 11.936 395.87 12.284 395.51 12.728C395.15 13.16 394.892 13.652 394.736 14.204V20H393.836V6.86H394.736V12.872C395.12 12.14 395.654 11.558 396.338 11.126C397.022 10.694 397.748 10.478 398.516 10.478C399.044 10.478 399.494 10.574 399.866 10.766C400.238 10.958 400.544 11.234 400.784 11.594C401.024 11.954 401.198 12.386 401.306 12.89C401.426 13.394 401.486 13.97 401.486 14.618V20ZM405.074 20V11.378H403.76V10.64H405.074V10.334C405.074 9.578 405.182 8.924 405.398 8.372C405.614 7.82 405.92 7.4 406.316 7.112C406.712 6.824 407.18 6.68 407.72 6.68C408.08 6.68 408.428 6.734 408.764 6.842C409.1 6.95 409.376 7.094 409.592 7.274L409.268 7.922C409.112 7.778 408.908 7.67 408.656 7.598C408.404 7.514 408.146 7.472 407.882 7.472C407.27 7.472 406.796 7.718 406.46 8.21C406.136 8.69 405.974 9.392 405.974 10.316V10.64H408.638V11.378H405.974V20H405.074ZM410.134 20V18.47H410.926V20H410.134ZM321.822 47.09C320.802 47.09 319.95 46.91 319.266 46.55C318.582 46.19 318.036 45.704 317.628 45.092C317.22 44.468 316.926 43.772 316.746 43.004C316.566 42.236 316.476 41.45 316.476 40.646V34.22H317.394V40.646C317.394 41.342 317.466 42.026 317.61 42.698C317.754 43.37 317.988 43.976 318.312 44.516C318.648 45.044 319.098 45.464 319.662 45.776C320.238 46.088 320.952 46.244 321.804 46.244C322.668 46.244 323.382 46.082 323.946 45.758C324.522 45.434 324.972 45.008 325.296 44.48C325.632 43.94 325.866 43.34 325.998 42.68C326.142 42.008 326.214 41.33 326.214 40.646V34.22H327.132V40.646C327.132 41.498 327.036 42.314 326.844 43.094C326.664 43.862 326.364 44.546 325.944 45.146C325.524 45.746 324.978 46.22 324.306 46.568C323.634 46.916 322.806 47.09 321.822 47.09ZM338.129 47H337.229V41.78C337.229 40.58 337.055 39.704 336.707 39.152C336.371 38.588 335.831 38.306 335.087 38.306C334.559 38.306 334.037 38.432 333.521 38.684C333.017 38.936 332.573 39.284 332.189 39.728C331.817 40.16 331.547 40.652 331.379 41.204V47H330.479V37.64H331.325V39.872C331.577 39.392 331.913 38.978 332.333 38.63C332.753 38.27 333.221 37.988 333.737 37.784C334.253 37.58 334.787 37.478 335.339 37.478C335.855 37.478 336.287 37.574 336.635 37.766C336.995 37.946 337.283 38.21 337.499 38.558C337.727 38.906 337.889 39.338 337.985 39.854C338.081 40.37 338.129 40.958 338.129 41.618V47ZM341.3 43.04V37.64H342.2V42.914C342.2 44.078 342.392 44.948 342.776 45.524C343.172 46.088 343.766 46.37 344.558 46.37C345.086 46.37 345.59 46.256 346.07 46.028C346.562 45.788 346.994 45.458 347.366 45.038C347.738 44.606 348.014 44.108 348.194 43.544V37.64H349.094V45.812C349.094 45.956 349.124 46.064 349.184 46.136C349.256 46.208 349.352 46.25 349.472 46.262V47C349.352 47.012 349.256 47.018 349.184 47.018C349.124 47.018 349.07 47.012 349.022 47C348.818 46.976 348.65 46.892 348.518 46.748C348.386 46.592 348.314 46.406 348.302 46.19L348.284 44.786C347.876 45.53 347.312 46.118 346.592 46.55C345.884 46.97 345.116 47.18 344.288 47.18C343.304 47.18 342.56 46.832 342.056 46.136C341.552 45.44 341.3 44.408 341.3 43.04ZM356.869 47.18C356.137 47.18 355.453 46.988 354.817 46.604C354.181 46.208 353.683 45.716 353.323 45.128V47H352.495V33.86H353.395V39.674C353.839 39.026 354.361 38.498 354.961 38.09C355.573 37.682 356.275 37.478 357.067 37.478C357.739 37.478 358.333 37.616 358.849 37.892C359.377 38.168 359.827 38.54 360.199 39.008C360.571 39.476 360.853 39.998 361.045 40.574C361.249 41.15 361.351 41.744 361.351 42.356C361.351 42.992 361.237 43.604 361.009 44.192C360.781 44.768 360.463 45.284 360.055 45.74C359.647 46.184 359.173 46.538 358.633 46.802C358.093 47.054 357.505 47.18 356.869 47.18ZM356.689 46.37C357.241 46.37 357.745 46.262 358.201 46.046C358.657 45.818 359.047 45.512 359.371 45.128C359.707 44.744 359.965 44.312 360.145 43.832C360.337 43.352 360.433 42.86 360.433 42.356C360.433 41.648 360.283 40.988 359.983 40.376C359.683 39.752 359.263 39.248 358.723 38.864C358.183 38.48 357.559 38.288 356.851 38.288C356.323 38.288 355.837 38.408 355.393 38.648C354.949 38.876 354.559 39.176 354.223 39.548C353.899 39.92 353.623 40.328 353.395 40.772V43.868C353.443 44.216 353.575 44.546 353.791 44.858C354.007 45.158 354.277 45.422 354.601 45.65C354.937 45.866 355.285 46.04 355.645 46.172C356.017 46.304 356.365 46.37 356.689 46.37ZM363.282 44.3C363.282 43.736 363.45 43.25 363.786 42.842C364.122 42.422 364.584 42.098 365.172 41.87C365.76 41.63 366.438 41.51 367.206 41.51C367.686 41.51 368.184 41.552 368.7 41.636C369.216 41.72 369.678 41.834 370.086 41.978V41.096C370.086 40.232 369.834 39.542 369.33 39.026C368.838 38.51 368.154 38.252 367.278 38.252C366.81 38.252 366.324 38.348 365.82 38.54C365.316 38.732 364.8 39.008 364.272 39.368L363.894 38.72C364.506 38.312 365.094 38.006 365.658 37.802C366.234 37.586 366.804 37.478 367.368 37.478C368.484 37.478 369.366 37.808 370.014 38.468C370.662 39.128 370.986 40.028 370.986 41.168V45.812C370.986 45.956 371.016 46.064 371.076 46.136C371.148 46.208 371.25 46.25 371.382 46.262V47C371.274 47.012 371.184 47.018 371.112 47.018C371.04 47.018 370.98 47.018 370.932 47.018C370.704 46.982 370.524 46.886 370.392 46.73C370.272 46.574 370.206 46.4 370.194 46.208V45.47C369.762 46.01 369.204 46.43 368.52 46.73C367.848 47.03 367.14 47.18 366.396 47.18C365.808 47.18 365.274 47.054 364.794 46.802C364.326 46.55 363.954 46.208 363.678 45.776C363.414 45.332 363.282 44.84 363.282 44.3ZM369.726 45.074C369.846 44.918 369.936 44.768 369.996 44.624C370.056 44.48 370.086 44.348 370.086 44.228V42.68C369.654 42.512 369.204 42.386 368.736 42.302C368.268 42.218 367.788 42.176 367.296 42.176C366.36 42.176 365.598 42.362 365.01 42.734C364.434 43.106 364.146 43.61 364.146 44.246C364.146 44.642 364.248 45.008 364.452 45.344C364.656 45.68 364.938 45.95 365.298 46.154C365.67 46.358 366.096 46.46 366.576 46.46C367.248 46.46 367.866 46.334 368.43 46.082C369.006 45.818 369.438 45.482 369.726 45.074ZM381.032 47L377.378 41.996L375.164 44.03V47H374.264V33.86H375.164V43.022L380.87 37.658H381.896L377.99 41.456L382.022 47H381.032ZM390.976 47L387.322 41.996L385.108 44.03V47H384.208V33.86H385.108V43.022L390.814 37.658H391.84L387.934 41.456L391.966 47H390.976ZM393.308 44.3C393.308 43.736 393.476 43.25 393.812 42.842C394.148 42.422 394.61 42.098 395.198 41.87C395.786 41.63 396.464 41.51 397.232 41.51C397.712 41.51 398.21 41.552 398.726 41.636C399.242 41.72 399.704 41.834 400.112 41.978V41.096C400.112 40.232 399.86 39.542 399.356 39.026C398.864 38.51 398.18 38.252 397.304 38.252C396.836 38.252 396.35 38.348 395.846 38.54C395.342 38.732 394.826 39.008 394.298 39.368L393.92 38.72C394.532 38.312 395.12 38.006 395.684 37.802C396.26 37.586 396.83 37.478 397.394 37.478C398.51 37.478 399.392 37.808 400.04 38.468C400.688 39.128 401.012 40.028 401.012 41.168V45.812C401.012 45.956 401.042 46.064 401.102 46.136C401.174 46.208 401.276 46.25 401.408 46.262V47C401.3 47.012 401.21 47.018 401.138 47.018C401.066 47.018 401.006 47.018 400.958 47.018C400.73 46.982 400.55 46.886 400.418 46.73C400.298 46.574 400.232 46.4 400.22 46.208V45.47C399.788 46.01 399.23 46.43 398.546 46.73C397.874 47.03 397.166 47.18 396.422 47.18C395.834 47.18 395.3 47.054 394.82 46.802C394.352 46.55 393.98 46.208 393.704 45.776C393.44 45.332 393.308 44.84 393.308 44.3ZM399.752 45.074C399.872 44.918 399.962 44.768 400.022 44.624C400.082 44.48 400.112 44.348 400.112 44.228V42.68C399.68 42.512 399.23 42.386 398.762 42.302C398.294 42.218 397.814 42.176 397.322 42.176C396.386 42.176 395.624 42.362 395.036 42.734C394.46 43.106 394.172 43.61 394.172 44.246C394.172 44.642 394.274 45.008 394.478 45.344C394.682 45.68 394.964 45.95 395.324 46.154C395.696 46.358 396.122 46.46 396.602 46.46C397.274 46.46 397.892 46.334 398.456 46.082C399.032 45.818 399.464 45.482 399.752 45.074ZM415.015 46.172V47H409.273V46.172H411.829V37.856C411.721 38 411.553 38.156 411.325 38.324C411.097 38.492 410.839 38.654 410.551 38.81C410.263 38.966 409.969 39.092 409.669 39.188C409.369 39.284 409.099 39.332 408.859 39.332V38.432C409.159 38.432 409.471 38.354 409.795 38.198C410.131 38.03 410.449 37.844 410.749 37.64C411.049 37.424 411.295 37.226 411.487 37.046C411.691 36.866 411.805 36.758 411.829 36.722H412.729V46.172H415.015ZM425.603 43.508C425.603 44.24 425.399 44.882 424.991 45.434C424.583 45.974 424.043 46.394 423.371 46.694C422.699 46.982 421.967 47.126 421.175 47.126C420.323 47.126 419.573 46.958 418.925 46.622C418.277 46.286 417.767 45.842 417.395 45.29C417.035 44.726 416.855 44.114 416.855 43.454C416.855 42.89 416.987 42.386 417.251 41.942C417.527 41.498 417.869 41.126 418.277 40.826C418.697 40.514 419.129 40.286 419.573 40.142C419.165 39.986 418.787 39.782 418.439 39.53C418.103 39.266 417.827 38.954 417.611 38.594C417.407 38.234 417.305 37.838 417.305 37.406C417.305 36.89 417.419 36.434 417.647 36.038C417.875 35.642 418.181 35.312 418.565 35.048C418.949 34.772 419.369 34.568 419.825 34.436C420.293 34.292 420.767 34.22 421.247 34.22C421.715 34.22 422.177 34.292 422.633 34.436C423.101 34.568 423.527 34.772 423.911 35.048C424.295 35.312 424.601 35.642 424.829 36.038C425.057 36.422 425.171 36.872 425.171 37.388C425.171 37.832 425.063 38.234 424.847 38.594C424.643 38.954 424.367 39.266 424.019 39.53C423.671 39.782 423.293 39.986 422.885 40.142C423.389 40.31 423.845 40.556 424.253 40.88C424.661 41.192 424.985 41.57 425.225 42.014C425.477 42.458 425.603 42.956 425.603 43.508ZM424.703 43.436C424.703 42.98 424.595 42.572 424.379 42.212C424.175 41.852 423.899 41.552 423.551 41.312C423.215 41.06 422.843 40.868 422.435 40.736C422.027 40.604 421.619 40.538 421.211 40.538C420.647 40.538 420.101 40.664 419.573 40.916C419.057 41.156 418.625 41.492 418.277 41.924C417.941 42.356 417.773 42.866 417.773 43.454C417.773 43.91 417.875 44.318 418.079 44.678C418.295 45.026 418.571 45.326 418.907 45.578C419.243 45.83 419.615 46.022 420.023 46.154C420.443 46.274 420.857 46.334 421.265 46.334C421.817 46.334 422.357 46.214 422.885 45.974C423.413 45.734 423.845 45.398 424.181 44.966C424.529 44.522 424.703 44.012 424.703 43.436ZM418.223 37.442C418.223 37.946 418.373 38.378 418.673 38.738C418.985 39.086 419.375 39.35 419.843 39.53C420.311 39.71 420.773 39.8 421.229 39.8C421.697 39.8 422.159 39.71 422.615 39.53C423.083 39.338 423.473 39.062 423.785 38.702C424.097 38.342 424.253 37.91 424.253 37.406C424.253 36.902 424.103 36.476 423.803 36.128C423.515 35.78 423.137 35.516 422.669 35.336C422.213 35.144 421.727 35.048 421.211 35.048C420.707 35.048 420.221 35.144 419.753 35.336C419.297 35.528 418.925 35.804 418.637 36.164C418.361 36.512 418.223 36.938 418.223 37.442ZM428.283 42.518V41.69H433.467V42.518H428.283ZM435.897 47C435.897 46.664 435.927 46.292 435.987 45.884C436.059 45.476 436.191 45.056 436.383 44.624C436.587 44.192 436.893 43.772 437.301 43.364C437.709 42.956 438.249 42.596 438.921 42.284C439.269 42.116 439.629 41.948 440.001 41.78C440.385 41.612 440.745 41.42 441.081 41.204C441.417 40.988 441.687 40.736 441.891 40.448C442.095 40.148 442.197 39.794 442.197 39.386C442.197 39.062 442.101 38.744 441.909 38.432C441.729 38.12 441.447 37.868 441.063 37.676C440.679 37.472 440.199 37.37 439.623 37.37C439.215 37.37 438.843 37.43 438.507 37.55C438.183 37.67 437.895 37.814 437.643 37.982C437.403 38.15 437.199 38.318 437.031 38.486C436.863 38.642 436.743 38.768 436.671 38.864L436.059 38.252C436.107 38.204 436.221 38.09 436.401 37.91C436.593 37.73 436.845 37.538 437.157 37.334C437.481 37.118 437.859 36.932 438.291 36.776C438.723 36.62 439.209 36.542 439.749 36.542C440.481 36.542 441.099 36.674 441.603 36.938C442.107 37.202 442.491 37.544 442.755 37.964C443.031 38.384 443.169 38.834 443.169 39.314C443.169 39.818 443.055 40.25 442.827 40.61C442.599 40.97 442.311 41.282 441.963 41.546C441.627 41.798 441.267 42.014 440.883 42.194C440.511 42.374 440.169 42.53 439.857 42.662C439.269 42.926 438.783 43.214 438.399 43.526C438.027 43.838 437.727 44.156 437.499 44.48C437.283 44.804 437.121 45.11 437.013 45.398C436.917 45.674 436.851 45.932 436.815 46.172H443.367V47H435.897ZM454.74 41.726C454.74 42.782 454.548 43.724 454.164 44.552C453.78 45.368 453.246 46.01 452.562 46.478C451.89 46.946 451.122 47.18 450.258 47.18C449.394 47.18 448.626 46.946 447.954 46.478C447.282 46.01 446.754 45.368 446.37 44.552C445.986 43.724 445.794 42.782 445.794 41.726C445.794 40.67 445.986 39.734 446.37 38.918C446.754 38.09 447.282 37.442 447.954 36.974C448.626 36.494 449.394 36.254 450.258 36.254C451.122 36.254 451.89 36.494 452.562 36.974C453.246 37.442 453.78 38.09 454.164 38.918C454.548 39.734 454.74 40.67 454.74 41.726ZM453.822 41.726C453.822 40.814 453.672 40.01 453.372 39.314C453.072 38.618 452.652 38.078 452.112 37.694C451.584 37.298 450.966 37.1 450.258 37.1C449.562 37.1 448.944 37.298 448.404 37.694C447.864 38.078 447.444 38.618 447.144 39.314C446.844 40.01 446.694 40.814 446.694 41.726C446.694 42.638 446.844 43.442 447.144 44.138C447.444 44.822 447.864 45.362 448.404 45.758C448.944 46.142 449.562 46.334 450.258 46.334C450.966 46.334 451.584 46.142 452.112 45.758C452.652 45.362 453.072 44.822 453.372 44.138C453.672 43.442 453.822 42.638 453.822 41.726ZM458.058 48.458L458.328 47.036H458.004V45.47H458.922V47.036L458.544 48.458H458.058ZM324.666 70.508C324.666 71.24 324.462 71.882 324.054 72.434C323.646 72.974 323.106 73.394 322.434 73.694C321.762 73.982 321.03 74.126 320.238 74.126C319.386 74.126 318.636 73.958 317.988 73.622C317.34 73.286 316.83 72.842 316.458 72.29C316.098 71.726 315.918 71.114 315.918 70.454C315.918 69.89 316.05 69.386 316.314 68.942C316.59 68.498 316.932 68.126 317.34 67.826C317.76 67.514 318.192 67.286 318.636 67.142C318.228 66.986 317.85 66.782 317.502 66.53C317.166 66.266 316.89 65.954 316.674 65.594C316.47 65.234 316.368 64.838 316.368 64.406C316.368 63.89 316.482 63.434 316.71 63.038C316.938 62.642 317.244 62.312 317.628 62.048C318.012 61.772 318.432 61.568 318.888 61.436C319.356 61.292 319.83 61.22 320.31 61.22C320.778 61.22 321.24 61.292 321.696 61.436C322.164 61.568 322.59 61.772 322.974 62.048C323.358 62.312 323.664 62.642 323.892 63.038C324.12 63.422 324.234 63.872 324.234 64.388C324.234 64.832 324.126 65.234 323.91 65.594C323.706 65.954 323.43 66.266 323.082 66.53C322.734 66.782 322.356 66.986 321.948 67.142C322.452 67.31 322.908 67.556 323.316 67.88C323.724 68.192 324.048 68.57 324.288 69.014C324.54 69.458 324.666 69.956 324.666 70.508ZM323.766 70.436C323.766 69.98 323.658 69.572 323.442 69.212C323.238 68.852 322.962 68.552 322.614 68.312C322.278 68.06 321.906 67.868 321.498 67.736C321.09 67.604 320.682 67.538 320.274 67.538C319.71 67.538 319.164 67.664 318.636 67.916C318.12 68.156 317.688 68.492 317.34 68.924C317.004 69.356 316.836 69.866 316.836 70.454C316.836 70.91 316.938 71.318 317.142 71.678C317.358 72.026 317.634 72.326 317.97 72.578C318.306 72.83 318.678 73.022 319.086 73.154C319.506 73.274 319.92 73.334 320.328 73.334C320.88 73.334 321.42 73.214 321.948 72.974C322.476 72.734 322.908 72.398 323.244 71.966C323.592 71.522 323.766 71.012 323.766 70.436ZM317.286 64.442C317.286 64.946 317.436 65.378 317.736 65.738C318.048 66.086 318.438 66.35 318.906 66.53C319.374 66.71 319.836 66.8 320.292 66.8C320.76 66.8 321.222 66.71 321.678 66.53C322.146 66.338 322.536 66.062 322.848 65.702C323.16 65.342 323.316 64.91 323.316 64.406C323.316 63.902 323.166 63.476 322.866 63.128C322.578 62.78 322.2 62.516 321.732 62.336C321.276 62.144 320.79 62.048 320.274 62.048C319.77 62.048 319.284 62.144 318.816 62.336C318.36 62.528 317.988 62.804 317.7 63.164C317.424 63.512 317.286 63.938 317.286 64.442ZM333.106 73.172V74H327.364V73.172H329.92V64.856C329.812 65 329.644 65.156 329.416 65.324C329.188 65.492 328.93 65.654 328.642 65.81C328.354 65.966 328.06 66.092 327.76 66.188C327.46 66.284 327.19 66.332 326.95 66.332V65.432C327.25 65.432 327.562 65.354 327.886 65.198C328.222 65.03 328.54 64.844 328.84 64.64C329.14 64.424 329.386 64.226 329.578 64.046C329.782 63.866 329.896 63.758 329.92 63.722H330.82V73.172H333.106ZM338.761 76.682C337.849 76.682 337.027 76.448 336.295 75.98C335.575 75.524 335.035 74.918 334.675 74.162L335.341 73.784C335.665 74.408 336.133 74.906 336.745 75.278C337.357 75.662 338.029 75.854 338.761 75.854C339.409 75.854 339.991 75.71 340.507 75.422C341.023 75.146 341.431 74.75 341.731 74.234C342.043 73.73 342.199 73.148 342.199 72.488C342.199 71.852 342.049 71.288 341.749 70.796C341.449 70.304 341.047 69.926 340.543 69.662C340.051 69.386 339.493 69.248 338.869 69.248C338.269 69.248 337.693 69.386 337.141 69.662C336.601 69.926 336.157 70.31 335.809 70.814H334.945L336.367 63.722H342.487V64.568H337.051L336.043 69.626C336.403 69.242 336.835 68.948 337.339 68.744C337.855 68.528 338.395 68.42 338.959 68.42C339.727 68.42 340.423 68.594 341.047 68.942C341.683 69.29 342.187 69.77 342.559 70.382C342.931 70.982 343.117 71.684 343.117 72.488C343.117 73.316 342.919 74.048 342.523 74.684C342.127 75.32 341.599 75.812 340.939 76.16C340.279 76.508 339.553 76.682 338.761 76.682ZM356.074 63.812C356.614 63.812 357.106 63.926 357.55 64.154C358.006 64.382 358.402 64.688 358.738 65.072C359.074 65.444 359.332 65.87 359.512 66.35C359.692 66.818 359.782 67.298 359.782 67.79C359.782 68.462 359.632 69.104 359.332 69.716C359.032 70.328 358.612 70.826 358.072 71.21C357.544 71.582 356.914 71.768 356.182 71.768H352.078V74H351.16V61.22H352.078V63.812H356.074ZM356.164 70.922C356.728 70.922 357.208 70.772 357.604 70.472C358.012 70.16 358.324 69.764 358.54 69.284C358.768 68.804 358.882 68.306 358.882 67.79C358.882 67.226 358.75 66.71 358.486 66.242C358.234 65.762 357.892 65.378 357.46 65.09C357.028 64.802 356.554 64.658 356.038 64.658H352.078V70.922H356.164ZM366.165 74.18C365.505 74.18 364.893 74.054 364.329 73.802C363.777 73.55 363.297 73.202 362.889 72.758C362.481 72.302 362.163 71.78 361.935 71.192C361.707 70.604 361.593 69.986 361.593 69.338C361.593 68.678 361.707 68.06 361.935 67.484C362.163 66.896 362.481 66.38 362.889 65.936C363.309 65.48 363.795 65.126 364.347 64.874C364.911 64.61 365.517 64.478 366.165 64.478C366.813 64.478 367.413 64.61 367.965 64.874C368.517 65.126 369.003 65.48 369.423 65.936C369.843 66.38 370.167 66.896 370.395 67.484C370.623 68.06 370.737 68.678 370.737 69.338C370.737 69.986 370.623 70.604 370.395 71.192C370.167 71.78 369.843 72.302 369.423 72.758C369.015 73.202 368.529 73.55 367.965 73.802C367.413 74.054 366.813 74.18 366.165 74.18ZM362.493 69.374C362.493 70.106 362.655 70.778 362.979 71.39C363.315 71.99 363.759 72.47 364.311 72.83C364.863 73.19 365.475 73.37 366.147 73.37C366.819 73.37 367.431 73.19 367.983 72.83C368.547 72.458 368.991 71.966 369.315 71.354C369.651 70.73 369.819 70.052 369.819 69.32C369.819 68.588 369.651 67.916 369.315 67.304C368.991 66.692 368.547 66.206 367.983 65.846C367.431 65.474 366.825 65.288 366.165 65.288C365.493 65.288 364.881 65.474 364.329 65.846C363.777 66.218 363.333 66.71 362.997 67.322C362.661 67.934 362.493 68.618 362.493 69.374ZM377.861 65.45C377.021 65.474 376.283 65.726 375.647 66.206C375.023 66.674 374.585 67.322 374.333 68.15V74H373.433V64.64H374.297V66.944C374.621 66.284 375.053 65.75 375.593 65.342C376.133 64.922 376.703 64.682 377.303 64.622C377.423 64.61 377.531 64.604 377.627 64.604C377.723 64.604 377.801 64.604 377.861 64.604V65.45ZM380.18 60.86H381.098V72.146C381.098 72.578 381.188 72.878 381.368 73.046C381.548 73.202 381.782 73.28 382.07 73.28C382.262 73.28 382.46 73.262 382.664 73.226C382.868 73.19 383.048 73.142 383.204 73.082L383.384 73.82C383.18 73.892 382.928 73.958 382.628 74.018C382.328 74.078 382.07 74.108 381.854 74.108C381.35 74.108 380.942 73.958 380.63 73.658C380.33 73.346 380.18 72.932 380.18 72.416V60.86ZM384.532 71.3C384.532 70.736 384.7 70.25 385.036 69.842C385.372 69.422 385.834 69.098 386.422 68.87C387.01 68.63 387.688 68.51 388.456 68.51C388.936 68.51 389.434 68.552 389.95 68.636C390.466 68.72 390.928 68.834 391.336 68.978V68.096C391.336 67.232 391.084 66.542 390.58 66.026C390.088 65.51 389.404 65.252 388.528 65.252C388.06 65.252 387.574 65.348 387.07 65.54C386.566 65.732 386.05 66.008 385.522 66.368L385.144 65.72C385.756 65.312 386.344 65.006 386.908 64.802C387.484 64.586 388.054 64.478 388.618 64.478C389.734 64.478 390.616 64.808 391.264 65.468C391.912 66.128 392.236 67.028 392.236 68.168V72.812C392.236 72.956 392.266 73.064 392.326 73.136C392.398 73.208 392.5 73.25 392.632 73.262V74C392.524 74.012 392.434 74.018 392.362 74.018C392.29 74.018 392.23 74.018 392.182 74.018C391.954 73.982 391.774 73.886 391.642 73.73C391.522 73.574 391.456 73.4 391.444 73.208V72.47C391.012 73.01 390.454 73.43 389.77 73.73C389.098 74.03 388.39 74.18 387.646 74.18C387.058 74.18 386.524 74.054 386.044 73.802C385.576 73.55 385.204 73.208 384.928 72.776C384.664 72.332 384.532 71.84 384.532 71.3ZM390.976 72.074C391.096 71.918 391.186 71.768 391.246 71.624C391.306 71.48 391.336 71.348 391.336 71.228V69.68C390.904 69.512 390.454 69.386 389.986 69.302C389.518 69.218 389.038 69.176 388.546 69.176C387.61 69.176 386.848 69.362 386.26 69.734C385.684 70.106 385.396 70.61 385.396 71.246C385.396 71.642 385.498 72.008 385.702 72.344C385.906 72.68 386.188 72.95 386.548 73.154C386.92 73.358 387.346 73.46 387.826 73.46C388.498 73.46 389.116 73.334 389.68 73.082C390.256 72.818 390.688 72.482 390.976 72.074ZM388.906 62.678L388.276 62.39L389.374 60.86H390.418L388.906 62.678ZM402.282 74L398.628 68.996L396.414 71.03V74H395.514V60.86H396.414V70.022L402.12 64.658H403.146L399.24 68.456L403.272 74H402.282ZM408.41 74.18C407.666 74.18 406.976 74.054 406.34 73.802C405.704 73.55 405.146 73.166 404.666 72.65L405.08 72.02C405.596 72.512 406.118 72.872 406.646 73.1C407.174 73.316 407.75 73.424 408.374 73.424C409.178 73.424 409.826 73.256 410.318 72.92C410.822 72.584 411.074 72.116 411.074 71.516C411.074 71.108 410.954 70.796 410.714 70.58C410.486 70.352 410.15 70.172 409.706 70.04C409.274 69.896 408.746 69.746 408.122 69.59C407.486 69.422 406.946 69.248 406.502 69.068C406.07 68.888 405.746 68.654 405.53 68.366C405.314 68.078 405.206 67.688 405.206 67.196C405.206 66.584 405.356 66.08 405.656 65.684C405.968 65.276 406.382 64.976 406.898 64.784C407.426 64.58 408.008 64.478 408.644 64.478C409.376 64.478 410.012 64.598 410.552 64.838C411.104 65.078 411.524 65.396 411.812 65.792L411.326 66.368C411.026 65.984 410.636 65.702 410.156 65.522C409.676 65.33 409.148 65.234 408.572 65.234C408.14 65.234 407.732 65.294 407.348 65.414C406.964 65.534 406.652 65.732 406.412 66.008C406.184 66.272 406.07 66.632 406.07 67.088C406.07 67.448 406.154 67.73 406.322 67.934C406.502 68.138 406.766 68.306 407.114 68.438C407.462 68.558 407.894 68.69 408.41 68.834C409.142 69.014 409.772 69.2 410.3 69.392C410.828 69.584 411.236 69.836 411.524 70.148C411.812 70.448 411.956 70.874 411.956 71.426C411.956 72.278 411.632 72.95 410.984 73.442C410.336 73.934 409.478 74.18 408.41 74.18ZM422.262 74H421.362V68.78C421.362 67.628 421.164 66.764 420.768 66.188C420.372 65.6 419.796 65.306 419.04 65.306C418.548 65.306 418.056 65.432 417.564 65.684C417.072 65.936 416.646 66.284 416.286 66.728C415.926 67.16 415.668 67.652 415.512 68.204V74H414.612V60.86H415.512V66.872C415.896 66.14 416.43 65.558 417.114 65.126C417.798 64.694 418.524 64.478 419.292 64.478C419.82 64.478 420.27 64.574 420.642 64.766C421.014 64.958 421.32 65.234 421.56 65.594C421.8 65.954 421.974 66.386 422.082 66.89C422.202 67.394 422.262 67.97 422.262 68.618V74ZM429.447 74.18C428.787 74.18 428.175 74.054 427.611 73.802C427.059 73.55 426.579 73.202 426.171 72.758C425.763 72.302 425.445 71.78 425.217 71.192C424.989 70.604 424.875 69.986 424.875 69.338C424.875 68.678 424.989 68.06 425.217 67.484C425.445 66.896 425.763 66.38 426.171 65.936C426.591 65.48 427.077 65.126 427.629 64.874C428.193 64.61 428.799 64.478 429.447 64.478C430.095 64.478 430.695 64.61 431.247 64.874C431.799 65.126 432.285 65.48 432.705 65.936C433.125 66.38 433.449 66.896 433.677 67.484C433.905 68.06 434.019 68.678 434.019 69.338C434.019 69.986 433.905 70.604 433.677 71.192C433.449 71.78 433.125 72.302 432.705 72.758C432.297 73.202 431.811 73.55 431.247 73.802C430.695 74.054 430.095 74.18 429.447 74.18ZM425.775 69.374C425.775 70.106 425.937 70.778 426.261 71.39C426.597 71.99 427.041 72.47 427.593 72.83C428.145 73.19 428.757 73.37 429.429 73.37C430.101 73.37 430.713 73.19 431.265 72.83C431.829 72.458 432.273 71.966 432.597 71.354C432.933 70.73 433.101 70.052 433.101 69.32C433.101 68.588 432.933 67.916 432.597 67.304C432.273 66.692 431.829 66.206 431.265 65.846C430.713 65.474 430.107 65.288 429.447 65.288C428.775 65.288 428.163 65.474 427.611 65.846C427.059 66.218 426.615 66.71 426.279 67.322C425.943 67.934 425.775 68.618 425.775 69.374ZM427.827 62.48V60.896H428.619V62.48H427.827ZM430.275 62.48V60.896H431.067V62.48H430.275ZM436.988 74V65.378H435.674V64.64H436.988V64.334C436.988 63.578 437.096 62.924 437.312 62.372C437.528 61.82 437.834 61.4 438.23 61.112C438.626 60.824 439.094 60.68 439.634 60.68C439.994 60.68 440.342 60.734 440.678 60.842C441.014 60.95 441.29 61.094 441.506 61.274L441.182 61.922C441.026 61.778 440.822 61.67 440.57 61.598C440.318 61.514 440.06 61.472 439.796 61.472C439.184 61.472 438.71 61.718 438.374 62.21C438.05 62.69 437.888 63.392 437.888 64.316V64.64H440.552V65.378H437.888V74H436.988ZM450.495 74H449.595V68.78C449.595 67.58 449.421 66.704 449.073 66.152C448.737 65.588 448.197 65.306 447.453 65.306C446.925 65.306 446.403 65.432 445.887 65.684C445.383 65.936 444.939 66.284 444.555 66.728C444.183 67.16 443.913 67.652 443.745 68.204V74H442.845V64.64H443.691V66.872C443.943 66.392 444.279 65.978 444.699 65.63C445.119 65.27 445.587 64.988 446.103 64.784C446.619 64.58 447.153 64.478 447.705 64.478C448.221 64.478 448.653 64.574 449.001 64.766C449.361 64.946 449.649 65.21 449.865 65.558C450.093 65.906 450.255 66.338 450.351 66.854C450.447 67.37 450.495 67.958 450.495 68.618V74ZM453.558 74V72.47H454.35V74H453.558ZM462.911 74V61.22H463.829V74H462.911ZM471.29 74.18C470.642 74.18 470.036 74.054 469.472 73.802C468.908 73.538 468.416 73.184 467.996 72.74C467.576 72.284 467.246 71.762 467.006 71.174C466.778 70.586 466.664 69.956 466.664 69.284C466.664 68.384 466.862 67.574 467.258 66.854C467.654 66.134 468.2 65.558 468.896 65.126C469.592 64.694 470.384 64.478 471.272 64.478C472.124 64.478 472.874 64.676 473.522 65.072C474.17 65.456 474.656 65.984 474.98 66.656L474.098 66.944C473.822 66.428 473.426 66.026 472.91 65.738C472.406 65.438 471.848 65.288 471.236 65.288C470.552 65.288 469.934 65.462 469.382 65.81C468.83 66.158 468.386 66.638 468.05 67.25C467.726 67.85 467.564 68.528 467.564 69.284C467.564 70.028 467.732 70.712 468.068 71.336C468.404 71.96 468.848 72.458 469.4 72.83C469.964 73.19 470.582 73.37 471.254 73.37C471.686 73.37 472.106 73.292 472.514 73.136C472.934 72.968 473.294 72.752 473.594 72.488C473.906 72.224 474.11 71.942 474.206 71.642L475.088 71.894C474.932 72.338 474.662 72.734 474.278 73.082C473.894 73.418 473.444 73.688 472.928 73.892C472.424 74.084 471.878 74.18 471.29 74.18ZM481.55 74.18C480.89 74.18 480.278 74.054 479.714 73.802C479.15 73.538 478.658 73.184 478.238 72.74C477.83 72.284 477.506 71.762 477.266 71.174C477.038 70.574 476.924 69.944 476.924 69.284C476.924 68.396 477.122 67.592 477.518 66.872C477.914 66.152 478.46 65.576 479.156 65.144C479.852 64.7 480.632 64.478 481.496 64.478C482.384 64.478 483.17 64.7 483.854 65.144C484.538 65.588 485.078 66.176 485.474 66.908C485.882 67.628 486.086 68.42 486.086 69.284C486.086 69.356 486.086 69.428 486.086 69.5C486.086 69.572 486.08 69.632 486.068 69.68H477.86C477.908 70.388 478.106 71.03 478.454 71.606C478.802 72.182 479.246 72.638 479.786 72.974C480.338 73.298 480.938 73.46 481.586 73.46C482.234 73.46 482.846 73.292 483.422 72.956C483.998 72.62 484.4 72.188 484.628 71.66L485.42 71.876C485.24 72.32 484.952 72.716 484.556 73.064C484.172 73.412 483.716 73.688 483.188 73.892C482.672 74.084 482.126 74.18 481.55 74.18ZM477.824 68.978H485.222C485.174 68.246 484.982 67.598 484.646 67.034C484.31 66.47 483.866 66.026 483.314 65.702C482.774 65.378 482.174 65.216 481.514 65.216C480.854 65.216 480.254 65.378 479.714 65.702C479.174 66.026 478.736 66.47 478.4 67.034C478.064 67.598 477.872 68.246 477.824 68.978ZM488.678 60.86H489.596V72.146C489.596 72.578 489.686 72.878 489.866 73.046C490.046 73.202 490.28 73.28 490.568 73.28C490.76 73.28 490.958 73.262 491.162 73.226C491.366 73.19 491.546 73.142 491.702 73.082L491.882 73.82C491.678 73.892 491.426 73.958 491.126 74.018C490.826 74.078 490.568 74.108 490.352 74.108C489.848 74.108 489.44 73.958 489.128 73.658C488.828 73.346 488.678 72.932 488.678 72.416V60.86ZM493.031 71.3C493.031 70.736 493.199 70.25 493.535 69.842C493.871 69.422 494.333 69.098 494.921 68.87C495.509 68.63 496.187 68.51 496.955 68.51C497.435 68.51 497.933 68.552 498.449 68.636C498.965 68.72 499.427 68.834 499.835 68.978V68.096C499.835 67.232 499.583 66.542 499.079 66.026C498.587 65.51 497.903 65.252 497.027 65.252C496.559 65.252 496.073 65.348 495.569 65.54C495.065 65.732 494.549 66.008 494.021 66.368L493.643 65.72C494.255 65.312 494.843 65.006 495.407 64.802C495.983 64.586 496.553 64.478 497.117 64.478C498.233 64.478 499.115 64.808 499.763 65.468C500.411 66.128 500.735 67.028 500.735 68.168V72.812C500.735 72.956 500.765 73.064 500.825 73.136C500.897 73.208 500.999 73.25 501.131 73.262V74C501.023 74.012 500.933 74.018 500.861 74.018C500.789 74.018 500.729 74.018 500.681 74.018C500.453 73.982 500.273 73.886 500.141 73.73C500.021 73.574 499.955 73.4 499.943 73.208V72.47C499.511 73.01 498.953 73.43 498.269 73.73C497.597 74.03 496.889 74.18 496.145 74.18C495.557 74.18 495.023 74.054 494.543 73.802C494.075 73.55 493.703 73.208 493.427 72.776C493.163 72.332 493.031 71.84 493.031 71.3ZM499.475 72.074C499.595 71.918 499.685 71.768 499.745 71.624C499.805 71.48 499.835 71.348 499.835 71.228V69.68C499.403 69.512 498.953 69.386 498.485 69.302C498.017 69.218 497.537 69.176 497.045 69.176C496.109 69.176 495.347 69.362 494.759 69.734C494.183 70.106 493.895 70.61 493.895 71.246C493.895 71.642 493.997 72.008 494.201 72.344C494.405 72.68 494.687 72.95 495.047 73.154C495.419 73.358 495.845 73.46 496.325 73.46C496.997 73.46 497.615 73.334 498.179 73.082C498.755 72.818 499.187 72.482 499.475 72.074ZM511.663 74H510.763V68.78C510.763 67.58 510.589 66.704 510.241 66.152C509.905 65.588 509.365 65.306 508.621 65.306C508.093 65.306 507.571 65.432 507.055 65.684C506.551 65.936 506.107 66.284 505.723 66.728C505.351 67.16 505.081 67.652 504.913 68.204V74H504.013V64.64H504.859V66.872C505.111 66.392 505.447 65.978 505.867 65.63C506.287 65.27 506.755 64.988 507.271 64.784C507.787 64.58 508.321 64.478 508.873 64.478C509.389 64.478 509.821 64.574 510.169 64.766C510.529 64.946 510.817 65.21 511.033 65.558C511.261 65.906 511.423 66.338 511.519 66.854C511.615 67.37 511.663 67.958 511.663 68.618V74ZM514.276 69.338C514.276 68.462 514.462 67.658 514.834 66.926C515.206 66.194 515.716 65.606 516.364 65.162C517.012 64.706 517.75 64.478 518.578 64.478C519.394 64.478 520.114 64.694 520.738 65.126C521.374 65.558 521.872 66.074 522.232 66.674V60.86H523.132V72.812C523.132 72.956 523.162 73.064 523.222 73.136C523.294 73.208 523.39 73.25 523.51 73.262V74C523.318 74.024 523.174 74.03 523.078 74.018C522.862 73.982 522.682 73.88 522.538 73.712C522.394 73.544 522.322 73.364 522.322 73.172V72.128C521.938 72.752 521.422 73.25 520.774 73.622C520.126 73.994 519.46 74.18 518.776 74.18C518.128 74.18 517.528 74.048 516.976 73.784C516.424 73.508 515.944 73.142 515.536 72.686C515.14 72.23 514.828 71.714 514.6 71.138C514.384 70.562 514.276 69.962 514.276 69.338ZM522.232 70.85V67.772C522.064 67.316 521.794 66.902 521.422 66.53C521.05 66.146 520.63 65.846 520.162 65.63C519.694 65.402 519.232 65.288 518.776 65.288C518.236 65.288 517.744 65.402 517.3 65.63C516.868 65.858 516.49 66.164 516.166 66.548C515.854 66.932 515.614 67.37 515.446 67.862C515.278 68.342 515.194 68.84 515.194 69.356C515.194 69.884 515.29 70.394 515.482 70.886C515.674 71.366 515.938 71.798 516.274 72.182C516.622 72.554 517.018 72.848 517.462 73.064C517.918 73.268 518.41 73.37 518.938 73.37C519.262 73.37 519.604 73.304 519.964 73.172C520.336 73.04 520.684 72.86 521.008 72.632C521.344 72.392 521.62 72.122 521.836 71.822C522.064 71.51 522.196 71.186 522.232 70.85Z" fill="white"/>
</svg>
