<svg width="70" height="18" viewBox="0 0 70 18" fill="none" xmlns="http://www.w3.org/2000/svg">
<path d="M1.26 15V6.468H2.592L2.682 7.44C3.09 7.104 3.564 6.828 4.104 6.612C4.656 6.396 5.286 6.288 5.994 6.288C7.074 6.288 7.86 6.54 8.352 7.044C8.844 7.548 9.09 8.34 9.09 9.42V15H7.614V9.474C7.614 8.73 7.464 8.214 7.164 7.926C6.864 7.626 6.288 7.476 5.436 7.476C4.908 7.476 4.41 7.572 3.942 7.764C3.474 7.956 3.072 8.22 2.736 8.556V15H1.26ZM14.448 15.18C13.908 15.18 13.41 15.084 12.954 14.892C12.498 14.7 12.132 14.418 11.856 14.046C11.58 13.662 11.442 13.182 11.442 12.606C11.442 11.826 11.7 11.19 12.216 10.698C12.732 10.194 13.572 9.942 14.736 9.942H17.706V9.42C17.706 8.952 17.64 8.58 17.508 8.304C17.388 8.028 17.154 7.83 16.806 7.71C16.458 7.59 15.948 7.53 15.276 7.53C14.76 7.53 14.262 7.572 13.782 7.656C13.302 7.74 12.852 7.854 12.432 7.998V6.774C12.816 6.63 13.266 6.516 13.782 6.432C14.31 6.336 14.874 6.288 15.474 6.288C17.01 6.288 18.06 6.726 18.624 7.602C18.96 7.206 19.386 6.888 19.902 6.648C20.43 6.408 21.06 6.288 21.792 6.288C22.632 6.288 23.322 6.444 23.862 6.756C24.414 7.056 24.822 7.476 25.086 8.016C25.362 8.544 25.5 9.144 25.5 9.816V11.418H19.182C19.23 12.066 19.368 12.576 19.596 12.948C19.836 13.32 20.19 13.59 20.658 13.758C21.138 13.914 21.768 13.992 22.548 13.992C23.424 13.992 24.228 13.842 24.96 13.542V14.694C24.588 14.85 24.168 14.97 23.7 15.054C23.244 15.138 22.764 15.18 22.26 15.18C21.348 15.18 20.586 15.048 19.974 14.784C19.374 14.52 18.888 14.112 18.516 13.56C18.288 13.824 18.006 14.082 17.67 14.334C17.334 14.574 16.902 14.778 16.374 14.946C15.858 15.102 15.216 15.18 14.448 15.18ZM19.182 10.356H24.186V9.654C24.186 8.958 24 8.424 23.628 8.052C23.268 7.668 22.668 7.476 21.828 7.476C20.808 7.476 20.112 7.716 19.74 8.196C19.368 8.676 19.182 9.396 19.182 10.356ZM14.826 13.974C15.522 13.974 16.092 13.866 16.536 13.65C16.98 13.422 17.37 13.116 17.706 12.732V11.076H14.772C14.1 11.076 13.62 11.202 13.332 11.454C13.044 11.706 12.9 12.09 12.9 12.606C12.9 13.122 13.074 13.482 13.422 13.686C13.77 13.878 14.238 13.974 14.826 13.974ZM30.8794 15.18C30.3274 15.18 29.7994 15.144 29.2954 15.072C28.8034 15 28.3894 14.904 28.0534 14.784V13.488C28.4614 13.632 28.8874 13.74 29.3314 13.812C29.7874 13.884 30.2374 13.92 30.6814 13.92C31.4374 13.92 31.9774 13.842 32.3014 13.686C32.6254 13.518 32.7874 13.212 32.7874 12.768C32.7874 12.444 32.6974 12.198 32.5174 12.03C32.3494 11.862 32.0854 11.712 31.7254 11.58C31.3774 11.448 30.9274 11.292 30.3754 11.112C29.8834 10.944 29.4454 10.77 29.0614 10.59C28.6774 10.41 28.3774 10.17 28.1614 9.87C27.9454 9.558 27.8374 9.144 27.8374 8.628C27.8374 7.872 28.1014 7.296 28.6294 6.9C29.1574 6.492 30.0094 6.288 31.1854 6.288C31.6414 6.288 32.0794 6.324 32.4994 6.396C32.9194 6.456 33.2854 6.534 33.5974 6.63V7.926C32.8414 7.674 32.1154 7.548 31.4194 7.548C30.6754 7.548 30.1354 7.626 29.7994 7.782C29.4754 7.926 29.3134 8.202 29.3134 8.61C29.3134 8.886 29.3854 9.108 29.5294 9.276C29.6854 9.432 29.9194 9.57 30.2314 9.69C30.5554 9.798 30.9694 9.936 31.4734 10.104C32.1334 10.308 32.6674 10.518 33.0754 10.734C33.4834 10.95 33.7834 11.214 33.9754 11.526C34.1674 11.838 34.2634 12.246 34.2634 12.75C34.2634 13.59 33.9694 14.208 33.3814 14.604C32.7934 14.988 31.9594 15.18 30.8794 15.18ZM39.8143 15.18C38.9743 15.18 38.3383 14.958 37.9063 14.514C37.4863 14.058 37.2763 13.428 37.2763 12.624V7.638H35.9803V6.468H37.2763V4.362L38.7523 3.912V6.468H41.1103L41.0203 7.638H38.7523V12.552C38.7523 13.068 38.8663 13.44 39.0943 13.668C39.3343 13.884 39.7423 13.992 40.3183 13.992C40.6303 13.992 40.9723 13.932 41.3443 13.812V14.928C40.9003 15.096 40.3903 15.18 39.8143 15.18Z" fill="#455876"/>
<path d="M69.3536 10.3536C69.5488 10.1583 69.5488 9.84171 69.3536 9.64645L66.1716 6.46447C65.9763 6.2692 65.6597 6.2692 65.4645 6.46447C65.2692 6.65973 65.2692 6.97631 65.4645 7.17157L68.2929 10L65.4645 12.8284C65.2692 13.0237 65.2692 13.3403 65.4645 13.5355C65.6597 13.7308 65.9763 13.7308 66.1716 13.5355L69.3536 10.3536ZM48 10.5L69 10.5V9.5L48 9.5V10.5Z" fill="#6F4218"/>
</svg>
