<svg width="142" height="20" viewBox="0 0 142 20" fill="none" xmlns="http://www.w3.org/2000/svg">
<path d="M3.46 17.2C2.82 17.2 2.31333 17.0333 1.94 16.7C1.58 16.3533 1.4 15.7733 1.4 14.96V3.52H3.04V14.78C3.04 15.18 3.10667 15.4533 3.24 15.6C3.37333 15.7467 3.58 15.82 3.86 15.82C4.16667 15.82 4.46667 15.78 4.76 15.7V17C4.54667 17.08 4.33333 17.1333 4.12 17.16C3.90667 17.1867 3.68667 17.2 3.46 17.2ZM11.3139 17.2C9.62057 17.2 8.35391 16.7933 7.51391 15.98C6.67391 15.1667 6.25391 13.9133 6.25391 12.22C6.25391 10.7 6.61391 9.50667 7.33391 8.64C8.06724 7.76 9.22057 7.32 10.7939 7.32C11.7272 7.32 12.4939 7.49333 13.0939 7.84C13.7072 8.17333 14.1606 8.64 14.4539 9.24C14.7606 9.82667 14.9139 10.4933 14.9139 11.24V13.02H7.89391C7.94724 13.74 8.10057 14.3067 8.35391 14.72C8.62057 15.1333 9.01391 15.4333 9.53391 15.62C10.0672 15.7933 10.7672 15.88 11.6339 15.88C12.6072 15.88 13.5006 15.7133 14.3139 15.38V16.66C13.9006 16.8333 13.4339 16.9667 12.9139 17.06C12.4072 17.1533 11.8739 17.2 11.3139 17.2ZM7.89391 11.84H13.4539V11.06C13.4539 10.2867 13.2472 9.69333 12.8339 9.28C12.4339 8.85333 11.7672 8.64 10.8339 8.64C9.70057 8.64 8.92724 8.90667 8.51391 9.44C8.10057 9.97333 7.89391 10.7733 7.89391 11.84ZM20.2003 17.2C19.587 17.2 19.0003 17.16 18.4403 17.08C17.8936 17 17.4336 16.8933 17.0603 16.76V15.32C17.5136 15.48 17.987 15.6 18.4803 15.68C18.987 15.76 19.487 15.8 19.9803 15.8C20.8203 15.8 21.4203 15.7133 21.7803 15.54C22.1403 15.3533 22.3203 15.0133 22.3203 14.52C22.3203 14.16 22.2203 13.8867 22.0203 13.7C21.8336 13.5133 21.5403 13.3467 21.1403 13.2C20.7536 13.0533 20.2536 12.88 19.6403 12.68C19.0936 12.4933 18.607 12.3 18.1803 12.1C17.7536 11.9 17.4203 11.6333 17.1803 11.3C16.9403 10.9533 16.8203 10.4933 16.8203 9.92C16.8203 9.08 17.1136 8.44 17.7003 8C18.287 7.54667 19.2336 7.32 20.5403 7.32C21.047 7.32 21.5336 7.36 22.0003 7.44C22.467 7.50667 22.8736 7.59333 23.2203 7.7V9.14C22.3803 8.86 21.5736 8.72 20.8003 8.72C19.9736 8.72 19.3736 8.80667 19.0003 8.98C18.6403 9.14 18.4603 9.44667 18.4603 9.9C18.4603 10.2067 18.5403 10.4533 18.7003 10.64C18.8736 10.8133 19.1336 10.9667 19.4803 11.1C19.8403 11.22 20.3003 11.3733 20.8603 11.56C21.5936 11.7867 22.187 12.02 22.6403 12.26C23.0936 12.5 23.427 12.7933 23.6403 13.14C23.8536 13.4867 23.9603 13.94 23.9603 14.5C23.9603 15.4333 23.6336 16.12 22.9803 16.56C22.327 16.9867 21.4003 17.2 20.2003 17.2ZM29.528 17.2C28.5946 17.2 27.888 16.9533 27.408 16.46C26.9413 15.9533 26.708 15.2533 26.708 14.36V8.82H25.268V7.52H26.708V5.18L28.348 4.68V7.52H30.968L30.868 8.82H28.348V14.28C28.348 14.8533 28.4746 15.2667 28.728 15.52C28.9946 15.76 29.448 15.88 30.088 15.88C30.4346 15.88 30.8146 15.8133 31.228 15.68V16.92C30.7346 17.1067 30.168 17.2 29.528 17.2ZM36.4588 17.2C35.3254 17.2 34.4654 16.8867 33.8788 16.26C33.3054 15.6333 33.0188 14.72 33.0188 13.52V7.52H34.6587V13.58C34.6587 14.3667 34.8521 14.9467 35.2388 15.32C35.6388 15.6933 36.2521 15.88 37.0788 15.88C37.6654 15.88 38.2188 15.7733 38.7388 15.56C39.2588 15.3467 39.7054 15.0533 40.0788 14.68V7.52H41.7188V17H40.2388L40.1388 15.92C39.6854 16.2933 39.1454 16.6 38.5188 16.84C37.8921 17.08 37.2054 17.2 36.4588 17.2ZM49.1344 17V7.52H50.6144L50.7144 8.6C51.221 8.2 51.7544 7.88667 52.3144 7.66C52.8877 7.43333 53.501 7.32 54.1544 7.32C54.861 7.32 55.4077 7.43333 55.7944 7.66C56.1944 7.88667 56.4877 8.20667 56.6744 8.62C57.1277 8.24667 57.6477 7.94 58.2344 7.7C58.821 7.44667 59.521 7.32 60.3344 7.32C61.4144 7.32 62.2144 7.6 62.7344 8.16C63.2677 8.70667 63.5344 9.55333 63.5344 10.7V17H61.9144V10.86C61.9144 10.02 61.7344 9.44 61.3744 9.12C61.0277 8.8 60.461 8.64 59.6744 8.64C59.1544 8.64 58.6544 8.72667 58.1744 8.9C57.7077 9.07333 57.3077 9.34 56.9744 9.7C57.0544 10.0333 57.0944 10.42 57.0944 10.86V17H55.5544V10.9C55.5544 10.1 55.421 9.52667 55.1544 9.18C54.8877 8.82 54.361 8.64 53.5744 8.64C53.041 8.64 52.5277 8.76 52.0344 9C51.5544 9.22667 51.1277 9.51333 50.7544 9.86V17H49.1344ZM70.5913 17.2C68.8979 17.2 67.6313 16.7933 66.7913 15.98C65.9513 15.1667 65.5313 13.9133 65.5313 12.22C65.5313 10.7 65.8913 9.50667 66.6113 8.64C67.3446 7.76 68.4979 7.32 70.0713 7.32C71.0046 7.32 71.7713 7.49333 72.3713 7.84C72.9846 8.17333 73.4379 8.64 73.7313 9.24C74.0379 9.82667 74.1913 10.4933 74.1913 11.24V13.02H67.1712C67.2246 13.74 67.3779 14.3067 67.6313 14.72C67.8979 15.1333 68.2913 15.4333 68.8113 15.62C69.3446 15.7933 70.0446 15.88 70.9113 15.88C71.8846 15.88 72.7779 15.7133 73.5913 15.38V16.66C73.1779 16.8333 72.7113 16.9667 72.1913 17.06C71.6846 17.1533 71.1513 17.2 70.5913 17.2ZM67.1712 11.84H72.7313V11.06C72.7313 10.2867 72.5246 9.69333 72.1113 9.28C71.7113 8.85333 71.0446 8.64 70.1113 8.64C68.9779 8.64 68.2046 8.90667 67.7913 9.44C67.3779 9.97333 67.1712 10.7733 67.1712 11.84ZM77.1047 5.3V3.8H78.9247V5.3H77.1047ZM77.2647 17V8.82H75.8047L75.9647 7.52H78.9047V17H77.2647ZM81.732 17V7.52H83.212L83.332 8.72C83.7987 8.41333 84.3454 8.13333 84.972 7.88C85.612 7.62667 86.2387 7.44 86.852 7.32V8.6C86.4787 8.68 86.072 8.79333 85.632 8.94C85.192 9.07333 84.772 9.22667 84.372 9.4C83.972 9.57333 83.6387 9.75333 83.372 9.94V17H81.732ZM90.9806 17.2C90.3806 17.2 89.8273 17.0933 89.3206 16.88C88.814 16.6667 88.4073 16.3533 88.1006 15.94C87.794 15.5133 87.6406 14.98 87.6406 14.34C87.6406 13.4733 87.9273 12.7667 88.5006 12.22C89.074 11.66 90.0073 11.38 91.3006 11.38H94.6006V10.8C94.6006 10.28 94.5273 9.86667 94.3806 9.56C94.2473 9.25333 93.9873 9.03333 93.6006 8.9C93.214 8.76667 92.6473 8.7 91.9006 8.7C91.3273 8.7 90.774 8.74667 90.2406 8.84C89.7073 8.93333 89.2073 9.06 88.7406 9.22V7.86C89.1673 7.7 89.6673 7.57333 90.2406 7.48C90.8273 7.37333 91.454 7.32 92.1206 7.32C93.4673 7.32 94.474 7.59333 95.1406 8.14C95.8206 8.68667 96.1606 9.57333 96.1606 10.8V17H94.7806L94.6606 15.92C94.2473 16.3467 93.7473 16.6667 93.1606 16.88C92.574 17.0933 91.8473 17.2 90.9806 17.2ZM91.4006 15.86C92.094 15.86 92.7073 15.74 93.2406 15.5C93.774 15.2467 94.2273 14.9067 94.6006 14.48V12.64H91.3406C90.594 12.64 90.0606 12.78 89.7406 13.06C89.4206 13.34 89.2606 13.7667 89.2606 14.34C89.2606 14.9133 89.454 15.3133 89.8406 15.54C90.2273 15.7533 90.7473 15.86 91.4006 15.86Z" fill="#455876"/>
<path d="M141.354 13.3536C141.549 13.1583 141.549 12.8417 141.354 12.6464L138.172 9.46447C137.976 9.2692 137.66 9.2692 137.464 9.46447C137.269 9.65973 137.269 9.97631 137.464 10.1716L140.293 13L137.464 15.8284C137.269 16.0237 137.269 16.3403 137.464 16.5355C137.66 16.7308 137.976 16.7308 138.172 16.5355L141.354 13.3536ZM106 13.5L141 13.5V12.5L106 12.5V13.5Z" fill="#6F4218"/>
</svg>
