<svg width="121" height="20" viewBox="0 0 121 20" fill="none" xmlns="http://www.w3.org/2000/svg">
<path d="M6.96 18L1.056 2.544H3.768L8.4 15.192L13.032 2.544H15.744L9.888 18H6.96ZM18.6851 18V2.544H29.4611V4.584H21.3011V9.264H28.5731V11.28H21.3011V15.984H29.4611V18H18.6851ZM32.6004 18V2.544H39.7044C41.4324 2.544 42.6884 2.992 43.4724 3.888C44.2724 4.768 44.6724 5.968 44.6724 7.488C44.6724 8.576 44.4004 9.504 43.8564 10.272C43.3124 11.04 42.5284 11.576 41.5044 11.88C41.7924 12.088 42.0164 12.312 42.1764 12.552C42.3364 12.792 42.4964 13.112 42.6564 13.512L44.6004 18H41.9124L40.0164 13.68C39.8404 13.264 39.6244 12.968 39.3684 12.792C39.1284 12.616 38.7124 12.528 38.1204 12.528H35.2164V18H32.6004ZM35.2164 10.416H39.0084C39.9524 10.416 40.6964 10.184 41.2404 9.72C41.7844 9.256 42.0564 8.512 42.0564 7.488C42.0564 5.552 41.1204 4.584 39.2484 4.584H35.2164V10.416ZM47.9689 18V2.544H50.5849V9.648L57.1609 2.544H60.1849L54.4969 8.784L60.4249 18H57.6409L52.8649 10.44L50.5849 12.888V18H47.9689ZM63.6889 18V2.544H74.4649V4.584H66.3049V9.264H73.5769V11.28H66.3049V15.984H74.4649V18H63.6889ZM77.6042 18V2.544H88.1162V4.584H80.2202V9.264H87.2282V11.28H80.2202V18H77.6042ZM90.9101 18V2.544H93.2141L101.278 13.92V2.544H103.87V18H101.566L93.5261 6.648V18H90.9101ZM107.638 18V2.544H110.254V18H107.638Z" fill="#455876"/>
<rect x="117" y="14" width="4" height="4" fill="#6F4218"/>
</svg>
