<svg width="150" height="20" viewBox="0 0 150 20" fill="none" xmlns="http://www.w3.org/2000/svg">
<path d="M3.888 17.496L3.34584 18.3364L3.35555 18.3425L3.888 17.496ZM1.704 14.76L0.767159 15.1098L0.76999 15.1173L0.772943 15.1249L1.704 14.76ZM1.68 6.048L0.741593 5.70227L0.737698 5.71323L1.68 6.048ZM11.784 3.264L11.2356 4.10027L11.2419 4.1043L11.784 3.264ZM13.92 6.048L12.9776 6.38279L12.9817 6.3937L13.92 6.048ZM13.92 14.76L14.8553 15.1139L14.8568 15.1098L13.92 14.76ZM11.76 17.496L12.2925 18.3425L12.3021 18.3363L11.76 17.496ZM11.04 14.688L11.8963 15.2045L11.8999 15.1985L11.04 14.688ZM11.064 6.072L10.1983 6.5725V6.5725L11.064 6.072ZM4.56 6.072L3.70009 5.56143L3.69427 5.5715L4.56 6.072ZM4.584 14.688L3.72412 15.1986L3.72771 15.2045L4.584 14.688ZM7.824 17.432C6.30944 17.432 5.20201 17.1412 4.42045 16.6495L3.35555 18.3425C4.55799 19.0988 6.07456 19.432 7.824 19.432V17.432ZM4.43013 16.6557C3.62829 16.1384 3.02874 15.3997 2.63506 14.3951L0.772943 15.1249C1.30726 16.4883 2.16371 17.5736 3.34587 18.3363L4.43013 16.6557ZM2.64084 14.4102C2.24501 13.35 2.032 12.0425 2.032 10.464H0.032C0.032 12.2135 0.266985 13.77 0.767159 15.1098L2.64084 14.4102ZM2.032 10.464C2.032 8.81382 2.23898 7.46175 2.6223 6.38276L0.737698 5.71323C0.257022 7.06625 0.032 8.65818 0.032 10.464H2.032ZM2.61834 6.3937C2.99912 5.36016 3.59028 4.61516 4.38213 4.1043L3.29787 2.4237C2.10572 3.19283 1.25688 4.30384 0.741657 5.70229L2.61834 6.3937ZM4.38213 4.1043C5.15909 3.60303 6.2769 3.304 7.824 3.304V1.304C6.04311 1.304 4.50491 1.64497 3.29787 2.4237L4.38213 4.1043ZM7.824 3.304C9.37238 3.304 10.4781 3.60352 11.2356 4.10024L12.3324 2.42776C11.1379 1.64448 9.60362 1.304 7.824 1.304V3.304ZM11.2419 4.1043C12.0308 4.61328 12.6123 5.35428 12.9777 6.38276L14.8623 5.71323C14.3637 4.30972 13.5212 3.19472 12.3261 2.4237L11.2419 4.1043ZM12.9817 6.3937C13.3778 7.46894 13.592 8.817 13.592 10.464H15.592C15.592 8.655 15.3582 7.05906 14.8583 5.70229L12.9817 6.3937ZM13.592 10.464C13.592 12.0425 13.379 13.35 12.9832 14.4102L14.8568 15.1098C15.357 13.77 15.592 12.2135 15.592 10.464H13.592ZM12.9847 14.4061C12.6066 15.4055 12.0169 16.1402 11.2179 16.6557L12.3021 18.3363C13.4871 17.5718 14.3374 16.4825 14.8553 15.1139L12.9847 14.4061ZM11.2275 16.6495C10.446 17.1412 9.33856 17.432 7.824 17.432V19.432C9.57344 19.432 11.09 19.0988 12.2925 18.3425L11.2275 16.6495ZM7.824 17.2C9.58887 17.2 11.0523 16.6038 11.8963 15.2045L10.1837 14.1715C9.81171 14.7882 9.13113 15.2 7.824 15.2V17.2ZM11.8999 15.1985C12.6347 13.961 12.952 12.3516 12.952 10.464H10.952C10.952 12.1604 10.6613 13.367 10.1801 14.1775L11.8999 15.1985ZM12.952 10.464C12.952 8.4807 12.6479 6.81367 11.9297 5.5715L10.1983 6.5725C10.6641 7.37833 10.952 8.6393 10.952 10.464H12.952ZM11.9297 5.5715C11.1013 4.13856 9.61643 3.536 7.824 3.536V5.536C9.16757 5.536 9.84268 5.95744 10.1983 6.5725L11.9297 5.5715ZM7.824 3.536C6.03023 3.536 4.54493 4.13866 3.70015 5.56146L5.41986 6.58254C5.79107 5.95734 6.48177 5.536 7.824 5.536V3.536ZM3.69427 5.5715C2.97613 6.81367 2.672 8.4807 2.672 10.464H4.672C4.672 8.6393 4.95987 7.37833 5.42573 6.5725L3.69427 5.5715ZM2.672 10.464C2.672 12.3516 2.98935 13.961 3.72415 15.1985L5.44386 14.1775C4.96265 13.367 4.672 12.1604 4.672 10.464H2.672ZM3.72771 15.2045C4.57366 16.607 6.04808 17.2 7.824 17.2V15.2C6.49592 15.2 5.81034 14.785 5.44029 14.1715L3.72771 15.2045ZM19.4968 18.072L19.6328 17.0813L19.4968 18.072ZM17.4568 17.544H16.4568V18.1958L17.0532 18.4589L17.4568 17.544ZM17.4568 15.264L17.8507 14.3449L16.4568 13.7475V15.264H17.4568ZM24.1288 15.384L24.7143 16.1947L24.7183 16.1918L24.1288 15.384ZM24.3928 11.28L23.6725 11.9736L23.6725 11.9736L24.3928 11.28ZM17.3848 10.632H16.3848V11.632H17.3848V10.632ZM17.3848 9.048L16.3868 8.98539L16.3848 9.01666V9.048H17.3848ZM17.7928 2.544V1.544H16.8536L16.7948 2.48139L17.7928 2.544ZM26.5768 2.544L27.5711 2.65053L27.6897 1.544H26.5768V2.544ZM26.3608 4.56V5.56H27.2594L27.3551 4.66653L26.3608 4.56ZM20.0008 4.56V3.56H19.0638L19.0029 4.49505L20.0008 4.56ZM19.7368 8.616L18.7389 8.55105L18.6696 9.616H19.7368V8.616ZM26.3848 9.792L25.706 10.5263L26.3848 9.792ZM26.1688 16.92L25.5052 16.1719L26.1688 16.92ZM21.7528 17.24C21.1181 17.24 20.4122 17.1883 19.6328 17.0813L19.3608 19.0627C20.2134 19.1797 21.0115 19.24 21.7528 19.24V17.24ZM19.6328 17.0813C18.8764 16.9775 18.2935 16.8201 17.8605 16.6291L17.0532 18.4589C17.7081 18.7479 18.4852 18.9425 19.3608 19.0627L19.6328 17.0813ZM18.4568 17.544V15.264H16.4568V17.544H18.4568ZM17.0629 16.1831C17.7054 16.4585 18.421 16.6618 19.2018 16.8006L19.5518 14.8314C18.8926 14.7142 18.3282 14.5495 17.8507 14.3449L17.0629 16.1831ZM19.2018 16.8006C19.9716 16.9374 20.7105 17.008 21.4168 17.008V15.008C20.8431 15.008 20.2221 14.9506 19.5518 14.8314L19.2018 16.8006ZM21.4168 17.008C22.7216 17.008 23.8828 16.7952 24.7143 16.1947L23.5433 14.5733C23.2228 14.8048 22.576 15.008 21.4168 15.008V17.008ZM24.7183 16.1918C25.6492 15.5125 26.0168 14.4518 26.0168 13.272H24.0168C24.0168 14.0442 23.7924 14.3915 23.5393 14.5762L24.7183 16.1918ZM26.0168 13.272C26.0168 12.2431 25.7801 11.279 25.1131 10.5864L23.6725 11.9736C23.8375 12.145 24.0168 12.5089 24.0168 13.272H26.0168ZM25.1131 10.5864C24.3893 9.83467 23.1906 9.632 21.9448 9.632V11.632C23.131 11.632 23.5643 11.8613 23.6725 11.9736L25.1131 10.5864ZM21.9448 9.632H17.3848V11.632H21.9448V9.632ZM18.3848 10.632V9.048H16.3848V10.632H18.3848ZM18.3829 9.11061L18.7908 2.60661L16.7948 2.48139L16.3868 8.98539L18.3829 9.11061ZM17.7928 3.544H26.5768V1.544H17.7928V3.544ZM25.5825 2.43747L25.3665 4.45347L27.3551 4.66653L27.5711 2.65053L25.5825 2.43747ZM26.3608 3.56H20.0008V5.56H26.3608V3.56ZM19.0029 4.49505L18.7389 8.55105L20.7347 8.68095L20.9987 4.62495L19.0029 4.49505ZM19.7368 9.616H22.3528V7.616H19.7368V9.616ZM22.3528 9.616C24.0834 9.616 25.1258 9.98991 25.706 10.5263L27.0637 9.05773C25.9478 8.02609 24.3022 7.616 22.3528 7.616V9.616ZM25.706 10.5263C26.2838 11.0605 26.6568 11.9272 26.6568 13.32H28.6568C28.6568 11.5768 28.1818 10.0915 27.0637 9.05773L25.706 10.5263ZM26.6568 13.32C26.6568 14.6003 26.2509 15.5104 25.5052 16.1719L26.8324 17.6681C28.0707 16.5696 28.6568 15.0797 28.6568 13.32H26.6568ZM25.5052 16.1719C24.7659 16.8277 23.5732 17.24 21.7528 17.24V19.24C23.8364 19.24 25.5877 18.7723 26.8324 17.6681L25.5052 16.1719Z" fill="#455876"/>
<path d="M43.96 18L38.056 2.544H40.768L45.4 15.192L50.032 2.544H52.744L46.888 18H43.96ZM55.6851 18V2.544H66.4611V4.584H58.3011V9.264H65.5731V11.28H58.3011V15.984H66.4611V18H55.6851ZM69.6004 18V2.544H76.7044C78.4324 2.544 79.6884 2.992 80.4724 3.888C81.2724 4.768 81.6724 5.968 81.6724 7.488C81.6724 8.576 81.4004 9.504 80.8564 10.272C80.3124 11.04 79.5284 11.576 78.5044 11.88C78.7924 12.088 79.0164 12.312 79.1764 12.552C79.3364 12.792 79.4964 13.112 79.6564 13.512L81.6004 18H78.9124L77.0164 13.68C76.8404 13.264 76.6244 12.968 76.3684 12.792C76.1284 12.616 75.7124 12.528 75.1204 12.528H72.2164V18H69.6004ZM72.2164 10.416H76.0084C76.9524 10.416 77.6964 10.184 78.2404 9.72C78.7844 9.256 79.0564 8.512 79.0564 7.488C79.0564 5.552 78.1204 4.584 76.2484 4.584H72.2164V10.416ZM84.9689 18V2.544H87.5849V9.648L94.1609 2.544H97.1849L91.4969 8.784L97.4249 18H94.6409L89.8649 10.44L87.5849 12.888V18H84.9689ZM100.689 18V2.544H111.465V4.584H103.305V9.264H110.577V11.28H103.305V15.984H111.465V18H100.689ZM114.604 18V2.544H125.116V4.584H117.22V9.264H124.228V11.28H117.22V18H114.604ZM127.91 18V2.544H130.214L138.278 13.92V2.544H140.87V18H138.566L130.526 6.648V18H127.91ZM144.638 18V2.544H147.254V18H144.638Z" fill="#455876"/>
</svg>
