<svg width="150" height="20" viewBox="0 0 150 20" fill="none" xmlns="http://www.w3.org/2000/svg">
<path d="M3.888 17.496L3.34584 18.3364L3.35555 18.3425L3.888 17.496ZM1.704 14.76L0.767159 15.1098L0.76999 15.1173L0.772943 15.1249L1.704 14.76ZM1.68 6.048L0.741593 5.70227L0.737698 5.71323L1.68 6.048ZM11.784 3.264L11.2356 4.10027L11.2419 4.1043L11.784 3.264ZM13.92 6.048L12.9776 6.38279L12.9817 6.3937L13.92 6.048ZM13.92 14.76L14.8553 15.1139L14.8568 15.1098L13.92 14.76ZM11.76 17.496L12.2925 18.3425L12.3021 18.3363L11.76 17.496ZM11.04 14.688L11.8963 15.2045L11.8999 15.1985L11.04 14.688ZM11.064 6.072L10.1983 6.5725V6.5725L11.064 6.072ZM4.56 6.072L3.70009 5.56143L3.69427 5.5715L4.56 6.072ZM4.584 14.688L3.72412 15.1986L3.72771 15.2045L4.584 14.688ZM7.824 17.432C6.30944 17.432 5.20201 17.1412 4.42045 16.6495L3.35555 18.3425C4.55799 19.0988 6.07456 19.432 7.824 19.432V17.432ZM4.43013 16.6557C3.62829 16.1384 3.02874 15.3997 2.63506 14.3951L0.772943 15.1249C1.30726 16.4883 2.16371 17.5736 3.34587 18.3363L4.43013 16.6557ZM2.64084 14.4102C2.24501 13.35 2.032 12.0425 2.032 10.464H0.032C0.032 12.2135 0.266985 13.77 0.767159 15.1098L2.64084 14.4102ZM2.032 10.464C2.032 8.81382 2.23898 7.46175 2.6223 6.38276L0.737698 5.71323C0.257022 7.06625 0.032 8.65818 0.032 10.464H2.032ZM2.61834 6.3937C2.99912 5.36016 3.59028 4.61516 4.38213 4.1043L3.29787 2.4237C2.10572 3.19283 1.25688 4.30384 0.741657 5.70229L2.61834 6.3937ZM4.38213 4.1043C5.15909 3.60303 6.2769 3.304 7.824 3.304V1.304C6.04311 1.304 4.50491 1.64497 3.29787 2.4237L4.38213 4.1043ZM7.824 3.304C9.37238 3.304 10.4781 3.60352 11.2356 4.10024L12.3324 2.42776C11.1379 1.64448 9.60362 1.304 7.824 1.304V3.304ZM11.2419 4.1043C12.0308 4.61328 12.6123 5.35428 12.9777 6.38276L14.8623 5.71323C14.3637 4.30972 13.5212 3.19472 12.3261 2.4237L11.2419 4.1043ZM12.9817 6.3937C13.3778 7.46894 13.592 8.817 13.592 10.464H15.592C15.592 8.655 15.3582 7.05906 14.8583 5.70229L12.9817 6.3937ZM13.592 10.464C13.592 12.0425 13.379 13.35 12.9832 14.4102L14.8568 15.1098C15.357 13.77 15.592 12.2135 15.592 10.464H13.592ZM12.9847 14.4061C12.6066 15.4055 12.0169 16.1402 11.2179 16.6557L12.3021 18.3363C13.4871 17.5718 14.3374 16.4825 14.8553 15.1139L12.9847 14.4061ZM11.2275 16.6495C10.446 17.1412 9.33856 17.432 7.824 17.432V19.432C9.57344 19.432 11.09 19.0988 12.2925 18.3425L11.2275 16.6495ZM7.824 17.2C9.58887 17.2 11.0523 16.6038 11.8963 15.2045L10.1837 14.1715C9.81171 14.7882 9.13113 15.2 7.824 15.2V17.2ZM11.8999 15.1985C12.6347 13.961 12.952 12.3516 12.952 10.464H10.952C10.952 12.1604 10.6613 13.367 10.1801 14.1775L11.8999 15.1985ZM12.952 10.464C12.952 8.4807 12.6479 6.81367 11.9297 5.5715L10.1983 6.5725C10.6641 7.37833 10.952 8.6393 10.952 10.464H12.952ZM11.9297 5.5715C11.1013 4.13856 9.61643 3.536 7.824 3.536V5.536C9.16757 5.536 9.84268 5.95744 10.1983 6.5725L11.9297 5.5715ZM7.824 3.536C6.03023 3.536 4.54493 4.13866 3.70015 5.56146L5.41986 6.58254C5.79107 5.95734 6.48177 5.536 7.824 5.536V3.536ZM3.69427 5.5715C2.97613 6.81367 2.672 8.4807 2.672 10.464H4.672C4.672 8.6393 4.95987 7.37833 5.42573 6.5725L3.69427 5.5715ZM2.672 10.464C2.672 12.3516 2.98935 13.961 3.72415 15.1985L5.44386 14.1775C4.96265 13.367 4.672 12.1604 4.672 10.464H2.672ZM3.72771 15.2045C4.57366 16.607 6.04808 17.2 7.824 17.2V15.2C6.49592 15.2 5.81034 14.785 5.44029 14.1715L3.72771 15.2045ZM20.2408 18.144L20.3544 17.1505L20.3403 17.1489L20.3262 17.1477L20.2408 18.144ZM18.6328 17.904L18.4125 18.8795L18.4191 18.8809L18.6328 17.904ZM17.3848 17.544H16.3848V18.2332L17.0288 18.4785L17.3848 17.544ZM17.3848 15.264L17.7562 14.3355L16.3848 13.787V15.264H17.3848ZM19.3528 15.84L19.1657 16.8223L19.1789 16.8249L19.1921 16.827L19.3528 15.84ZM24.2008 15.456L24.7186 16.3115L24.2008 15.456ZM24.2728 11.712L23.7125 12.5404L23.7236 12.5477L24.2728 11.712ZM19.5928 11.16L18.5989 11.0496L18.4755 12.16H19.5928V11.16ZM19.8088 9.216V8.216H18.9138L18.8149 9.10557L19.8088 9.216ZM23.9848 5.088L23.413 5.90848L23.4245 5.91628L23.9848 5.088ZM19.4248 4.728L19.2377 3.74565L19.2333 3.74651L19.4248 4.728ZM17.6728 5.256H16.6728V6.78502L18.0736 6.17216L17.6728 5.256ZM17.6728 3.024L17.3014 2.09552L16.6728 2.34697V3.024H17.6728ZM19.5448 2.52L19.3605 1.53713L19.5448 2.52ZM26.0248 3.504L25.3654 4.25579L25.3719 4.26141L26.0248 3.504ZM26.8408 8.736L25.9726 8.23986L25.9681 8.24773L25.9637 8.25569L26.8408 8.736ZM25.0888 10.176L24.7501 9.23511L21.7011 10.3328L24.8384 11.1441L25.0888 10.176ZM27.1048 11.472L26.2728 12.0267L26.2776 12.034L26.2826 12.0412L27.1048 11.472ZM26.1208 17.136L26.6812 17.9643L26.6894 17.9586L26.1208 17.136ZM21.7768 17.24C21.3578 17.24 20.8843 17.211 20.3544 17.1505L20.1273 19.1375C20.7173 19.205 21.2679 19.24 21.7768 19.24V17.24ZM20.3262 17.1477C19.8063 17.1031 19.3133 17.0292 18.8465 16.9271L18.4191 18.8809C18.9763 19.0028 19.5553 19.0889 20.1554 19.1403L20.3262 17.1477ZM18.8531 16.9286C18.386 16.8231 18.0187 16.7154 17.7408 16.6095L17.0288 18.4785C17.423 18.6286 17.8877 18.7609 18.4126 18.8794L18.8531 16.9286ZM18.3848 17.544V15.264H16.3848V17.544H18.3848ZM17.0134 16.1925C17.7125 16.4721 18.4302 16.6822 19.1657 16.8223L19.5399 14.8577C18.9314 14.7418 18.3371 14.5679 17.7562 14.3355L17.0134 16.1925ZM19.1921 16.827C19.9326 16.9475 20.6743 17.008 21.4168 17.008V15.008C20.7833 15.008 20.1491 14.9565 19.5135 14.853L19.1921 16.827ZM21.4168 17.008C22.7272 17.008 23.8764 16.8212 24.7186 16.3115L23.683 14.6005C23.3092 14.8268 22.6024 15.008 21.4168 15.008V17.008ZM24.7186 16.3115C25.7171 15.7072 26.1128 14.6683 26.1128 13.512H24.1128C24.1128 14.2117 23.9005 14.4688 23.683 14.6005L24.7186 16.3115ZM26.1128 13.512C26.1128 12.436 25.7329 11.4749 24.822 10.8763L23.7236 12.5477C23.9327 12.6851 24.1128 12.924 24.1128 13.512H26.1128ZM24.8331 10.8837C24.0549 10.3573 23.0412 10.16 21.9208 10.16V12.16C22.8484 12.16 23.4027 12.3307 23.7125 12.5403L24.8331 10.8837ZM21.9208 10.16H19.5928V12.16H21.9208V10.16ZM20.5867 11.2704L20.8027 9.32643L18.8149 9.10557L18.5989 11.0496L20.5867 11.2704ZM19.8088 10.216H21.7528V8.216H19.8088V10.216ZM21.7528 10.216C22.8729 10.216 23.8975 10.0001 24.6575 9.40167C25.463 8.76742 25.8008 7.84226 25.8008 6.816H23.8008C23.8008 7.38974 23.6307 7.66458 23.4202 7.83033C23.1641 8.03192 22.6647 8.216 21.7528 8.216V10.216ZM25.8008 6.816C25.8008 5.77384 25.42 4.85157 24.5451 4.25972L23.4245 5.91628C23.6376 6.06043 23.8008 6.29016 23.8008 6.816H25.8008ZM24.5566 4.2676C23.7705 3.71968 22.657 3.536 21.4168 3.536V5.536C22.5447 5.536 23.1432 5.72032 23.413 5.9084L24.5566 4.2676ZM21.4168 3.536C20.6954 3.536 19.9687 3.60641 19.2377 3.74566L19.6119 5.71034C20.2249 5.59359 20.8262 5.536 21.4168 5.536V3.536ZM19.2333 3.74651C18.5189 3.88591 17.8627 4.0814 17.272 4.33984L18.0736 6.17216C18.5069 5.9826 19.0187 5.82609 19.6163 5.70949L19.2333 3.74651ZM18.6728 5.256V3.024H16.6728V5.256H18.6728ZM18.0442 3.95248C18.4415 3.79356 18.9962 3.6403 19.7291 3.50287L19.3605 1.53713C18.5574 1.6877 17.8641 1.87044 17.3014 2.09552L18.0442 3.95248ZM19.7291 3.50287C20.4387 3.36982 21.137 3.304 21.8248 3.304V1.304C21.0086 1.304 20.1869 1.38218 19.3605 1.53713L19.7291 3.50287ZM21.8248 3.304C23.5991 3.304 24.7137 3.68414 25.3654 4.25576L26.6842 2.75224C25.5119 1.72385 23.8265 1.304 21.8248 1.304V3.304ZM25.3719 4.26141C26.0749 4.86742 26.4168 5.61272 26.4168 6.576H28.4168C28.4168 5.04328 27.8308 3.74057 26.6778 2.74659L25.3719 4.26141ZM26.4168 6.576C26.4168 7.16855 26.2709 7.71772 25.9726 8.23986L27.7091 9.23214C28.1787 8.41028 28.4168 7.51944 28.4168 6.576H26.4168ZM25.9637 8.25569C25.7261 8.6896 25.3476 9.02002 24.7501 9.23511L25.4275 11.1169C26.4301 10.756 27.2195 10.1264 27.7179 9.21631L25.9637 8.25569ZM24.8384 11.1441C25.5966 11.3402 26.0278 11.6593 26.2728 12.0267L27.9369 10.9173C27.3498 10.0367 26.437 9.49178 25.3392 9.20785L24.8384 11.1441ZM26.2826 12.0412C26.5855 12.4786 26.7528 13.0106 26.7528 13.68H28.7528C28.7528 12.6534 28.4882 11.7134 27.927 10.9028L26.2826 12.0412ZM26.7528 13.68C26.7528 14.9691 26.3203 15.7825 25.5522 16.3134L26.6894 17.9586C28.0973 16.9855 28.7528 15.4949 28.7528 13.68H26.7528ZM25.5605 16.3077C24.6895 16.8969 23.4581 17.24 21.7768 17.24V19.24C23.7116 19.24 25.3761 18.8471 26.6811 17.9643L25.5605 16.3077Z" fill="#455876"/>
<path d="M43.96 18L38.056 2.544H40.768L45.4 15.192L50.032 2.544H52.744L46.888 18H43.96ZM55.6851 18V2.544H66.4611V4.584H58.3011V9.264H65.5731V11.28H58.3011V15.984H66.4611V18H55.6851ZM69.6004 18V2.544H76.7044C78.4324 2.544 79.6884 2.992 80.4724 3.888C81.2724 4.768 81.6724 5.968 81.6724 7.488C81.6724 8.576 81.4004 9.504 80.8564 10.272C80.3124 11.04 79.5284 11.576 78.5044 11.88C78.7924 12.088 79.0164 12.312 79.1764 12.552C79.3364 12.792 79.4964 13.112 79.6564 13.512L81.6004 18H78.9124L77.0164 13.68C76.8404 13.264 76.6244 12.968 76.3684 12.792C76.1284 12.616 75.7124 12.528 75.1204 12.528H72.2164V18H69.6004ZM72.2164 10.416H76.0084C76.9524 10.416 77.6964 10.184 78.2404 9.72C78.7844 9.256 79.0564 8.512 79.0564 7.488C79.0564 5.552 78.1204 4.584 76.2484 4.584H72.2164V10.416ZM84.9689 18V2.544H87.5849V9.648L94.1609 2.544H97.1849L91.4969 8.784L97.4249 18H94.6409L89.8649 10.44L87.5849 12.888V18H84.9689ZM100.689 18V2.544H111.465V4.584H103.305V9.264H110.577V11.28H103.305V15.984H111.465V18H100.689ZM114.604 18V2.544H125.116V4.584H117.22V9.264H124.228V11.28H117.22V18H114.604ZM127.91 18V2.544H130.214L138.278 13.92V2.544H140.87V18H138.566L130.526 6.648V18H127.91ZM144.638 18V2.544H147.254V18H144.638Z" fill="#455876"/>
</svg>
