<svg width="150" height="20" viewBox="0 0 150 20" fill="none" xmlns="http://www.w3.org/2000/svg">
<path d="M3.888 17.496L3.34584 18.3364L3.35555 18.3425L3.888 17.496ZM1.704 14.76L0.767159 15.1098L0.76999 15.1173L0.772943 15.1249L1.704 14.76ZM1.68 6.048L0.741593 5.70227L0.737698 5.71323L1.68 6.048ZM11.784 3.264L11.2356 4.10027L11.2419 4.1043L11.784 3.264ZM13.92 6.048L12.9776 6.38279L12.9817 6.3937L13.92 6.048ZM13.92 14.76L14.8553 15.1139L14.8568 15.1098L13.92 14.76ZM11.76 17.496L12.2925 18.3425L12.3021 18.3363L11.76 17.496ZM11.04 14.688L11.8963 15.2045L11.8999 15.1985L11.04 14.688ZM11.064 6.072L10.1983 6.5725V6.5725L11.064 6.072ZM4.56 6.072L3.70009 5.56143L3.69427 5.5715L4.56 6.072ZM4.584 14.688L3.72412 15.1986L3.72771 15.2045L4.584 14.688ZM7.824 17.432C6.30944 17.432 5.20201 17.1412 4.42045 16.6495L3.35555 18.3425C4.55799 19.0988 6.07456 19.432 7.824 19.432V17.432ZM4.43013 16.6557C3.62829 16.1384 3.02874 15.3997 2.63506 14.3951L0.772943 15.1249C1.30726 16.4883 2.16371 17.5736 3.34587 18.3363L4.43013 16.6557ZM2.64084 14.4102C2.24501 13.35 2.032 12.0425 2.032 10.464H0.032C0.032 12.2135 0.266985 13.77 0.767159 15.1098L2.64084 14.4102ZM2.032 10.464C2.032 8.81382 2.23898 7.46175 2.6223 6.38276L0.737698 5.71323C0.257022 7.06625 0.032 8.65818 0.032 10.464H2.032ZM2.61834 6.3937C2.99912 5.36016 3.59028 4.61516 4.38213 4.1043L3.29787 2.4237C2.10572 3.19283 1.25688 4.30384 0.741657 5.70229L2.61834 6.3937ZM4.38213 4.1043C5.15909 3.60303 6.2769 3.304 7.824 3.304V1.304C6.04311 1.304 4.50491 1.64497 3.29787 2.4237L4.38213 4.1043ZM7.824 3.304C9.37238 3.304 10.4781 3.60352 11.2356 4.10024L12.3324 2.42776C11.1379 1.64448 9.60362 1.304 7.824 1.304V3.304ZM11.2419 4.1043C12.0308 4.61328 12.6123 5.35428 12.9777 6.38276L14.8623 5.71323C14.3637 4.30972 13.5212 3.19472 12.3261 2.4237L11.2419 4.1043ZM12.9817 6.3937C13.3778 7.46894 13.592 8.817 13.592 10.464H15.592C15.592 8.655 15.3582 7.05906 14.8583 5.70229L12.9817 6.3937ZM13.592 10.464C13.592 12.0425 13.379 13.35 12.9832 14.4102L14.8568 15.1098C15.357 13.77 15.592 12.2135 15.592 10.464H13.592ZM12.9847 14.4061C12.6066 15.4055 12.0169 16.1402 11.2179 16.6557L12.3021 18.3363C13.4871 17.5718 14.3374 16.4825 14.8553 15.1139L12.9847 14.4061ZM11.2275 16.6495C10.446 17.1412 9.33856 17.432 7.824 17.432V19.432C9.57344 19.432 11.09 19.0988 12.2925 18.3425L11.2275 16.6495ZM7.824 17.2C9.58887 17.2 11.0523 16.6038 11.8963 15.2045L10.1837 14.1715C9.81171 14.7882 9.13113 15.2 7.824 15.2V17.2ZM11.8999 15.1985C12.6347 13.961 12.952 12.3516 12.952 10.464H10.952C10.952 12.1604 10.6613 13.367 10.1801 14.1775L11.8999 15.1985ZM12.952 10.464C12.952 8.4807 12.6479 6.81367 11.9297 5.5715L10.1983 6.5725C10.6641 7.37833 10.952 8.6393 10.952 10.464H12.952ZM11.9297 5.5715C11.1013 4.13856 9.61643 3.536 7.824 3.536V5.536C9.16757 5.536 9.84268 5.95744 10.1983 6.5725L11.9297 5.5715ZM7.824 3.536C6.03023 3.536 4.54493 4.13866 3.70015 5.56146L5.41986 6.58254C5.79107 5.95734 6.48177 5.536 7.824 5.536V3.536ZM3.69427 5.5715C2.97613 6.81367 2.672 8.4807 2.672 10.464H4.672C4.672 8.6393 4.95987 7.37833 5.42573 6.5725L3.69427 5.5715ZM2.672 10.464C2.672 12.3516 2.98935 13.961 3.72415 15.1985L5.44386 14.1775C4.96265 13.367 4.672 12.1604 4.672 10.464H2.672ZM3.72771 15.2045C4.57366 16.607 6.04808 17.2 7.824 17.2V15.2C6.49592 15.2 5.81034 14.785 5.44029 14.1715L3.72771 15.2045ZM18.0808 11.472L17.2607 10.8998L17.2562 10.9063L17.2517 10.9129L18.0808 11.472ZM20.1208 10.008L20.4319 10.9584L23.121 10.0783L20.476 9.07322L20.1208 10.008ZM18.3688 8.664L17.5133 9.18184L17.5195 9.19193L18.3688 8.664ZM19.1848 3.528L19.8442 4.27976L19.8451 4.27897L19.1848 3.528ZM27.7048 3.528L27.0315 4.26738L27.0388 4.27394L27.7048 3.528ZM28.4968 8.784L27.6299 8.28551L27.6258 8.29268L28.4968 8.784ZM26.6248 10.224L26.2737 9.28767L23.4545 10.3449L26.346 11.1843L26.6248 10.224ZM28.7848 11.568L27.9797 12.1612L27.9874 12.1714L28.7848 11.568ZM24.0808 9.408L23.8874 10.3891L24.1088 10.4328L24.3275 10.3771L24.0808 9.408ZM26.0008 8.496L25.3225 7.7612L25.3153 7.76783L25.3083 7.77461L26.0008 8.496ZM21.0568 4.944L21.6335 5.76097L21.0568 4.944ZM22.3768 9.072L22.5703 8.09087L22.5644 8.08976L22.3768 9.072ZM26.1208 15.624L26.665 16.463L26.6704 16.4594L26.1208 15.624ZM26.3848 12.144L25.7389 12.9074L25.7546 12.9207L25.7709 12.9334L26.3848 12.144ZM24.4408 11.352L24.2378 12.3312L24.2447 12.3326L24.4408 11.352ZM22.4728 10.944L22.6758 9.96482L22.4687 9.92189L22.262 9.96648L22.4728 10.944ZM20.5288 11.832L21.169 12.6002L21.1764 12.594L21.1837 12.5877L20.5288 11.832ZM20.7208 15.624L20.1712 16.4594L20.1838 16.4677L20.1967 16.4757L20.7208 15.624ZM23.4328 17.24C21.5089 17.24 20.2468 16.8835 19.4865 16.3284C18.7847 15.816 18.3848 15.0418 18.3848 13.824H16.3848C16.3848 15.5502 16.9929 16.984 18.3071 17.9436C19.5628 18.8605 21.3248 19.24 23.4328 19.24V17.24ZM18.3848 13.824C18.3848 13.1306 18.5642 12.5437 18.9099 12.0311L17.2517 10.9129C16.6694 11.7763 16.3848 12.7574 16.3848 13.824H18.3848ZM18.9009 12.0442C19.2438 11.5527 19.7355 11.1863 20.4319 10.9584L19.8098 9.0576C18.7461 9.40571 17.8778 10.0153 17.2607 10.8998L18.9009 12.0442ZM20.476 9.07322C19.8331 8.82891 19.4461 8.50284 19.2181 8.13607L17.5195 9.19193C18.0275 10.0092 18.8085 10.5791 19.7656 10.9428L20.476 9.07322ZM19.2243 8.1462C18.9476 7.68897 18.8168 7.21923 18.8168 6.72H16.8168C16.8168 7.59677 17.0541 8.42303 17.5133 9.1818L19.2243 8.1462ZM18.8168 6.72C18.8168 5.64929 19.1707 4.87057 19.8442 4.27976L18.5254 2.77624C17.3749 3.78542 16.8168 5.13471 16.8168 6.72H18.8168ZM19.8451 4.27897C20.5141 3.69076 21.6457 3.304 23.4328 3.304V1.304C21.4119 1.304 19.7115 1.73324 18.5245 2.77703L19.8451 4.27897ZM23.4328 3.304C25.2797 3.304 26.4038 3.69574 27.0315 4.26734L28.3781 2.78866C27.2138 1.72826 25.4899 1.304 23.4328 1.304V3.304ZM27.0388 4.27394C27.6985 4.86292 28.0488 5.64325 28.0488 6.72H30.0488C30.0488 5.14075 29.5032 3.79308 28.3708 2.78206L27.0388 4.27394ZM28.0488 6.72C28.0488 7.2805 27.911 7.79669 27.6299 8.28553L29.3637 9.28247C29.8186 8.49131 30.0488 7.6315 30.0488 6.72H28.0488ZM27.6258 8.29268C27.4232 8.65187 27.0239 9.00635 26.2737 9.28767L26.9759 11.1603C28.0177 10.7697 28.8664 10.1641 29.3678 9.27532L27.6258 8.29268ZM26.346 11.1843C27.2036 11.4333 27.7025 11.785 27.9798 12.1612L29.5899 10.9748C28.9711 10.135 28.0301 9.59068 26.9036 9.26365L26.346 11.1843ZM27.9874 12.1714C28.2763 12.5531 28.4568 13.079 28.4568 13.824H30.4568C30.4568 12.745 30.1894 11.7669 29.5822 10.9646L27.9874 12.1714ZM28.4568 13.824C28.4568 15.0433 28.0577 15.8177 27.3596 16.3295C26.6036 16.8837 25.3482 17.24 23.4328 17.24V19.24C25.5335 19.24 27.2901 18.8603 28.542 17.9425C29.8519 16.9823 30.4568 15.5487 30.4568 13.824H28.4568ZM24.3275 10.3771C25.2797 10.1347 26.113 9.77453 26.6933 9.21739L25.3083 7.77461C25.0886 7.98547 24.6419 8.23329 23.8341 8.4389L24.3275 10.3771ZM26.6791 9.2308C27.3655 8.59717 27.6248 7.71161 27.6248 6.768H25.6248C25.6248 7.36038 25.4681 7.62683 25.3225 7.7612L26.6791 9.2308ZM27.6248 6.768C27.6248 5.72495 27.263 4.79671 26.4278 4.16872C25.6462 3.58109 24.5934 3.368 23.4328 3.368V5.368C24.4003 5.368 24.9434 5.5549 25.2259 5.76728C25.4546 5.93929 25.6248 6.21105 25.6248 6.768H27.6248ZM23.4328 3.368C22.2941 3.368 21.2635 3.57406 20.4801 4.12703L21.6335 5.76097C21.9381 5.54594 22.4916 5.368 23.4328 5.368V3.368ZM20.4801 4.12703C19.6042 4.74534 19.2408 5.702 19.2408 6.768H21.2408C21.2408 6.16999 21.4214 5.91066 21.6335 5.76097L20.4801 4.12703ZM19.2408 6.768C19.2408 7.59703 19.4799 8.36617 20.0415 8.97186C20.5888 9.56228 21.3464 9.89326 22.1892 10.0542L22.5644 8.08976C21.9832 7.97874 21.6728 7.78972 21.5082 7.61213C21.3577 7.44983 21.2408 7.20297 21.2408 6.768H19.2408ZM22.1834 10.0531L23.8874 10.3891L24.2743 8.42689L22.5703 8.09089L22.1834 10.0531ZM23.4328 17.2C24.7057 17.2 25.8332 17.0025 26.665 16.463L25.5766 14.785C25.2244 15.0135 24.5599 15.2 23.4328 15.2V17.2ZM26.6704 16.4594C27.6036 15.8455 28.0328 14.8882 28.0328 13.776H26.0328C26.0328 14.3278 25.854 14.6025 25.5712 14.7886L26.6704 16.4594ZM28.0328 13.776C28.0328 12.8384 27.7573 11.9446 26.9988 11.3546L25.7709 12.9334C25.8763 13.0154 26.0328 13.2096 26.0328 13.776H28.0328ZM27.0308 11.3806C26.4275 10.8702 25.5875 10.5615 24.6369 10.3714L24.2447 12.3326C25.0541 12.4945 25.5101 12.7138 25.7389 12.9074L27.0308 11.3806ZM24.6438 10.3728L22.6758 9.96482L22.2698 11.9232L24.2378 12.3312L24.6438 10.3728ZM22.262 9.96648C21.3316 10.1671 20.5146 10.521 19.8739 11.0763L21.1837 12.5877C21.503 12.311 21.982 12.0729 22.6836 11.9215L22.262 9.96648ZM19.8886 11.0638C19.1026 11.7188 18.8088 12.6866 18.8088 13.728H20.8088C20.8088 13.0414 20.9951 12.7452 21.169 12.6002L19.8886 11.0638ZM18.8088 13.728C18.8088 14.8557 19.2262 15.8377 20.1712 16.4594L21.2704 14.7886C20.9994 14.6103 20.8088 14.3283 20.8088 13.728H18.8088ZM20.1967 16.4757C21.0476 16.9993 22.1667 17.2 23.4328 17.2V15.2C22.3309 15.2 21.6421 15.0167 21.2449 14.7723L20.1967 16.4757Z" fill="#455876"/>
<path d="M43.96 18L38.056 2.544H40.768L45.4 15.192L50.032 2.544H52.744L46.888 18H43.96ZM55.6851 18V2.544H66.4611V4.584H58.3011V9.264H65.5731V11.28H58.3011V15.984H66.4611V18H55.6851ZM69.6004 18V2.544H76.7044C78.4324 2.544 79.6884 2.992 80.4724 3.888C81.2724 4.768 81.6724 5.968 81.6724 7.488C81.6724 8.576 81.4004 9.504 80.8564 10.272C80.3124 11.04 79.5284 11.576 78.5044 11.88C78.7924 12.088 79.0164 12.312 79.1764 12.552C79.3364 12.792 79.4964 13.112 79.6564 13.512L81.6004 18H78.9124L77.0164 13.68C76.8404 13.264 76.6244 12.968 76.3684 12.792C76.1284 12.616 75.7124 12.528 75.1204 12.528H72.2164V18H69.6004ZM72.2164 10.416H76.0084C76.9524 10.416 77.6964 10.184 78.2404 9.72C78.7844 9.256 79.0564 8.512 79.0564 7.488C79.0564 5.552 78.1204 4.584 76.2484 4.584H72.2164V10.416ZM84.9689 18V2.544H87.5849V9.648L94.1609 2.544H97.1849L91.4969 8.784L97.4249 18H94.6409L89.8649 10.44L87.5849 12.888V18H84.9689ZM100.689 18V2.544H111.465V4.584H103.305V9.264H110.577V11.28H103.305V15.984H111.465V18H100.689ZM114.604 18V2.544H125.116V4.584H117.22V9.264H124.228V11.28H117.22V18H114.604ZM127.91 18V2.544H130.214L138.278 13.92V2.544H140.87V18H138.566L130.526 6.648V18H127.91ZM144.638 18V2.544H147.254V18H144.638Z" fill="#455876"/>
</svg>
