<svg width="155" height="20" viewBox="0 0 155 20" fill="none" xmlns="http://www.w3.org/2000/svg">
<path d="M3.888 17.496L3.34584 18.3364L3.35555 18.3425L3.888 17.496ZM1.704 14.76L0.767159 15.1098L0.76999 15.1173L0.772943 15.1249L1.704 14.76ZM1.68 6.048L0.741593 5.70227L0.737698 5.71323L1.68 6.048ZM11.784 3.264L11.2356 4.10027L11.2419 4.1043L11.784 3.264ZM13.92 6.048L12.9776 6.38279L12.9817 6.3937L13.92 6.048ZM13.92 14.76L14.8553 15.1139L14.8568 15.1098L13.92 14.76ZM11.76 17.496L12.2925 18.3425L12.3021 18.3363L11.76 17.496ZM11.04 14.688L11.8963 15.2045L11.8999 15.1985L11.04 14.688ZM11.064 6.072L10.1983 6.5725V6.5725L11.064 6.072ZM4.56 6.072L3.70009 5.56143L3.69427 5.5715L4.56 6.072ZM4.584 14.688L3.72412 15.1986L3.72771 15.2045L4.584 14.688ZM7.824 17.432C6.30944 17.432 5.20201 17.1412 4.42045 16.6495L3.35555 18.3425C4.55799 19.0988 6.07456 19.432 7.824 19.432V17.432ZM4.43013 16.6557C3.62829 16.1384 3.02874 15.3997 2.63506 14.3951L0.772943 15.1249C1.30726 16.4883 2.16371 17.5736 3.34587 18.3363L4.43013 16.6557ZM2.64084 14.4102C2.24501 13.35 2.032 12.0425 2.032 10.464H0.032C0.032 12.2135 0.266985 13.77 0.767159 15.1098L2.64084 14.4102ZM2.032 10.464C2.032 8.81382 2.23898 7.46175 2.6223 6.38276L0.737698 5.71323C0.257022 7.06625 0.032 8.65818 0.032 10.464H2.032ZM2.61834 6.3937C2.99912 5.36016 3.59028 4.61516 4.38213 4.1043L3.29787 2.4237C2.10572 3.19283 1.25688 4.30384 0.741657 5.70229L2.61834 6.3937ZM4.38213 4.1043C5.15909 3.60303 6.2769 3.304 7.824 3.304V1.304C6.04311 1.304 4.50491 1.64497 3.29787 2.4237L4.38213 4.1043ZM7.824 3.304C9.37238 3.304 10.4781 3.60352 11.2356 4.10024L12.3324 2.42776C11.1379 1.64448 9.60362 1.304 7.824 1.304V3.304ZM11.2419 4.1043C12.0308 4.61328 12.6123 5.35428 12.9777 6.38276L14.8623 5.71323C14.3637 4.30972 13.5212 3.19472 12.3261 2.4237L11.2419 4.1043ZM12.9817 6.3937C13.3778 7.46894 13.592 8.817 13.592 10.464H15.592C15.592 8.655 15.3582 7.05906 14.8583 5.70229L12.9817 6.3937ZM13.592 10.464C13.592 12.0425 13.379 13.35 12.9832 14.4102L14.8568 15.1098C15.357 13.77 15.592 12.2135 15.592 10.464H13.592ZM12.9847 14.4061C12.6066 15.4055 12.0169 16.1402 11.2179 16.6557L12.3021 18.3363C13.4871 17.5718 14.3374 16.4825 14.8553 15.1139L12.9847 14.4061ZM11.2275 16.6495C10.446 17.1412 9.33856 17.432 7.824 17.432V19.432C9.57344 19.432 11.09 19.0988 12.2925 18.3425L11.2275 16.6495ZM7.824 17.2C9.58887 17.2 11.0523 16.6038 11.8963 15.2045L10.1837 14.1715C9.81171 14.7882 9.13113 15.2 7.824 15.2V17.2ZM11.8999 15.1985C12.6347 13.961 12.952 12.3516 12.952 10.464H10.952C10.952 12.1604 10.6613 13.367 10.1801 14.1775L11.8999 15.1985ZM12.952 10.464C12.952 8.4807 12.6479 6.81367 11.9297 5.5715L10.1983 6.5725C10.6641 7.37833 10.952 8.6393 10.952 10.464H12.952ZM11.9297 5.5715C11.1013 4.13856 9.61643 3.536 7.824 3.536V5.536C9.16757 5.536 9.84268 5.95744 10.1983 6.5725L11.9297 5.5715ZM7.824 3.536C6.03023 3.536 4.54493 4.13866 3.70015 5.56146L5.41986 6.58254C5.79107 5.95734 6.48177 5.536 7.824 5.536V3.536ZM3.69427 5.5715C2.97613 6.81367 2.672 8.4807 2.672 10.464H4.672C4.672 8.6393 4.95987 7.37833 5.42573 6.5725L3.69427 5.5715ZM2.672 10.464C2.672 12.3516 2.98935 13.961 3.72415 15.1985L5.44386 14.1775C4.96265 13.367 4.672 12.1604 4.672 10.464H2.672ZM3.72771 15.2045C4.57366 16.607 6.04808 17.2 7.824 17.2V15.2C6.49592 15.2 5.81034 14.785 5.44029 14.1715L3.72771 15.2045ZM19.8808 18H18.8808V19H19.8808V18ZM19.8808 4.848H20.8808V3.66005L19.7103 3.86265L19.8808 4.848ZM17.3848 5.28H16.3848V6.46794L17.5554 6.26535L17.3848 5.28ZM17.3848 3.096L17.231 2.1079L16.3848 2.23962V3.096H17.3848ZM22.4728 2.304H23.4728V1.1363L22.319 1.3159L22.4728 2.304ZM22.4728 18V19H23.4728V18H22.4728ZM20.8808 18V4.848H18.8808V18H20.8808ZM19.7103 3.86265L17.2143 4.29465L17.5554 6.26535L20.0514 5.83335L19.7103 3.86265ZM18.3848 5.28V3.096H16.3848V5.28H18.3848ZM17.5386 4.0841L22.6266 3.2921L22.319 1.3159L17.231 2.1079L17.5386 4.0841ZM21.4728 2.304V18H23.4728V2.304H21.4728ZM22.4728 17H19.8808V19H22.4728V17Z" fill="#455876"/>
<path d="M40.96 18L35.056 2.544H37.768L42.4 15.192L47.032 2.544H49.744L43.888 18H40.96ZM52.6851 18V2.544H63.4611V4.584H55.3011V9.264H62.5731V11.28H55.3011V15.984H63.4611V18H52.6851ZM66.6004 18V2.544H73.7044C75.4324 2.544 76.6884 2.992 77.4724 3.888C78.2724 4.768 78.6724 5.968 78.6724 7.488C78.6724 8.576 78.4004 9.504 77.8564 10.272C77.3124 11.04 76.5284 11.576 75.5044 11.88C75.7924 12.088 76.0164 12.312 76.1764 12.552C76.3364 12.792 76.4964 13.112 76.6564 13.512L78.6004 18H75.9124L74.0164 13.68C73.8404 13.264 73.6244 12.968 73.3684 12.792C73.1284 12.616 72.7124 12.528 72.1204 12.528H69.2164V18H66.6004ZM69.2164 10.416H73.0084C73.9524 10.416 74.6964 10.184 75.2404 9.72C75.7844 9.256 76.0564 8.512 76.0564 7.488C76.0564 5.552 75.1204 4.584 73.2484 4.584H69.2164V10.416ZM81.9689 18V2.544H84.5849V9.648L91.1609 2.544H94.1849L88.4969 8.784L94.4249 18H91.6409L86.8649 10.44L84.5849 12.888V18H81.9689ZM97.6889 18V2.544H108.465V4.584H100.305V9.264H107.577V11.28H100.305V15.984H108.465V18H97.6889ZM111.604 18V2.544H122.116V4.584H114.22V9.264H121.228V11.28H114.22V18H111.604ZM124.91 18V2.544H127.214L135.278 13.92V2.544H137.87V18H135.566L127.526 6.648V18H124.91ZM141.638 18V2.544H144.254V18H141.638Z" fill="#455876"/>
<rect x="151" y="14" width="4" height="4" fill="#6F4218"/>
</svg>
