<svg width="150" height="20" viewBox="0 0 150 20" fill="none" xmlns="http://www.w3.org/2000/svg">
<path d="M3.888 17.496L3.34584 18.3364L3.35555 18.3425L3.888 17.496ZM1.704 14.76L0.767159 15.1098L0.76999 15.1173L0.772943 15.1249L1.704 14.76ZM1.68 6.048L0.741593 5.70227L0.737698 5.71323L1.68 6.048ZM11.784 3.264L11.2356 4.10027L11.2419 4.1043L11.784 3.264ZM13.92 6.048L12.9776 6.38279L12.9817 6.3937L13.92 6.048ZM13.92 14.76L14.8553 15.1139L14.8568 15.1098L13.92 14.76ZM11.76 17.496L12.2925 18.3425L12.3021 18.3363L11.76 17.496ZM11.04 14.688L11.8963 15.2045L11.8999 15.1985L11.04 14.688ZM11.064 6.072L10.1983 6.5725V6.5725L11.064 6.072ZM4.56 6.072L3.70009 5.56143L3.69427 5.5715L4.56 6.072ZM4.584 14.688L3.72412 15.1986L3.72771 15.2045L4.584 14.688ZM7.824 17.432C6.30944 17.432 5.20201 17.1412 4.42045 16.6495L3.35555 18.3425C4.55799 19.0988 6.07456 19.432 7.824 19.432V17.432ZM4.43013 16.6557C3.62829 16.1384 3.02874 15.3997 2.63506 14.3951L0.772943 15.1249C1.30726 16.4883 2.16371 17.5736 3.34587 18.3363L4.43013 16.6557ZM2.64084 14.4102C2.24501 13.35 2.032 12.0425 2.032 10.464H0.032C0.032 12.2135 0.266985 13.77 0.767159 15.1098L2.64084 14.4102ZM2.032 10.464C2.032 8.81382 2.23898 7.46175 2.6223 6.38276L0.737698 5.71323C0.257022 7.06625 0.032 8.65818 0.032 10.464H2.032ZM2.61834 6.3937C2.99912 5.36016 3.59028 4.61516 4.38213 4.1043L3.29787 2.4237C2.10572 3.19283 1.25688 4.30384 0.741657 5.70229L2.61834 6.3937ZM4.38213 4.1043C5.15909 3.60303 6.2769 3.304 7.824 3.304V1.304C6.04311 1.304 4.50491 1.64497 3.29787 2.4237L4.38213 4.1043ZM7.824 3.304C9.37238 3.304 10.4781 3.60352 11.2356 4.10024L12.3324 2.42776C11.1379 1.64448 9.60362 1.304 7.824 1.304V3.304ZM11.2419 4.1043C12.0308 4.61328 12.6123 5.35428 12.9777 6.38276L14.8623 5.71323C14.3637 4.30972 13.5212 3.19472 12.3261 2.4237L11.2419 4.1043ZM12.9817 6.3937C13.3778 7.46894 13.592 8.817 13.592 10.464H15.592C15.592 8.655 15.3582 7.05906 14.8583 5.70229L12.9817 6.3937ZM13.592 10.464C13.592 12.0425 13.379 13.35 12.9832 14.4102L14.8568 15.1098C15.357 13.77 15.592 12.2135 15.592 10.464H13.592ZM12.9847 14.4061C12.6066 15.4055 12.0169 16.1402 11.2179 16.6557L12.3021 18.3363C13.4871 17.5718 14.3374 16.4825 14.8553 15.1139L12.9847 14.4061ZM11.2275 16.6495C10.446 17.1412 9.33856 17.432 7.824 17.432V19.432C9.57344 19.432 11.09 19.0988 12.2925 18.3425L11.2275 16.6495ZM7.824 17.2C9.58887 17.2 11.0523 16.6038 11.8963 15.2045L10.1837 14.1715C9.81171 14.7882 9.13113 15.2 7.824 15.2V17.2ZM11.8999 15.1985C12.6347 13.961 12.952 12.3516 12.952 10.464H10.952C10.952 12.1604 10.6613 13.367 10.1801 14.1775L11.8999 15.1985ZM12.952 10.464C12.952 8.4807 12.6479 6.81367 11.9297 5.5715L10.1983 6.5725C10.6641 7.37833 10.952 8.6393 10.952 10.464H12.952ZM11.9297 5.5715C11.1013 4.13856 9.61643 3.536 7.824 3.536V5.536C9.16757 5.536 9.84268 5.95744 10.1983 6.5725L11.9297 5.5715ZM7.824 3.536C6.03023 3.536 4.54493 4.13866 3.70015 5.56146L5.41986 6.58254C5.79107 5.95734 6.48177 5.536 7.824 5.536V3.536ZM3.69427 5.5715C2.97613 6.81367 2.672 8.4807 2.672 10.464H4.672C4.672 8.6393 4.95987 7.37833 5.42573 6.5725L3.69427 5.5715ZM2.672 10.464C2.672 12.3516 2.98935 13.961 3.72415 15.1985L5.44386 14.1775C4.96265 13.367 4.672 12.1604 4.672 10.464H2.672ZM3.72771 15.2045C4.57366 16.607 6.04808 17.2 7.824 17.2V15.2C6.49592 15.2 5.81034 14.785 5.44029 14.1715L3.72771 15.2045ZM18.8488 16.8L18.1476 17.5129L18.1534 17.5186L18.8488 16.8ZM18.1768 5.4L17.2973 4.92418L18.1768 5.4ZM20.4328 3.12L20.9197 3.99348V3.99348L20.4328 3.12ZM25.9528 2.448L25.7884 3.4344L25.7927 3.43511L25.9528 2.448ZM27.5848 2.856H28.5848V2.14975L27.9192 1.91357L27.5848 2.856ZM27.5848 5.088L27.2504 6.03043L28.5848 6.50393V5.088H27.5848ZM25.9768 4.68L25.8078 5.66563L25.8124 5.66639L25.9768 4.68ZM20.8888 5.568L21.5876 6.28343L21.5959 6.27511L20.8888 5.568ZM19.8568 9.24H18.8568V11.2286L20.4531 10.0427L19.8568 9.24ZM21.7768 8.328L22.0345 9.29423L22.0416 9.29233L22.0488 9.29031L21.7768 8.328ZM27.7768 9.336L27.0632 10.0366L27.7768 9.336ZM27.6568 16.824L28.3639 17.5311L28.3698 17.5251L27.6568 16.824ZM25.8568 15.432L26.5539 16.149L25.8568 15.432ZM26.0008 10.872L25.2308 11.51L25.2407 11.522L25.251 11.5336L26.0008 10.872ZM21.4888 10.368L21.8125 11.3142L21.8196 11.3117L21.8267 11.3092L21.4888 10.368ZM19.8568 11.208L19.2654 10.4016L18.8568 10.7013V11.208H19.8568ZM23.2408 17.24C21.4589 17.24 20.2857 16.7989 19.5442 16.0814L18.1534 17.5186C19.3959 18.7211 21.1507 19.24 23.2408 19.24V17.24ZM19.5501 16.0871C18.8435 15.3921 18.3848 14.1945 18.3848 12.264H16.3848C16.3848 14.4615 16.9021 16.2879 18.1476 17.5129L19.5501 16.0871ZM18.3848 12.264V8.784H16.3848V12.264H18.3848ZM18.3848 8.784C18.3848 7.64445 18.6188 6.68463 19.0564 5.87582L17.2973 4.92418C16.6788 6.06737 16.3848 7.36355 16.3848 8.784H18.3848ZM19.0564 5.87582C19.4932 5.06823 20.1085 4.44562 20.9197 3.99348L19.946 2.24652C18.8051 2.88238 17.9164 3.77977 17.2973 4.92418L19.0564 5.87582ZM20.9197 3.99348C21.7194 3.54775 22.7048 3.304 23.9128 3.304V1.304C22.4329 1.304 21.0983 1.60424 19.946 2.24652L20.9197 3.99348ZM23.9128 3.304C24.6591 3.304 25.2815 3.34992 25.7884 3.43439L26.1172 1.46161C25.4721 1.35408 24.7345 1.304 23.9128 1.304V3.304ZM25.7927 3.43511C26.3334 3.52279 26.8182 3.64508 27.2504 3.79843L27.9192 1.91357C27.3594 1.71492 26.7562 1.56521 26.1129 1.46089L25.7927 3.43511ZM26.5848 2.856V5.088H28.5848V2.856H26.5848ZM27.9192 4.14557C27.3623 3.94796 26.7689 3.79821 26.1412 3.69361L25.8124 5.66639C26.3368 5.75379 26.8153 5.87603 27.2504 6.03043L27.9192 4.14557ZM26.1458 3.69438C25.5186 3.58686 24.8286 3.536 24.0808 3.536V5.536C24.741 5.536 25.315 5.58113 25.8078 5.66562L26.1458 3.69438ZM24.0808 3.536C22.5021 3.536 21.1309 3.91169 20.1817 4.86089L21.5959 6.27511C22.0227 5.84831 22.7796 5.536 24.0808 5.536V3.536ZM20.1901 4.85262C19.2747 5.74667 18.8568 6.92739 18.8568 8.28H20.8568C20.8568 7.36061 21.1269 6.73333 21.5876 6.28338L20.1901 4.85262ZM18.8568 8.28V9.24H20.8568V8.28H18.8568ZM20.4531 10.0427C20.9048 9.70719 21.4283 9.45589 22.0345 9.29423L21.5191 7.36176C20.6854 7.58411 19.9288 7.94081 19.2605 8.43726L20.4531 10.0427ZM22.0488 9.29031C22.7206 9.10044 23.291 9.016 23.7688 9.016V7.016C23.0626 7.016 22.305 7.13956 21.5049 7.36569L22.0488 9.29031ZM23.7688 9.016C25.4335 9.016 26.4598 9.42198 27.0632 10.0366L28.4904 8.63541C27.3658 7.49002 25.7201 7.016 23.7688 7.016V9.016ZM27.0632 10.0366C27.692 10.677 28.0728 11.6417 28.0728 13.08H30.0728C30.0728 11.2863 29.5896 9.75498 28.4904 8.63541L27.0632 10.0366ZM28.0728 13.08C28.0728 14.3937 27.6776 15.3766 26.9438 16.1229L28.3698 17.5251C29.524 16.3514 30.0728 14.8383 30.0728 13.08H28.0728ZM26.9497 16.1169C26.2689 16.7977 25.1062 17.24 23.2408 17.24V19.24C25.3754 19.24 27.1567 18.7383 28.3639 17.5311L26.9497 16.1169ZM23.2648 17.272C24.564 17.272 25.7234 16.9564 26.5539 16.149L25.1597 14.715C24.8383 15.0276 24.2696 15.272 23.2648 15.272V17.272ZM26.5539 16.149C27.3574 15.3678 27.7208 14.3389 27.7208 13.176H25.7208C25.7208 13.9011 25.5082 14.3762 25.1597 14.715L26.5539 16.149ZM27.7208 13.176C27.7208 12.0303 27.4428 10.9948 26.7507 10.2104L25.251 11.5336C25.5188 11.8372 25.7208 12.3377 25.7208 13.176H27.7208ZM26.7708 10.234C26.0127 9.31902 24.7475 9.032 23.3848 9.032V11.032C24.5821 11.032 25.0609 11.305 25.2308 11.51L26.7708 10.234ZM23.3848 9.032C22.6255 9.032 21.8794 9.16531 21.1509 9.4268L21.8267 11.3092C22.3462 11.1227 22.8641 11.032 23.3848 11.032V9.032ZM21.1651 9.42184C20.4689 9.66 19.8333 9.98516 19.2654 10.4016L20.4482 12.0144C20.8403 11.7268 21.2927 11.492 21.8125 11.3142L21.1651 9.42184ZM18.8568 11.208V12.864H20.8568V11.208H18.8568ZM18.8568 12.864C18.8568 14.1541 19.18 15.3054 20.0017 16.1271C20.8234 16.9488 21.9747 17.272 23.2648 17.272V15.272C22.283 15.272 21.7302 15.0272 21.4159 14.7129C21.1016 14.3986 20.8568 13.8459 20.8568 12.864H18.8568Z" fill="#455876"/>
<path d="M43.96 18L38.056 2.544H40.768L45.4 15.192L50.032 2.544H52.744L46.888 18H43.96ZM55.6851 18V2.544H66.4611V4.584H58.3011V9.264H65.5731V11.28H58.3011V15.984H66.4611V18H55.6851ZM69.6004 18V2.544H76.7044C78.4324 2.544 79.6884 2.992 80.4724 3.888C81.2724 4.768 81.6724 5.968 81.6724 7.488C81.6724 8.576 81.4004 9.504 80.8564 10.272C80.3124 11.04 79.5284 11.576 78.5044 11.88C78.7924 12.088 79.0164 12.312 79.1764 12.552C79.3364 12.792 79.4964 13.112 79.6564 13.512L81.6004 18H78.9124L77.0164 13.68C76.8404 13.264 76.6244 12.968 76.3684 12.792C76.1284 12.616 75.7124 12.528 75.1204 12.528H72.2164V18H69.6004ZM72.2164 10.416H76.0084C76.9524 10.416 77.6964 10.184 78.2404 9.72C78.7844 9.256 79.0564 8.512 79.0564 7.488C79.0564 5.552 78.1204 4.584 76.2484 4.584H72.2164V10.416ZM84.9689 18V2.544H87.5849V9.648L94.1609 2.544H97.1849L91.4969 8.784L97.4249 18H94.6409L89.8649 10.44L87.5849 12.888V18H84.9689ZM100.689 18V2.544H111.465V4.584H103.305V9.264H110.577V11.28H103.305V15.984H111.465V18H100.689ZM114.604 18V2.544H125.116V4.584H117.22V9.264H124.228V11.28H117.22V18H114.604ZM127.91 18V2.544H130.214L138.278 13.92V2.544H140.87V18H138.566L130.526 6.648V18H127.91ZM144.638 18V2.544H147.254V18H144.638Z" fill="#455876"/>
</svg>
