<svg width="150" height="20" viewBox="0 0 150 20" fill="none" xmlns="http://www.w3.org/2000/svg">
<path d="M3.888 17.496L3.34584 18.3364L3.35555 18.3425L3.888 17.496ZM1.704 14.76L0.767159 15.1098L0.76999 15.1173L0.772943 15.1249L1.704 14.76ZM1.68 6.048L0.741593 5.70227L0.737698 5.71323L1.68 6.048ZM11.784 3.264L11.2356 4.10027L11.2419 4.1043L11.784 3.264ZM13.92 6.048L12.9776 6.38279L12.9817 6.3937L13.92 6.048ZM13.92 14.76L14.8553 15.1139L14.8568 15.1098L13.92 14.76ZM11.76 17.496L12.2925 18.3425L12.3021 18.3363L11.76 17.496ZM11.04 14.688L11.8963 15.2045L11.8999 15.1985L11.04 14.688ZM11.064 6.072L10.1983 6.5725V6.5725L11.064 6.072ZM4.56 6.072L3.70009 5.56143L3.69427 5.5715L4.56 6.072ZM4.584 14.688L3.72412 15.1986L3.72771 15.2045L4.584 14.688ZM7.824 17.432C6.30944 17.432 5.20201 17.1412 4.42045 16.6495L3.35555 18.3425C4.55799 19.0988 6.07456 19.432 7.824 19.432V17.432ZM4.43013 16.6557C3.62829 16.1384 3.02874 15.3997 2.63506 14.3951L0.772943 15.1249C1.30726 16.4883 2.16371 17.5736 3.34587 18.3363L4.43013 16.6557ZM2.64084 14.4102C2.24501 13.35 2.032 12.0425 2.032 10.464H0.032C0.032 12.2135 0.266985 13.77 0.767159 15.1098L2.64084 14.4102ZM2.032 10.464C2.032 8.81382 2.23898 7.46175 2.6223 6.38276L0.737698 5.71323C0.257022 7.06625 0.032 8.65818 0.032 10.464H2.032ZM2.61834 6.3937C2.99912 5.36016 3.59028 4.61516 4.38213 4.1043L3.29787 2.4237C2.10572 3.19283 1.25688 4.30384 0.741657 5.70229L2.61834 6.3937ZM4.38213 4.1043C5.15909 3.60303 6.2769 3.304 7.824 3.304V1.304C6.04311 1.304 4.50491 1.64497 3.29787 2.4237L4.38213 4.1043ZM7.824 3.304C9.37238 3.304 10.4781 3.60352 11.2356 4.10024L12.3324 2.42776C11.1379 1.64448 9.60362 1.304 7.824 1.304V3.304ZM11.2419 4.1043C12.0308 4.61328 12.6123 5.35428 12.9777 6.38276L14.8623 5.71323C14.3637 4.30972 13.5212 3.19472 12.3261 2.4237L11.2419 4.1043ZM12.9817 6.3937C13.3778 7.46894 13.592 8.817 13.592 10.464H15.592C15.592 8.655 15.3582 7.05906 14.8583 5.70229L12.9817 6.3937ZM13.592 10.464C13.592 12.0425 13.379 13.35 12.9832 14.4102L14.8568 15.1098C15.357 13.77 15.592 12.2135 15.592 10.464H13.592ZM12.9847 14.4061C12.6066 15.4055 12.0169 16.1402 11.2179 16.6557L12.3021 18.3363C13.4871 17.5718 14.3374 16.4825 14.8553 15.1139L12.9847 14.4061ZM11.2275 16.6495C10.446 17.1412 9.33856 17.432 7.824 17.432V19.432C9.57344 19.432 11.09 19.0988 12.2925 18.3425L11.2275 16.6495ZM7.824 17.2C9.58887 17.2 11.0523 16.6038 11.8963 15.2045L10.1837 14.1715C9.81171 14.7882 9.13113 15.2 7.824 15.2V17.2ZM11.8999 15.1985C12.6347 13.961 12.952 12.3516 12.952 10.464H10.952C10.952 12.1604 10.6613 13.367 10.1801 14.1775L11.8999 15.1985ZM12.952 10.464C12.952 8.4807 12.6479 6.81367 11.9297 5.5715L10.1983 6.5725C10.6641 7.37833 10.952 8.6393 10.952 10.464H12.952ZM11.9297 5.5715C11.1013 4.13856 9.61643 3.536 7.824 3.536V5.536C9.16757 5.536 9.84268 5.95744 10.1983 6.5725L11.9297 5.5715ZM7.824 3.536C6.03023 3.536 4.54493 4.13866 3.70015 5.56146L5.41986 6.58254C5.79107 5.95734 6.48177 5.536 7.824 5.536V3.536ZM3.69427 5.5715C2.97613 6.81367 2.672 8.4807 2.672 10.464H4.672C4.672 8.6393 4.95987 7.37833 5.42573 6.5725L3.69427 5.5715ZM2.672 10.464C2.672 12.3516 2.98935 13.961 3.72415 15.1985L5.44386 14.1775C4.96265 13.367 4.672 12.1604 4.672 10.464H2.672ZM3.72771 15.2045C4.57366 16.607 6.04808 17.2 7.824 17.2V15.2C6.49592 15.2 5.81034 14.785 5.44029 14.1715L3.72771 15.2045ZM20.5048 18.096L20.6692 17.1096L20.5048 18.096ZM18.8728 17.712H17.8728V18.4472L18.5745 18.6665L18.8728 17.712ZM18.8728 15.456L19.2338 14.5234L17.8728 13.9966V15.456H18.8728ZM20.4568 15.888L20.2878 16.8736L20.2924 16.8744L20.4568 15.888ZM25.5688 15L24.8617 14.2929L25.5688 15ZM26.6008 11.304H27.6008V9.36081L26.0196 10.4903L26.6008 11.304ZM24.6808 12.216L24.4033 11.2553L24.6808 12.216ZM18.6808 11.208L17.9672 11.9086L17.9737 11.9151L18.6808 11.208ZM18.8008 3.744L18.0878 3.04286L18.8008 3.744ZM27.5848 3.768L26.8777 4.47511L26.8835 4.4809L26.8894 4.4866L27.5848 3.768ZM28.2808 15.144L27.4013 14.6682L28.2808 15.144ZM26.0248 17.424L26.5117 18.2975L26.0248 17.424ZM24.9688 10.2L25.3145 11.1383L24.9688 10.2ZM26.6008 9.36L27.1743 10.1792L27.6008 9.88066V9.36H26.6008ZM20.6008 5.136L21.2979 5.85299V5.85299L20.6008 5.136ZM20.4328 9.696L19.6628 10.334L19.6681 10.3404L19.6736 10.3468L20.4328 9.696ZM22.5448 17.24C21.7985 17.24 21.1761 17.1941 20.6692 17.1096L20.3404 19.0824C20.9855 19.1899 21.7231 19.24 22.5448 19.24V17.24ZM20.6692 17.1096C20.1346 17.0205 19.6356 16.9027 19.1711 16.7575L18.5745 18.6665C19.134 18.8413 19.723 18.9795 20.3404 19.0824L20.6692 17.1096ZM19.8728 17.712V15.456H17.8728V17.712H19.8728ZM18.5118 16.3886C19.074 16.6062 19.6667 16.7671 20.2878 16.8736L20.6258 14.9024C20.127 14.8169 19.6637 14.6898 19.2338 14.5234L18.5118 16.3886ZM20.2924 16.8744C20.9325 16.9811 21.6285 17.032 22.3768 17.032V15.032C21.7171 15.032 21.1332 14.9869 20.6212 14.9016L20.2924 16.8744ZM22.3768 17.032C23.9556 17.032 25.3267 16.6563 26.2759 15.7071L24.8617 14.2929C24.4349 14.7197 23.6781 15.032 22.3768 15.032V17.032ZM26.2759 15.7071C27.1828 14.8002 27.6008 13.6172 27.6008 12.264H25.6008C25.6008 13.1828 25.3308 13.8238 24.8617 14.2929L26.2759 15.7071ZM27.6008 12.264V11.304H25.6008V12.264H27.6008ZM26.0196 10.4903C25.5596 10.8188 25.0241 11.0759 24.4033 11.2553L24.9584 13.1767C25.7775 12.9401 26.522 12.5892 27.1821 12.1177L26.0196 10.4903ZM24.4033 11.2553C23.7534 11.443 23.1841 11.528 22.6888 11.528V13.528C23.4095 13.528 24.1682 13.405 24.9584 13.1767L24.4033 11.2553ZM22.6888 11.528C21.0449 11.528 20.0112 11.1242 19.3879 10.5009L17.9737 11.9151C19.1104 13.0518 20.7488 13.528 22.6888 13.528V11.528ZM19.3944 10.5074C18.7656 9.86698 18.3848 8.90226 18.3848 7.464H16.3848C16.3848 9.25774 16.868 10.789 17.9672 11.9086L19.3944 10.5074ZM18.3848 7.464C18.3848 6.16952 18.778 5.19342 19.5138 4.44514L18.0878 3.04286C16.9356 4.21458 16.3848 5.71848 16.3848 7.464H18.3848ZM19.5138 4.44514C20.1952 3.75223 21.3555 3.304 23.2168 3.304V1.304C21.0781 1.304 19.2944 1.81577 18.0878 3.04286L19.5138 4.44514ZM23.2168 3.304C24.9959 3.304 26.154 3.75139 26.8777 4.47511L28.2919 3.06089C27.0636 1.83261 25.3097 1.304 23.2168 1.304V3.304ZM26.8894 4.4866C27.6094 5.18343 28.0728 6.37222 28.0728 8.28H30.0728C30.0728 6.09178 29.5442 4.27257 28.2802 3.0494L26.8894 4.4866ZM28.0728 8.28V11.76H30.0728V8.28H28.0728ZM28.0728 11.76C28.0728 12.8995 27.8388 13.8594 27.4013 14.6682L29.1604 15.6198C29.7788 14.4766 30.0728 13.1805 30.0728 11.76H28.0728ZM27.4013 14.6682C26.9644 15.4758 26.3491 16.0984 25.538 16.5505L26.5117 18.2975C27.6525 17.6616 28.5413 16.7642 29.1604 15.6198L27.4013 14.6682ZM25.538 16.5505C24.7383 16.9962 23.7529 17.24 22.5448 17.24V19.24C24.0248 19.24 25.3594 18.9398 26.5117 18.2975L25.538 16.5505ZM23.0728 11.536C23.8453 11.536 24.5944 11.4036 25.3145 11.1383L24.6231 9.26166C24.1272 9.44436 23.6123 9.536 23.0728 9.536V11.536ZM25.3145 11.1383C25.9948 10.8877 26.6168 10.5695 27.1743 10.1792L26.0273 8.54077C25.6248 8.82254 25.1588 9.06429 24.6231 9.26166L25.3145 11.1383ZM27.6008 9.36V7.68H25.6008V9.36H27.6008ZM27.6008 7.68C27.6008 6.39606 27.2766 5.24982 26.4534 4.4324C25.6315 3.61627 24.4812 3.296 23.1928 3.296V5.296C24.1764 5.296 24.7301 5.53973 25.0442 5.8516C25.357 6.16218 25.6008 6.70794 25.6008 7.68H27.6008ZM23.1928 3.296C21.8936 3.296 20.7343 3.61155 19.9037 4.419L21.2979 5.85299C21.6194 5.54045 22.188 5.296 23.1928 5.296V3.296ZM19.9037 4.419C19.1002 5.2002 18.7368 6.22907 18.7368 7.392H20.7368C20.7368 6.66693 20.9494 6.1918 21.2979 5.85299L19.9037 4.419ZM18.7368 7.392C18.7368 8.52102 19.0061 9.54144 19.6628 10.334L21.2028 9.05798C20.9315 8.73056 20.7368 8.21497 20.7368 7.392H18.7368ZM19.6736 10.3468C20.4451 11.2469 21.7051 11.536 23.0728 11.536V9.536C21.8805 9.536 21.3806 9.26513 21.1921 9.04521L19.6736 10.3468Z" fill="#455876"/>
<path d="M43.96 18L38.056 2.544H40.768L45.4 15.192L50.032 2.544H52.744L46.888 18H43.96ZM55.6851 18V2.544H66.4611V4.584H58.3011V9.264H65.5731V11.28H58.3011V15.984H66.4611V18H55.6851ZM69.6004 18V2.544H76.7044C78.4324 2.544 79.6884 2.992 80.4724 3.888C81.2724 4.768 81.6724 5.968 81.6724 7.488C81.6724 8.576 81.4004 9.504 80.8564 10.272C80.3124 11.04 79.5284 11.576 78.5044 11.88C78.7924 12.088 79.0164 12.312 79.1764 12.552C79.3364 12.792 79.4964 13.112 79.6564 13.512L81.6004 18H78.9124L77.0164 13.68C76.8404 13.264 76.6244 12.968 76.3684 12.792C76.1284 12.616 75.7124 12.528 75.1204 12.528H72.2164V18H69.6004ZM72.2164 10.416H76.0084C76.9524 10.416 77.6964 10.184 78.2404 9.72C78.7844 9.256 79.0564 8.512 79.0564 7.488C79.0564 5.552 78.1204 4.584 76.2484 4.584H72.2164V10.416ZM84.9689 18V2.544H87.5849V9.648L94.1609 2.544H97.1849L91.4969 8.784L97.4249 18H94.6409L89.8649 10.44L87.5849 12.888V18H84.9689ZM100.689 18V2.544H111.465V4.584H103.305V9.264H110.577V11.28H103.305V15.984H111.465V18H100.689ZM114.604 18V2.544H125.116V4.584H117.22V9.264H124.228V11.28H117.22V18H114.604ZM127.91 18V2.544H130.214L138.278 13.92V2.544H140.87V18H138.566L130.526 6.648V18H127.91ZM144.638 18V2.544H147.254V18H144.638Z" fill="#455876"/>
</svg>
