<svg width="150" height="20" viewBox="0 0 150 20" fill="none" xmlns="http://www.w3.org/2000/svg">
<path d="M3.888 17.496L3.34584 18.3364L3.35555 18.3425L3.888 17.496ZM1.704 14.76L0.767159 15.1098L0.76999 15.1173L0.772943 15.1249L1.704 14.76ZM1.68 6.048L0.741593 5.70227L0.737698 5.71323L1.68 6.048ZM11.784 3.264L11.2356 4.10027L11.2419 4.1043L11.784 3.264ZM13.92 6.048L12.9776 6.38279L12.9817 6.3937L13.92 6.048ZM13.92 14.76L14.8553 15.1139L14.8568 15.1098L13.92 14.76ZM11.76 17.496L12.2925 18.3425L12.3021 18.3363L11.76 17.496ZM11.04 14.688L11.8963 15.2045L11.8999 15.1985L11.04 14.688ZM11.064 6.072L10.1983 6.5725V6.5725L11.064 6.072ZM4.56 6.072L3.70009 5.56143L3.69427 5.5715L4.56 6.072ZM4.584 14.688L3.72412 15.1986L3.72771 15.2045L4.584 14.688ZM7.824 17.432C6.30944 17.432 5.20201 17.1412 4.42045 16.6495L3.35555 18.3425C4.55799 19.0988 6.07456 19.432 7.824 19.432V17.432ZM4.43013 16.6557C3.62829 16.1384 3.02874 15.3997 2.63506 14.3951L0.772943 15.1249C1.30726 16.4883 2.16371 17.5736 3.34587 18.3363L4.43013 16.6557ZM2.64084 14.4102C2.24501 13.35 2.032 12.0425 2.032 10.464H0.032C0.032 12.2135 0.266985 13.77 0.767159 15.1098L2.64084 14.4102ZM2.032 10.464C2.032 8.81382 2.23898 7.46175 2.6223 6.38276L0.737698 5.71323C0.257022 7.06625 0.032 8.65818 0.032 10.464H2.032ZM2.61834 6.3937C2.99912 5.36016 3.59028 4.61516 4.38213 4.1043L3.29787 2.4237C2.10572 3.19283 1.25688 4.30384 0.741657 5.70229L2.61834 6.3937ZM4.38213 4.1043C5.15909 3.60303 6.2769 3.304 7.824 3.304V1.304C6.04311 1.304 4.50491 1.64497 3.29787 2.4237L4.38213 4.1043ZM7.824 3.304C9.37238 3.304 10.4781 3.60352 11.2356 4.10024L12.3324 2.42776C11.1379 1.64448 9.60362 1.304 7.824 1.304V3.304ZM11.2419 4.1043C12.0308 4.61328 12.6123 5.35428 12.9777 6.38276L14.8623 5.71323C14.3637 4.30972 13.5212 3.19472 12.3261 2.4237L11.2419 4.1043ZM12.9817 6.3937C13.3778 7.46894 13.592 8.817 13.592 10.464H15.592C15.592 8.655 15.3582 7.05906 14.8583 5.70229L12.9817 6.3937ZM13.592 10.464C13.592 12.0425 13.379 13.35 12.9832 14.4102L14.8568 15.1098C15.357 13.77 15.592 12.2135 15.592 10.464H13.592ZM12.9847 14.4061C12.6066 15.4055 12.0169 16.1402 11.2179 16.6557L12.3021 18.3363C13.4871 17.5718 14.3374 16.4825 14.8553 15.1139L12.9847 14.4061ZM11.2275 16.6495C10.446 17.1412 9.33856 17.432 7.824 17.432V19.432C9.57344 19.432 11.09 19.0988 12.2925 18.3425L11.2275 16.6495ZM7.824 17.2C9.58887 17.2 11.0523 16.6038 11.8963 15.2045L10.1837 14.1715C9.81171 14.7882 9.13113 15.2 7.824 15.2V17.2ZM11.8999 15.1985C12.6347 13.961 12.952 12.3516 12.952 10.464H10.952C10.952 12.1604 10.6613 13.367 10.1801 14.1775L11.8999 15.1985ZM12.952 10.464C12.952 8.4807 12.6479 6.81367 11.9297 5.5715L10.1983 6.5725C10.6641 7.37833 10.952 8.6393 10.952 10.464H12.952ZM11.9297 5.5715C11.1013 4.13856 9.61643 3.536 7.824 3.536V5.536C9.16757 5.536 9.84268 5.95744 10.1983 6.5725L11.9297 5.5715ZM7.824 3.536C6.03023 3.536 4.54493 4.13866 3.70015 5.56146L5.41986 6.58254C5.79107 5.95734 6.48177 5.536 7.824 5.536V3.536ZM3.69427 5.5715C2.97613 6.81367 2.672 8.4807 2.672 10.464H4.672C4.672 8.6393 4.95987 7.37833 5.42573 6.5725L3.69427 5.5715ZM2.672 10.464C2.672 12.3516 2.98935 13.961 3.72415 15.1985L5.44386 14.1775C4.96265 13.367 4.672 12.1604 4.672 10.464H2.672ZM3.72771 15.2045C4.57366 16.607 6.04808 17.2 7.824 17.2V15.2C6.49592 15.2 5.81034 14.785 5.44029 14.1715L3.72771 15.2045ZM17.3848 18H16.3848V19H17.3848V18ZM17.3848 16.704L16.4649 16.3119L16.3848 16.4998V16.704H17.3848ZM19.1128 14.064L18.3911 13.3717L18.3837 13.3796L19.1128 14.064ZM21.5128 11.784L22.1683 12.5392L22.1713 12.5366L21.5128 11.784ZM23.0968 10.368L23.7751 11.1028L23.7762 11.1018L23.0968 10.368ZM24.1048 9.288L23.3048 8.688L24.1048 9.288ZM24.6088 8.304L25.5704 8.57874L25.5736 8.56712L24.6088 8.304ZM19.7608 4.728L19.5647 3.74741L19.5599 3.7484L19.7608 4.728ZM17.9608 5.256H16.9608V6.71784L18.3233 6.188L17.9608 5.256ZM17.9608 2.952L17.6365 2.00605L16.9608 2.23771V2.952H17.9608ZM19.9528 2.496L20.0971 3.48553L20.1072 3.48407L20.1172 3.48239L19.9528 2.496ZM26.0488 3.576L25.3549 4.29608V4.29608L26.0488 3.576ZM26.9848 9.024L27.8943 9.43978L27.8986 9.43014L26.9848 9.024ZM25.9288 10.632L26.6709 11.3023L26.6762 11.2964L26.6814 11.2905L25.9288 10.632ZM24.3688 12.168L25.025 12.9227L25.0344 12.9143L24.3688 12.168ZM22.2808 14.04L22.9599 14.7741L22.9606 14.7734L22.2808 14.04ZM20.7208 15.984L19.8514 15.49L19.0025 16.984H20.7208V15.984ZM27.5368 15.984H28.5368V14.984H27.5368V15.984ZM27.5368 18V19H28.5368V18H27.5368ZM18.3848 18V16.704H16.3848V18H18.3848ZM18.3047 17.0961C18.6741 16.2295 19.185 15.4481 19.8419 14.7484L18.3837 13.3796C17.5686 14.2479 16.9275 15.2265 16.4649 16.3119L18.3047 17.0961ZM19.8345 14.7562C20.5647 13.9949 21.3425 13.2559 22.1683 12.5392L20.8573 11.0288C19.9871 11.7841 19.1649 12.5651 18.3911 13.3718L19.8345 14.7562ZM22.1713 12.5366C22.815 11.9733 23.3502 11.495 23.7751 11.1028L22.4185 9.6332C22.0114 10.009 21.4906 10.4747 20.8543 11.0314L22.1713 12.5366ZM23.7762 11.1018C24.2338 10.6781 24.6162 10.2728 24.9048 9.888L23.3048 8.688C23.1134 8.94316 22.8238 9.25791 22.4174 9.63424L23.7762 11.1018ZM24.9048 9.888C25.2076 9.48431 25.4363 9.04779 25.5703 8.57872L23.6473 8.02928C23.5893 8.23221 23.482 8.45169 23.3048 8.688L24.9048 9.888ZM25.5736 8.56712C25.6983 8.10982 25.7528 7.61005 25.7528 7.08H23.7528C23.7528 7.47795 23.7113 7.79418 23.644 8.04088L25.5736 8.56712ZM25.7528 7.08C25.7528 6.05145 25.4495 5.11362 24.7018 4.4407L23.3638 5.92729C23.5762 6.11838 23.7528 6.44455 23.7528 7.08H25.7528ZM24.7018 4.4407C23.9439 3.75862 22.8338 3.536 21.6328 3.536V5.536C22.6718 5.536 23.1617 5.74538 23.3638 5.92729L24.7018 4.4407ZM21.6328 3.536C20.9543 3.536 20.2646 3.60744 19.5647 3.74742L19.9569 5.70858C20.537 5.59256 21.0953 5.536 21.6328 5.536V3.536ZM19.5599 3.7484C18.8825 3.88735 18.2283 4.079 17.5984 4.32399L18.3233 6.188C18.8453 5.985 19.3911 5.82465 19.9618 5.7076L19.5599 3.7484ZM18.9608 5.256V2.952H16.9608V5.256H18.9608ZM18.2851 3.89794C18.7718 3.73108 19.3726 3.59118 20.0971 3.48553L19.8085 1.50647C18.997 1.62481 18.2698 1.78892 17.6365 2.00605L18.2851 3.89794ZM20.1172 3.48239C20.8378 3.36229 21.5105 3.304 22.1368 3.304V1.304C21.3871 1.304 20.6038 1.37371 19.7884 1.50961L20.1172 3.48239ZM22.1368 3.304C23.7137 3.304 24.7266 3.69062 25.3549 4.29608L26.7427 2.85592C25.611 1.76538 24.0159 1.304 22.1368 1.304V3.304ZM25.3549 4.29608C26.0001 4.91781 26.3688 5.7959 26.3688 7.056H28.3688C28.3688 5.37209 27.8575 3.93019 26.7427 2.85592L25.3549 4.29608ZM26.3688 7.056C26.3688 7.67531 26.2614 8.18937 26.071 8.61786L27.8986 9.43014C28.2202 8.70663 28.3688 7.90868 28.3688 7.056H26.3688ZM26.0753 8.60824C25.8636 9.07146 25.5671 9.52682 25.1762 9.9735L26.6814 11.2905C27.1865 10.7132 27.594 10.0965 27.8943 9.43976L26.0753 8.60824ZM25.1867 9.96171C24.7668 10.4266 24.2731 10.9134 23.7032 11.4217L25.0344 12.9143C25.6485 12.3666 26.1949 11.8294 26.6709 11.3023L25.1867 9.96171ZM23.7126 11.4134C22.9694 12.0597 22.2655 12.6908 21.601 13.3066L22.9606 14.7734C23.6082 14.1732 24.2963 13.5563 25.025 12.9226L23.7126 11.4134ZM21.6018 13.3059C20.8921 13.9623 20.3059 14.6901 19.8514 15.49L21.5903 16.478C21.9358 15.8699 22.3895 15.3017 22.9599 14.7741L21.6018 13.3059ZM20.7208 16.984H27.5368V14.984H20.7208V16.984ZM26.5368 15.984V18H28.5368V15.984H26.5368ZM27.5368 17H17.3848V19H27.5368V17Z" fill="#455876"/>
<path d="M43.96 18L38.056 2.544H40.768L45.4 15.192L50.032 2.544H52.744L46.888 18H43.96ZM55.6851 18V2.544H66.4611V4.584H58.3011V9.264H65.5731V11.28H58.3011V15.984H66.4611V18H55.6851ZM69.6004 18V2.544H76.7044C78.4324 2.544 79.6884 2.992 80.4724 3.888C81.2724 4.768 81.6724 5.968 81.6724 7.488C81.6724 8.576 81.4004 9.504 80.8564 10.272C80.3124 11.04 79.5284 11.576 78.5044 11.88C78.7924 12.088 79.0164 12.312 79.1764 12.552C79.3364 12.792 79.4964 13.112 79.6564 13.512L81.6004 18H78.9124L77.0164 13.68C76.8404 13.264 76.6244 12.968 76.3684 12.792C76.1284 12.616 75.7124 12.528 75.1204 12.528H72.2164V18H69.6004ZM72.2164 10.416H76.0084C76.9524 10.416 77.6964 10.184 78.2404 9.72C78.7844 9.256 79.0564 8.512 79.0564 7.488C79.0564 5.552 78.1204 4.584 76.2484 4.584H72.2164V10.416ZM84.9689 18V2.544H87.5849V9.648L94.1609 2.544H97.1849L91.4969 8.784L97.4249 18H94.6409L89.8649 10.44L87.5849 12.888V18H84.9689ZM100.689 18V2.544H111.465V4.584H103.305V9.264H110.577V11.28H103.305V15.984H111.465V18H100.689ZM114.604 18V2.544H125.116V4.584H117.22V9.264H124.228V11.28H117.22V18H114.604ZM127.91 18V2.544H130.214L138.278 13.92V2.544H140.87V18H138.566L130.526 6.648V18H127.91ZM144.638 18V2.544H147.254V18H144.638Z" fill="#455876"/>
</svg>
